<?xml version="1.0" standalone="no"?>
<!DOCTYPE svg PUBLIC "-//W3C//DTD SVG 1.1//EN" "http://www.w3.org/Graphics/SVG/1.1/DTD/svg11.dtd" >
<svg xmlns="http://www.w3.org/2000/svg" xmlns:xlink="http://www.w3.org/1999/xlink" version="1.1">
<metadata>
Created by FontForge 20170731 at Wed Dec  2 16:33:55 2015
 By Aleksey,,,
Digitized data copyright (c) 2012-2015, The Mozilla Foundation and Telefonica S.A.
</metadata>
<defs>
<font id="FiraSansCondensed-Bold" horiz-adv-x="482" >
  <font-face 
    font-family="Fira Sans Condensed"
    font-weight="700"
    font-stretch="condensed"
    units-per-em="1000"
    panose-1="2 11 8 3 5 0 0 2 0 4"
    ascent="800"
    descent="-200"
    x-height="531"
    cap-height="693"
    bbox="-383 -355 1360 1265"
    underline-thickness="50"
    underline-position="-200"
    unicode-range="U+000D-FEFF"
  />
<missing-glyph horiz-adv-x="666" 
d="M543 1050v-1400h-420v1400h420zM490 999h-313v-1298h313v1298zM324 451q111 0 111 -115q0 -104 -95 -118v-45q0 -11 -7.5 -17.5t-17.5 -6.5t-17.5 6.5t-7.5 17.5v84q53 3 72 19.5t19 57.5q0 33 -13 51t-48 18q-29 0 -52 -11q-8 -3 -13 -3q-24 0 -24 23q0 19 29.5 29
t63.5 10zM315 120q15 0 25 -10t10 -25q0 -16 -10 -26.5t-25 -10.5t-25 10.5t-10 26.5q0 15 10 25t25 10z" />
    <glyph glyph-name="fi" unicode="fi" horiz-adv-x="521" 
d="M269 758q90 0 160 -40l-41 -95q-48 23 -99 23q-37 0 -52 -15t-15 -50v-50h253v-531h-151v426h-102v-426h-151v426h-70v105h70v57q0 74 49 122t149 48z" />
    <glyph glyph-name="fl" unicode="fl" horiz-adv-x="560" 
d="M535 106l27 -104q-40 -19 -87 -19q-64 0 -99 37t-35 103v517q-28 9 -57 9q-33 0 -46 -15t-13 -49v-54h80l-17 -105h-63v-426h-151v426h-70v105h70v57q0 74 47.5 122t136.5 48q46 0 102 -18l132 14v-623q0 -28 22 -28q12 0 21 3z" />
    <glyph glyph-name=".notdef" horiz-adv-x="666" 
d="M543 1050v-1400h-420v1400h420zM490 999h-313v-1298h313v1298zM324 451q111 0 111 -115q0 -104 -95 -118v-45q0 -11 -7.5 -17.5t-17.5 -6.5t-17.5 6.5t-7.5 17.5v84q53 3 72 19.5t19 57.5q0 33 -13 51t-48 18q-29 0 -52 -11q-8 -3 -13 -3q-24 0 -24 23q0 19 29.5 29
t63.5 10zM315 120q15 0 25 -10t10 -25q0 -16 -10 -26.5t-25 -10.5t-25 10.5t-10 26.5q0 15 10 25t25 10z" />
    <glyph glyph-name=".null" horiz-adv-x="0" 
 />
    <glyph glyph-name="nonmarkingreturn" horiz-adv-x="333" 
 />
    <glyph glyph-name="CR" unicode="&#xd;" horiz-adv-x="198" 
 />
    <glyph glyph-name="space" unicode=" " horiz-adv-x="198" 
 />
    <glyph glyph-name="exclam" unicode="!" horiz-adv-x="225" 
d="M192 693l-21 -441h-117l-21 441h159zM112 157q37 0 61.5 -26t24.5 -61q0 -36 -24.5 -61.5t-61.5 -25.5t-60.5 25.5t-23.5 61.5t23.5 61.5t60.5 25.5z" />
    <glyph glyph-name="quotedbl" unicode="&#x22;" horiz-adv-x="417" 
d="M60 416l-16 277h129l-16 -277h-97zM260 416l-16 277h129l-16 -277h-97z" />
    <glyph glyph-name="numbersign" unicode="#" horiz-adv-x="487" 
d="M475 441h-57l-25 -195h50v-99h-64l-19 -147h-119l20 147h-85l-20 -147h-119l20 147h-44v99h57l25 195h-51v99h65l17 136h119l-18 -136h85l18 136h119l-18 -136h44v-99zM274 246l25 195h-85l-25 -195h85z" />
    <glyph glyph-name="dollar" unicode="$" horiz-adv-x="478" 
d="M459 199q0 -76 -42.5 -129.5t-117.5 -71.5v-158h-105v151q-112 9 -190 92l72 81q71 -64 140 -64q43 0 66 23.5t23 63.5q0 37 -22.5 60.5t-79.5 45.5q-96 38 -136 84t-40 118q0 73 46 123.5t121 63.5v147h105v-148q83 -14 145 -79l-66 -79q-59 53 -121 53q-36 0 -56.5 -19
t-20.5 -50q0 -32 22.5 -51.5t87.5 -45.5q89 -37 129 -82t40 -129z" />
    <glyph glyph-name="percent" unicode="%" horiz-adv-x="759" 
d="M536 718l90 -51l-401 -705l-89 51zM185 689q68 0 111.5 -46.5t43.5 -131.5q0 -86 -43.5 -133t-111.5 -47t-112 47t-44 132q0 86 44 132.5t112 46.5zM185 602q-53 0 -53 -92q0 -91 53 -91q28 0 39.5 22.5t11.5 69.5q0 91 -51 91zM574 341q69 0 112.5 -46.5t43.5 -132.5
t-43.5 -132.5t-112.5 -46.5q-68 0 -112 46.5t-44 131.5q0 86 44 133t112 47zM574 253q-29 0 -40.5 -22.5t-11.5 -69.5q0 -46 11.5 -68t40.5 -22t40.5 22t11.5 69q0 46 -11.5 68.5t-40.5 22.5z" />
    <glyph glyph-name="ampersand" unicode="&#x26;" horiz-adv-x="694" 
d="M276 710q90 0 141 -45.5t51 -118.5q0 -56 -29 -99.5t-87 -87.5l115 -131q26 70 38 142l119 -30q-32 -111 -79 -189l107 -107l-126 -61l-69 78q-84 -78 -193 -78q-94 0 -153.5 53.5t-59.5 139.5q0 61 28 105.5t91 89.5q-49 51 -67.5 88t-18.5 84q0 71 49.5 119t142.5 48z
M277 612q-50 0 -50 -68q0 -32 9.5 -54.5t36.5 -55.5q29 31 41 54.5t12 56.5q0 67 -49 67zM252 288q-44 -44 -44 -105q0 -44 23 -68.5t63 -24.5q51 0 92 43z" />
    <glyph glyph-name="quotesingle" unicode="'" horiz-adv-x="217" 
d="M60 416l-16 277h129l-16 -277h-97z" />
    <glyph glyph-name="parenleft" unicode="(" horiz-adv-x="291" 
d="M181 857l97 -64q-61 -102 -87 -201t-26 -242t26 -242t87 -201l-97 -64q-81 121 -124 233.5t-43 273.5t43 273.5t124 233.5z" />
    <glyph glyph-name="parenright" unicode=")" horiz-adv-x="291" 
d="M109 857q42 -65 65 -106.5t51 -106t40.5 -137t12.5 -157.5t-12.5 -157.5t-40.5 -137t-51 -106t-65 -106.5l-96 64q61 101 87 202t26 241t-26 241t-87 202z" />
    <glyph glyph-name="asterisk" unicode="*" horiz-adv-x="404" 
d="M392 539l-119 -25l90 -103l-103 -69l-58 122l-56 -123l-104 69l89 104l-119 24l39 113l108 -57l-19 148h124l-19 -149l108 59z" />
    <glyph glyph-name="plus" unicode="+" horiz-adv-x="464" 
d="M293 543v-153h133v-117h-133v-153h-122v153h-133v117h133v153h122z" />
    <glyph glyph-name="comma" unicode="," horiz-adv-x="219" 
d="M110 157q36 0 59 -24.5t23 -60.5q0 -29 -30 -105l-55 -142h-80l39 173q-40 27 -40 73q0 37 24 61.5t60 24.5z" />
    <glyph glyph-name="hyphen" unicode="-" horiz-adv-x="362" 
d="M40 254v118h282v-118h-282z" />
    <glyph glyph-name="period" unicode="." horiz-adv-x="223" 
d="M111 157q37 0 61 -25.5t24 -61.5t-24 -61.5t-61 -25.5t-61 25.5t-24 61.5q0 35 24 61t61 26z" />
    <glyph glyph-name="slash" unicode="/" horiz-adv-x="447" 
d="M263 815l128 -29l-207 -897l-128 30z" />
    <glyph glyph-name="zero" unicode="0" horiz-adv-x="529" 
d="M265 689q110 0 168 -89t58 -263q0 -354 -226 -354q-111 0 -169 88.5t-58 265.5q0 352 227 352zM265 578q-41 0 -57 -50t-16 -191q0 -143 16 -192.5t57 -49.5t56.5 48.5t15.5 193.5q0 142 -15.5 191.5t-56.5 49.5z" />
    <glyph glyph-name="one" unicode="1" horiz-adv-x="407" 
d="M340 675v-675h-147v528l-122 -87l-67 97l201 137h135z" />
    <glyph glyph-name="two" unicode="2" horiz-adv-x="443" 
d="M201 689q98 0 152.5 -53.5t54.5 -133.5t-46 -158.5t-183 -227.5h242l-16 -116h-388v107q146 171 191.5 244.5t45.5 140.5q0 39 -18.5 60.5t-51.5 21.5q-29 0 -51.5 -15.5t-51.5 -51.5l-86 67q78 115 206 115z" />
    <glyph glyph-name="three" unicode="3" horiz-adv-x="454" 
d="M208 689q92 0 146.5 -50t54.5 -123q0 -122 -130 -159q149 -19 149 -165q0 -88 -60.5 -148.5t-166.5 -60.5q-125 0 -209 101l81 75q57 -61 115 -61q39 0 62.5 27t23.5 75q0 101 -98 101h-46l16 104h31q40 0 63.5 24t23.5 68q0 39 -20 60t-56 21q-57 0 -110 -56l-74 77
q86 90 204 90z" />
    <glyph glyph-name="four" unicode="4" horiz-adv-x="493" 
d="M478 261v-113h-63v-148h-142l-1 148h-251v101l163 444l127 -46l-139 -386h102l17 163h124v-163h63z" />
    <glyph glyph-name="five" unicode="5" horiz-adv-x="472" 
d="M417 676l-17 -109h-210v-151q44 26 89 26q73 0 119.5 -57t46.5 -162q0 -108 -64.5 -174t-171.5 -66q-121 0 -200 101l83 74q51 -61 110 -61q90 0 90 125q0 64 -19.5 90t-55.5 26q-33 0 -69 -25h-100v363h369z" />
    <glyph glyph-name="six" unicode="6" horiz-adv-x="505" 
d="M318 453q74 0 120 -58.5t46 -163.5q0 -112 -57.5 -180t-159.5 -68q-229 0 -229 325q0 175 71 278t193 103q77 0 135 -44l-54 -87q-39 24 -75 24q-48 0 -78 -49t-37 -144q49 64 125 64zM333 230q3 121 -59 121q-43 0 -81 -59q1 -113 17 -156.5t56 -43.5q66 0 67 138z" />
    <glyph glyph-name="seven" unicode="7" horiz-adv-x="409" 
d="M396 676v-103l-213 -589l-136 44l197 534h-235v114h387z" />
    <glyph glyph-name="eight" unicode="8" horiz-adv-x="507" 
d="M362 362q65 -34 94 -77.5t29 -102.5q0 -88 -62 -143.5t-173 -55.5q-107 0 -167.5 54.5t-60.5 142.5q0 113 114 168q-91 59 -91 160q0 83 56.5 132t149.5 49q97 0 154.5 -46t57.5 -127q0 -95 -101 -154zM254 588q-66 0 -66 -82q0 -36 14.5 -57.5t51.5 -39.5l18 -9
q47 42 47 108q0 80 -65 80zM255 91q83 0 83 92q0 42 -19 66t-68 46l-26 12q-55 -42 -55 -120q0 -96 85 -96z" />
    <glyph glyph-name="nine" unicode="9" horiz-adv-x="499" 
d="M246 689q110 0 167.5 -69.5t57.5 -193.5q0 -201 -89.5 -304.5t-287.5 -148.5l-31 105q115 33 172.5 81.5t76.5 138.5q-52 -63 -122 -63t-119.5 61t-49.5 161q0 109 63 170.5t162 61.5zM240 340q42 0 77 57q1 107 -14.5 147t-56.5 40q-74 0 -74 -122t68 -122z" />
    <glyph glyph-name="colon" unicode=":" horiz-adv-x="223" 
d="M111 504q37 0 61 -25.5t24 -61.5t-24 -61.5t-61 -25.5t-61 26t-24 61t24 61t61 26zM111 157q37 0 61 -25.5t24 -61.5t-24 -61.5t-61 -25.5t-61 25.5t-24 61.5q0 35 24 61t61 26z" />
    <glyph glyph-name="semicolon" unicode=";" horiz-adv-x="223" 
d="M111 504q37 0 61 -25.5t24 -61.5t-24 -61.5t-61 -25.5t-61 26t-24 61t24 61t61 26zM110 157q36 0 59 -24.5t23 -60.5q0 -29 -30 -105l-55 -142h-80l39 173q-40 27 -40 73q0 37 24 61.5t60 24.5z" />
    <glyph glyph-name="less" unicode="&#x3c;" horiz-adv-x="451" 
d="M376 568l50 -102l-280 -133l280 -129l-50 -107l-351 173v126z" />
    <glyph glyph-name="equal" unicode="=" horiz-adv-x="450" 
d="M38 378v114h374v-114h-374zM38 170v114h374v-114h-374z" />
    <glyph glyph-name="greater" unicode="&#x3e;" horiz-adv-x="451" 
d="M74 568l352 -172v-126l-352 -173l-49 107l279 129l-279 133z" />
    <glyph glyph-name="question" unicode="?" horiz-adv-x="427" 
d="M221 710q91 0 142 -49t51 -117q0 -43 -16 -74.5t-38.5 -51t-45 -37.5t-38.5 -43.5t-16 -58.5v-27h-136v33q0 48 14 82t33.5 53t39.5 34t34 35t14 46q0 56 -57 56q-50 0 -98 -57l-91 70q79 106 208 106zM193 157q37 0 61 -25.5t24 -61.5t-24 -61.5t-61 -25.5t-61 25.5
t-24 61.5t24 61.5t61 25.5z" />
    <glyph glyph-name="at" unicode="@" horiz-adv-x="885" 
d="M455 501q87 0 155 -44v-247q0 -66 8 -88.5t29 -22.5q67 0 67 214q0 138 -63.5 213t-193.5 75q-135 0 -209 -97t-74 -261q0 -175 72 -264.5t213 -89.5q88 0 169 33l35 -101q-96 -41 -206 -41q-194 0 -305 124t-111 338q0 204 118 335.5t298 131.5q178 0 282.5 -114.5
t104.5 -279.5q0 -136 -54 -223t-137 -87q-48 0 -78.5 28.5t-37.5 70.5q-38 -96 -126 -96q-76 0 -116.5 60t-40.5 165q0 126 52 197t149 71zM433 101q31 0 52 41v260q-19 7 -36 7q-33 0 -47.5 -38t-14.5 -139q0 -76 10.5 -103.5t35.5 -27.5z" />
    <glyph glyph-name="A" unicode="A" horiz-adv-x="524" 
d="M374 0l-30 152h-167l-29 -152h-158l179 693h188l177 -693h-160zM199 265h123l-62 314z" />
    <glyph glyph-name="B" unicode="B" horiz-adv-x="536" 
d="M375 367q143 -32 143 -166q0 -201 -268 -201h-199v693h175q127 0 197 -44t70 -133q0 -60 -33 -97.5t-85 -51.5zM241 582h-33v-168h40q87 0 87 87q0 81 -94 81zM251 114q52 0 79.5 22t27.5 74q0 99 -100 99h-50v-195h43z" />
    <glyph glyph-name="C" unicode="C" horiz-adv-x="504" 
d="M308 710q105 0 186 -76l-74 -87q-53 46 -104 46q-123 0 -123 -245q0 -244 125 -244q31 0 55.5 13t56.5 40l70 -86q-80 -88 -191 -88q-130 0 -204.5 92.5t-74.5 272.5q0 176 76 269t202 93z" />
    <glyph glyph-name="D" unicode="D" horiz-adv-x="572" 
d="M230 693q53 0 95 -7.5t84 -29.5t70 -58.5t45.5 -99.5t17.5 -148q0 -101 -24 -172t-67.5 -108.5t-94 -53.5t-115.5 -16h-190v693h179zM250 580h-42v-466h42q65 0 98 51t33 185t-33 182t-98 48z" />
    <glyph glyph-name="E" unicode="E" horiz-adv-x="452" 
d="M429 693l-16 -112h-205v-173h180v-111h-180v-184h219v-113h-376v693h378z" />
    <glyph glyph-name="F" unicode="F" horiz-adv-x="422" 
d="M51 0v693h366l-16 -112h-193v-191h169v-112h-169v-278h-157z" />
    <glyph glyph-name="G" unicode="G" horiz-adv-x="567" 
d="M323 710q118 0 204 -84l-76 -79q-59 49 -120 49q-139 0 -139 -249q0 -136 27.5 -192.5t86.5 -56.5q39 0 74 24v164h-72l-15 111h235v-342q-98 -71 -218 -71q-280 0 -280 364q0 172 82.5 267t210.5 95z" />
    <glyph glyph-name="H" unicode="H" horiz-adv-x="577" 
d="M368 0v299h-160v-299h-157v693h157v-271h160v271h158v-693h-158z" />
    <glyph glyph-name="I" unicode="I" horiz-adv-x="260" 
d="M208 693v-693h-157v693h157z" />
    <glyph glyph-name="J" unicode="J" horiz-adv-x="278" 
d="M229 693v-589q0 -61 -16 -108t-47 -77.5t-62.5 -49t-75.5 -35.5l-42 111q55 25 70.5 59t15.5 106v583h157z" />
    <glyph glyph-name="K" unicode="K" horiz-adv-x="559" 
d="M208 693v-693h-157v693h157zM556 693l-184 -312l199 -381h-173l-185 370l186 323h157z" />
    <glyph glyph-name="L" unicode="L" horiz-adv-x="445" 
d="M208 693v-569h230l-17 -124h-370v693h157z" />
    <glyph glyph-name="M" unicode="M" horiz-adv-x="693" 
d="M620 693l44 -693h-149l-8 275q-5 176 -3 280l-84 -481h-148l-89 481q4 -112 1 -282l-8 -273h-148l45 693h194l81 -475l75 475h197z" />
    <glyph glyph-name="N" unicode="N" horiz-adv-x="573" 
d="M522 693v-693h-194l-162 549q21 -176 21 -283v-266h-136v693h193l163 -550q-21 142 -21 259v291h136z" />
    <glyph glyph-name="O" unicode="O" horiz-adv-x="606" 
d="M303 710q132 0 202.5 -91.5t70.5 -271.5q0 -178 -71 -271t-202 -93q-132 0 -202.5 92t-70.5 272q0 177 71 270t202 93zM303 595q-57 0 -83.5 -57t-26.5 -191q0 -136 26.5 -192.5t83.5 -56.5q58 0 84 56t26 193q0 134 -26.5 191t-83.5 57z" />
    <glyph glyph-name="P" unicode="P" horiz-adv-x="522" 
d="M238 693q131 0 200.5 -57t69.5 -168q0 -116 -67 -175.5t-187 -59.5h-46v-233h-157v693h187zM240 347q56 0 81.5 27.5t25.5 93.5q0 58 -24.5 85.5t-80.5 27.5h-34v-234h32z" />
    <glyph glyph-name="Q" unicode="Q" horiz-adv-x="606" 
d="M428 43q115 -1 189 -67l-94 -119q-45 61 -99 95t-132 34q-123 0 -192.5 93t-69.5 268q0 176 71 269.5t202 93.5q132 0 202.5 -92.5t70.5 -270.5q0 -84 -21.5 -147t-52 -97t-74.5 -60zM193 347q0 -136 26.5 -192.5t83.5 -56.5q58 0 84 56t26 193q0 136 -26 192t-84 56
q-57 0 -83.5 -56.5t-26.5 -191.5z" />
    <glyph glyph-name="R" unicode="R" horiz-adv-x="539" 
d="M377 0l-120 268h-49v-268h-157v693h194q263 0 263 -210q0 -66 -26.5 -109.5t-85.5 -74.5l150 -299h-169zM208 376h42q51 0 74 25.5t23 81.5q0 52 -24.5 76t-78.5 24h-36v-207z" />
    <glyph glyph-name="S" unicode="S" horiz-adv-x="498" 
d="M252 710q126 0 212 -88l-70 -83q-62 56 -126 56q-37 0 -57.5 -19.5t-20.5 -53.5q0 -32 23 -52.5t90 -47.5q92 -38 134 -85t42 -135q0 -97 -65.5 -158t-177.5 -61q-139 0 -232 98l76 84q74 -66 146 -66q44 0 67 24.5t23 65.5q0 39 -22 63t-82 47q-100 41 -142 89t-42 122
q0 90 63.5 145t160.5 55z" />
    <glyph glyph-name="T" unicode="T" horiz-adv-x="469" 
d="M470 693l-16 -120h-142v-573h-157v573h-149v120h464z" />
    <glyph glyph-name="U" unicode="U" horiz-adv-x="562" 
d="M521 693v-482q0 -101 -61.5 -164t-178.5 -63q-118 0 -179 61.5t-61 165.5v482h157v-475q0 -61 19.5 -89.5t63.5 -28.5t63 28.5t19 89.5v475h158z" />
    <glyph glyph-name="V" unicode="V" horiz-adv-x="506" 
d="M515 693l-158 -693h-200l-167 693h159l110 -571l102 571h154z" />
    <glyph glyph-name="W" unicode="W" horiz-adv-x="741" 
d="M732 693l-94 -693h-203l-65 538l-71 -538h-199l-91 693h151l55 -574l76 574h162l71 -574l64 574h144z" />
    <glyph glyph-name="X" unicode="X" horiz-adv-x="508" 
d="M345 374l169 -374h-165l-99 269l-93 -269h-163l164 368l-152 325h166l80 -227l87 227h162z" />
    <glyph glyph-name="Y" unicode="Y" horiz-adv-x="520" 
d="M529 693l-190 -432v-261h-158v260l-190 433h165l106 -310l107 310h160z" />
    <glyph glyph-name="Z" unicode="Z" horiz-adv-x="471" 
d="M449 693v-119l-263 -449h268l-15 -125h-427v117l264 454h-238v122h411z" />
    <glyph glyph-name="bracketleft" unicode="[" horiz-adv-x="283" 
d="M266 821v-111h-99v-721h99v-111h-241v943h241z" />
    <glyph glyph-name="backslash" unicode="\" horiz-adv-x="447" 
d="M184 815l207 -896l-128 -30l-207 896z" />
    <glyph glyph-name="bracketright" unicode="]" horiz-adv-x="283" 
d="M258 821v-943h-241v111h99v721h-99v111h241z" />
    <glyph glyph-name="asciicircum" unicode="^" horiz-adv-x="490" 
d="M314 843l162 -316h-146l-86 202l-83 -202h-147l162 316h138z" />
    <glyph glyph-name="underscore" unicode="_" horiz-adv-x="452" 
d="M10 -167v118h432v-118h-432z" />
    <glyph glyph-name="grave" unicode="`" horiz-adv-x="309" 
d="M93 826l190 -129l-41 -73l-208 94z" />
    <glyph glyph-name="a" unicode="a" horiz-adv-x="477" 
d="M425 144q0 -27 6.5 -39.5t23.5 -19.5l-31 -99q-88 8 -115 73q-50 -76 -139 -76q-69 0 -109.5 45.5t-40.5 120.5q0 86 56 132t163 46h39v27q0 48 -16 66.5t-56 18.5q-45 0 -120 -26l-33 95q88 40 181 40q97 0 144 -45.5t47 -140.5v-218zM216 90q40 0 62 51v102h-25
q-85 0 -85 -81q0 -72 48 -72z" />
    <glyph glyph-name="b" unicode="b" horiz-adv-x="520" 
d="M325 548q81 0 123.5 -72t42.5 -211q0 -130 -48.5 -206t-133.5 -76q-74 0 -119 67l-7 -50h-134v742l151 16v-278q45 68 125 68zM265 93q34 0 52.5 38.5t18.5 133.5q0 100 -16.5 136t-47.5 36q-38 0 -72 -59v-237q26 -48 65 -48z" />
    <glyph glyph-name="c" unicode="c" horiz-adv-x="419" 
d="M261 548q93 0 158 -65l-62 -84q-45 34 -84 34q-44 0 -65.5 -38t-21.5 -133q0 -90 22.5 -125.5t64.5 -35.5q35 0 81 32l66 -88q-69 -62 -157 -62q-110 0 -172.5 74t-62.5 204q0 133 63 210t170 77z" />
    <glyph glyph-name="d" unicode="d" horiz-adv-x="522" 
d="M322 758l151 -16v-742h-134l-6 58q-48 -75 -128 -75q-87 0 -131.5 73.5t-44.5 209.5q0 128 52 205t136 77q63 0 105 -50v260zM253 94q40 0 69 54v246q-29 43 -62 43q-75 0 -75 -171q0 -97 17.5 -134.5t50.5 -37.5z" />
    <glyph glyph-name="e" unicode="e" horiz-adv-x="489" 
d="M466 276q0 -10 -3 -55h-284q6 -72 29.5 -99.5t66.5 -27.5q55 0 112 44l61 -82q-76 -73 -184 -73q-115 0 -175.5 74.5t-60.5 204.5t57.5 208t163.5 78q101 0 159 -70t58 -202zM319 311v8q-1 66 -16.5 97.5t-51.5 31.5q-33 0 -50.5 -30t-21.5 -107h140z" />
    <glyph glyph-name="f" unicode="f" horiz-adv-x="317" 
d="M274 647q-54 0 -54 -60v-56h108l-16 -105h-92v-426h-151v426h-65v105h65v52q0 80 47 127.5t135 47.5q68 0 131 -33l-40 -95q-39 17 -68 17z" />
    <glyph glyph-name="g" unicode="g" horiz-adv-x="474" 
d="M443 610l36 -108q-42 -21 -131 -21q90 -41 90 -138q0 -79 -53.5 -128t-145.5 -49q-29 0 -51 6q-17 -11 -17 -34q0 -35 53 -35h59q87 0 137 -41.5t50 -108.5q0 -80 -63.5 -127t-181.5 -47q-127 0 -176 42.5t-49 127.5h135q0 -38 18.5 -54.5t72.5 -16.5q93 0 93 64
q0 58 -70 58h-50q-78 0 -114.5 28t-36.5 75q0 59 57 99q-44 26 -64 62t-20 90q0 90 57 141.5t156 50.5q46 0 87.5 10t63.5 21.5t58 32.5zM233 448q-64 0 -64 -92q0 -93 63 -93q32 0 47.5 22t15.5 74q0 89 -62 89z" />
    <glyph glyph-name="h" unicode="h" horiz-adv-x="502" 
d="M329 548q60 0 94 -42.5t34 -118.5v-387h-151v370q0 63 -35 63q-34 0 -71 -64v-369h-151v742l151 15v-284q54 75 129 75z" />
    <glyph glyph-name="i" unicode="i" horiz-adv-x="249" 
d="M125 806q38 0 62 -24.5t24 -61.5t-24 -61.5t-62 -24.5q-39 0 -63 24.5t-24 61.5t24 61.5t63 24.5zM200 531v-531h-151v531h151z" />
    <glyph glyph-name="j" unicode="j" horiz-adv-x="249" 
d="M125 806q38 0 62 -24.5t24 -61.5t-24 -61.5t-62 -24.5q-39 0 -63 24.5t-24 61.5t24 61.5t63 24.5zM200 531v-474q0 -117 -49.5 -177.5t-144.5 -99.5l-51 110q49 27 71.5 58.5t22.5 99.5v483h151z" />
    <glyph glyph-name="k" unicode="k" horiz-adv-x="491" 
d="M200 758v-758h-151v742zM488 531l-135 -234l145 -297h-162l-132 290l138 241h146z" />
    <glyph glyph-name="l" unicode="l" horiz-adv-x="264" 
d="M180 -17q-64 0 -100 37.5t-36 102.5v619l151 16v-628q0 -27 23 -27q12 0 20 3l28 -104q-38 -19 -86 -19z" />
    <glyph glyph-name="m" unicode="m" horiz-adv-x="731" 
d="M565 548q55 0 87.5 -42.5t32.5 -118.5v-387h-148v371q0 63 -33 63q-31 0 -63 -60v-374h-147v371q0 63 -33 63t-63 -60v-374h-149v531h132l9 -64q56 81 132 81q38 0 66 -22t42 -63q56 85 135 85z" />
    <glyph glyph-name="n" unicode="n" horiz-adv-x="502" 
d="M329 548q60 0 94 -42.5t34 -118.5v-387h-151v370q0 63 -35 63q-34 0 -71 -64v-369h-151v531h132l11 -63q55 80 137 80z" />
    <glyph glyph-name="o" unicode="o" horiz-adv-x="514" 
d="M257 548q108 0 168.5 -71.5t60.5 -211.5q0 -134 -61 -208t-168 -74q-108 0 -168.5 72t-60.5 211q0 135 60.5 208.5t168.5 73.5zM257 436q-38 0 -55.5 -39t-17.5 -131q0 -95 17.5 -133.5t55.5 -38.5t56 39t18 132q0 94 -17.5 132.5t-56.5 38.5z" />
    <glyph glyph-name="p" unicode="p" horiz-adv-x="520" 
d="M323 548q84 0 126 -72.5t42 -208.5q0 -129 -49 -206.5t-132 -77.5q-66 0 -110 55v-243l-151 -16v752h134l7 -59q51 76 133 76zM265 94q71 0 71 171q0 98 -16 135t-48 37q-41 0 -72 -58v-241q28 -44 65 -44z" />
    <glyph glyph-name="q" unicode="q" horiz-adv-x="522" 
d="M342 531h131v-752l-151 16v252q-43 -64 -118 -64q-84 0 -129.5 74t-45.5 209q0 128 52 205t137 77q68 0 117 -63zM253 94q40 0 69 54v246q-29 43 -63 43q-74 0 -74 -171q0 -99 18 -135.5t50 -36.5z" />
    <glyph glyph-name="r" unicode="r" horiz-adv-x="351" 
d="M312 546q23 0 45 -8l-25 -145q-19 6 -40 6q-39 0 -59 -30t-33 -89v-280h-151v531h132l11 -91q38 106 120 106z" />
    <glyph glyph-name="s" unicode="s" horiz-adv-x="419" 
d="M215 548q103 0 174 -65l-55 -82q-59 39 -106 39q-26 0 -41 -12t-15 -33q0 -23 18 -37.5t77 -37.5q71 -26 104.5 -63.5t33.5 -100.5q0 -79 -58.5 -126t-150.5 -47q-120 0 -196 78l71 79q63 -50 118 -50q29 0 45.5 14t16.5 39q0 28 -18 44.5t-76 37.5q-71 27 -102.5 64
t-31.5 95q0 72 51.5 118t140.5 46z" />
    <glyph glyph-name="t" unicode="t" horiz-adv-x="337" 
d="M298 117l50 -92q-52 -42 -130 -42q-79 0 -118.5 44.5t-39.5 122.5v276h-59v105h59v116l151 17v-133h105l-16 -105h-89v-274q0 -49 41 -49q20 0 46 14z" />
    <glyph glyph-name="u" unicode="u" horiz-adv-x="498" 
d="M448 531v-531h-132l-6 63q-51 -80 -135 -80q-61 0 -95 42.5t-34 114.5v391h151v-383q0 -53 36 -53t64 57v379h151z" />
    <glyph glyph-name="v" unicode="v" horiz-adv-x="452" 
d="M457 531l-140 -531h-178l-144 531h156l77 -416l81 416h148z" />
    <glyph glyph-name="w" unicode="w" horiz-adv-x="662" 
d="M656 531l-93 -531h-176l-56 395l-55 -395h-175l-95 531h146l45 -417l66 417h142l62 -417l48 417h141z" />
    <glyph glyph-name="x" unicode="x" horiz-adv-x="450" 
d="M314 284l147 -284h-161l-78 202l-74 -202h-158l144 279l-131 252h159l62 -174l59 174h154z" />
    <glyph glyph-name="y" unicode="y" horiz-adv-x="458" 
d="M463 531l-144 -531q-55 -206 -269 -221l-16 104q66 10 99 36.5t52 80.5h-55l-135 531h153l78 -435l87 435h150z" />
    <glyph glyph-name="z" unicode="z" horiz-adv-x="402" 
d="M385 531v-106l-209 -310h213l-13 -115h-366v107l209 310h-191v114h357z" />
    <glyph glyph-name="braceleft" unicode="{" horiz-adv-x="280" 
d="M264 839v-105q-36 0 -49 -12.5t-13 -46.5v-193q0 -63 -22 -91.5t-73 -41.5q49 -11 72.5 -40t23.5 -91v-193q0 -34 13 -46.5t48 -12.5v-105q-116 0 -158 38.5t-42 123.5v191q0 40 -11.5 57t-43.5 17v124q32 0 43.5 16.5t11.5 56.5v192q0 86 42 124t158 38z" />
    <glyph glyph-name="bar" unicode="|" horiz-adv-x="316" 
d="M229 810v-915h-142v915h142z" />
    <glyph glyph-name="braceright" unicode="}" horiz-adv-x="280" 
d="M17 839q116 0 158 -38t42 -124v-192q0 -40 11 -56.5t43 -16.5v-124q-32 0 -43 -16.5t-11 -57.5v-191q0 -85 -42 -123.5t-158 -38.5v105q35 0 48 12.5t13 46.5v193q0 62 23 90.5t73 40.5q-51 14 -73.5 42t-22.5 91v193q0 34 -13 46.5t-48 12.5v105z" />
    <glyph glyph-name="asciitilde" unicode="~" horiz-adv-x="458" 
d="M303 238q-41 0 -87 28.5t-64 28.5q-14 0 -26 -8.5t-18 -16.5t-17 -25l-76 39q58 120 142 120q40 0 85 -28.5t63 -28.5q19 0 32 11.5t29 35.5l76 -39q-56 -117 -139 -117z" />
    <glyph glyph-name="uni00A0" unicode="&#xa0;" horiz-adv-x="198" 
 />
    <glyph glyph-name="exclamdown" unicode="&#xa1;" horiz-adv-x="225" 
d="M113 506q37 0 61 -25.5t24 -60.5t-24 -61t-61 -26t-61 25.5t-24 61.5t24 61t61 25zM172 237l21 -447h-159l20 447h118z" />
    <glyph glyph-name="cent" unicode="&#xa2;" horiz-adv-x="419" 
d="M420 45q-54 -49 -120 -59v-147h-105v152q-79 21 -123 91t-44 179q0 111 44.5 184t123.5 95v151h105v-146q68 -12 118 -62l-62 -84q-45 34 -84 34q-44 0 -65.5 -38t-21.5 -133q0 -90 22.5 -125.5t64.5 -35.5q35 0 81 32z" />
    <glyph glyph-name="sterling" unicode="&#xa3;" horiz-adv-x="480" 
d="M241 238q0 -46 -13 -73.5t-51 -49.5h269l-17 -115h-408v109q47 16 59.5 40.5t12.5 78.5v84h-59v79h59v100q0 88 49 143t140 55q116 0 181 -97l-89 -64q-35 49 -74 49q-59 0 -59 -85v-101h153v-79h-153v-74z" />
    <glyph glyph-name="currency" unicode="&#xa4;" 
d="M476 139l-71 -59l-64 75q-44 -28 -100 -28q-58 0 -102 29l-65 -76l-67 60l72 83q-28 51 -28 119q0 67 28 118l-73 85l71 59l64 -76q44 28 100 28q58 0 102 -29l65 77l67 -60l-72 -83q28 -53 28 -119q0 -67 -27 -119zM241 226q78 0 78 116t-78 116t-78 -116t78 -116z" />
    <glyph glyph-name="yen" unicode="&#xa5;" horiz-adv-x="495" 
d="M505 676l-153 -325h84v-79h-113v-74h113v-79h-113v-119h-150v119h-111v79h111v74h-111v79h82l-153 325h152l107 -285l105 285h150z" />
    <glyph glyph-name="brokenbar" unicode="&#xa6;" horiz-adv-x="316" 
d="M229 810v-367h-142v367h142zM229 262v-367h-142v367h142z" />
    <glyph glyph-name="section" unicode="&#xa7;" horiz-adv-x="477" 
d="M364 181q51 -37 51 -102q0 -72 -53.5 -116.5t-141.5 -44.5q-100 0 -171 53l49 86q57 -35 113 -35q65 0 65 48q0 25 -19.5 41t-84.5 40q-68 25 -99 56.5t-31 89.5q0 78 72 125q-50 39 -50 108t52 114t139 45q98 0 170 -56l-50 -83q-53 34 -108 34q-64 0 -64 -49
q0 -26 18.5 -41t83.5 -39q65 -25 98 -58t33 -88q0 -78 -72 -128zM237 246q39 -17 51 -22q21 29 21 59q0 29 -18 46.5t-67 36.5q-23 8 -38 15q-18 -29 -18 -57q0 -30 14.5 -46t54.5 -32z" />
    <glyph glyph-name="dieresis" unicode="&#xa8;" horiz-adv-x="413" 
d="M108 795q32 0 53 -22t21 -54q0 -33 -20.5 -54.5t-53.5 -21.5q-32 0 -53.5 22t-21.5 54t21.5 54t53.5 22zM311 795q33 0 54 -22t21 -54q0 -33 -21 -54.5t-54 -21.5q-32 0 -53.5 22t-21.5 54t22 54t53 22z" />
    <glyph glyph-name="copyright" unicode="&#xa9;" horiz-adv-x="696" 
d="M349 764q126 0 210.5 -92t84.5 -240q0 -147 -84.5 -238.5t-210.5 -91.5t-211.5 91.5t-85.5 238.5q0 148 85.5 240t211.5 92zM349 687q-93 0 -152 -68.5t-59 -186.5q0 -117 59 -185.5t152 -68.5q92 0 151 69t59 185q0 118 -59 186.5t-151 68.5zM354 629q64 0 111 -49
l-42 -57q-31 23 -61 23q-60 0 -60 -113q0 -111 63 -111q30 0 63 27l41 -60q-52 -52 -118 -52q-71 0 -112 51t-41 145q0 92 43 144t113 52z" />
    <glyph glyph-name="guillemotleft" unicode="&#xab;" horiz-adv-x="573" 
d="M199 553l94 -61l-114 -207l114 -207l-94 -62l-166 220v96zM446 553l94 -61l-114 -207l114 -207l-94 -62l-166 220v96z" />
    <glyph glyph-name="logicalnot" unicode="&#xac;" horiz-adv-x="465" 
d="M427 385v-267h-124v153h-265v114h389z" />
    <glyph glyph-name="uni00AD" unicode="&#xad;" horiz-adv-x="362" 
d="M40 254v118h282v-118h-282z" />
    <glyph glyph-name="registered" unicode="&#xae;" horiz-adv-x="547" 
d="M275 757q104 0 171.5 -75.5t67.5 -196.5q0 -120 -67.5 -195t-171.5 -75q-105 0 -173.5 75t-68.5 195q0 121 68.5 196.5t173.5 75.5zM275 279q75 0 121.5 55t46.5 151q0 97 -46.5 152.5t-121.5 55.5q-76 0 -123.5 -55.5t-47.5 -152.5q0 -96 47.5 -151t123.5 -55zM324 471
l63 -118h-73l-47 103h-21v-103h-64v281h73q117 0 117 -89q0 -48 -48 -74zM246 582v-70h26q35 0 35 36q0 34 -36 34h-25z" />
    <glyph glyph-name="macron" unicode="&#xaf;" horiz-adv-x="329" 
d="M303 658h-269v102h269v-102z" />
    <glyph glyph-name="degree" unicode="&#xb0;" horiz-adv-x="446" 
d="M187 371q-64 0 -110 45.5t-46 125.5q0 79 46 123.5t110 44.5q65 0 110.5 -44.5t45.5 -124.5q0 -79 -45.5 -124.5t-110.5 -45.5zM187 460q56 0 56 81q0 82 -56 82t-56 -81q0 -82 56 -82z" />
    <glyph glyph-name="plusminus" unicode="&#xb1;" horiz-adv-x="464" 
d="M293 616v-153h133v-117h-133v-153h-122v153h-132v117h132v153h122zM45 0v114h374v-114h-374z" />
    <glyph glyph-name="uni00B2" unicode="&#xb2;" horiz-adv-x="344" 
d="M169 751q65 0 102.5 -36t37.5 -88q0 -48 -29 -92.5t-120 -128.5h156l-11 -85h-262v79q96 103 124.5 143t28.5 76q0 47 -42 47q-33 0 -66 -39l-61 48q52 76 142 76z" />
    <glyph glyph-name="uni00B3" unicode="&#xb3;" horiz-adv-x="344" 
d="M171 752q64 0 100 -32t36 -79q0 -77 -89 -98q102 -7 102 -102q0 -56 -40.5 -94t-114.5 -38q-91 0 -141 67l57 54q37 -36 74 -36q24 0 38.5 14.5t14.5 41.5q0 53 -62 53h-28l13 75h17q54 0 54 47q0 45 -46 45q-38 0 -73 -33l-53 55q58 60 141 60z" />
    <glyph glyph-name="acute" unicode="&#xb4;" horiz-adv-x="309" 
d="M224 826l59 -108l-208 -94l-41 73z" />
    <glyph glyph-name="uni00B5" unicode="&#xb5;" horiz-adv-x="503" 
d="M471 0l-138 -16q-13 33 -20 83q-37 -75 -91 -75q-43 0 -71 44q21 -38 30.5 -70t9.5 -82v-89l-142 -14v750h151v-377q0 -53 36 -53q37 0 64 63v367h151v-349q0 -98 20 -182z" />
    <glyph glyph-name="paragraph" unicode="&#xb6;" horiz-adv-x="691" 
d="M286 693h311v-898l-131 -17v810h-76v-793l-130 -17v487q-101 3 -155 61.5t-54 152.5q0 101 61 157.5t174 56.5z" />
    <glyph glyph-name="periodcentered" unicode="&#xb7;" horiz-adv-x="223" 
d="M111 395q37 0 61 -25.5t24 -61.5t-24 -61.5t-61 -25.5t-61 25.5t-24 61.5q0 35 24 61t61 26z" />
    <glyph glyph-name="cedilla" unicode="&#xb8;" horiz-adv-x="294" 
d="M177 16v-69q91 -12 91 -94q0 -51 -35.5 -81.5t-97.5 -30.5q-57 0 -101 29l33 67q26 -14 57 -14q38 0 38 31q0 35 -80 35l14 127h81z" />
    <glyph glyph-name="uni00B9" unicode="&#xb9;" horiz-adv-x="344" 
d="M263 742v-421h-108v315l-79 -53l-48 70l136 89h99z" />
    <glyph glyph-name="guillemotright" unicode="&#xbb;" horiz-adv-x="572" 
d="M127 553l166 -221v-96l-166 -220l-94 62l114 207l-114 207zM373 553l165 -221v-96l-165 -220l-94 62l113 207l-113 207z" />
    <glyph glyph-name="onequarter" unicode="&#xbc;" horiz-adv-x="841" 
d="M553 758l88 -39l-353 -803l-88 38zM263 272h-108v315l-79 -53l-48 70l136 89h99v-421zM823 167v-82h-39v-85h-101v85h-169v76l102 270l92 -35l-85 -229h62l22 98h77v-98h39z" />
    <glyph glyph-name="onehalf" unicode="&#xbd;" horiz-adv-x="841" 
d="M553 758l88 -39l-353 -803l-88 38zM263 693v-421h-108v315l-79 -53l-48 70l136 89h99zM666 430q65 0 102.5 -36t37.5 -88q0 -48 -29 -92.5t-120 -128.5h156l-11 -85h-262v79q96 103 124.5 143t28.5 76q0 47 -42 47q-33 0 -66 -39l-61 48q52 76 142 76z" />
    <glyph glyph-name="threequarters" unicode="&#xbe;" horiz-adv-x="841" 
d="M553 758l88 -39l-353 -803l-88 38zM320 392q0 -56 -40.5 -94t-114.5 -38q-91 0 -141 67l57 54q37 -36 74 -36q24 0 38.5 14.5t14.5 41.5q0 53 -62 53h-28l13 75h17q54 0 54 47q0 45 -46 45q-38 0 -73 -33l-53 55q58 60 141 60q64 0 100 -32t36 -79q0 -77 -89 -98
q102 -7 102 -102zM823 167v-82h-39v-85h-101v85h-169v76l102 270l92 -35l-85 -229h62l22 98h77v-98h39z" />
    <glyph glyph-name="questiondown" unicode="&#xbf;" horiz-adv-x="427" 
d="M234 333q-37 0 -61 25.5t-24 61.5t24 61t61 25t61 -25t24 -61t-24 -61.5t-61 -25.5zM206 -222q-91 0 -142 48.5t-51 118.5q0 43 16 75.5t38.5 52.5t45 38t38.5 43t16 58v24h136v-30q0 -47 -14 -81.5t-33.5 -53.5t-39.5 -34.5t-34 -35.5t-14 -47q0 -57 57 -57q50 0 98 57
l91 -70q-79 -106 -208 -106z" />
    <glyph glyph-name="Agrave" unicode="&#xc0;" horiz-adv-x="524" 
d="M385 825l-38 -74l-210 85l57 109zM374 0l-30 152h-167l-29 -152h-158l179 693h188l177 -693h-160zM199 265h123l-62 314z" />
    <glyph glyph-name="Aacute" unicode="&#xc1;" horiz-adv-x="524" 
d="M386 836l-210 -84l-38 74l191 120zM374 0l-30 152h-167l-29 -152h-158l179 693h188l177 -693h-160zM199 265h123l-62 314z" />
    <glyph glyph-name="Acircumflex" unicode="&#xc2;" horiz-adv-x="524" 
d="M262 843l-116 -84l-52 55l123 131h90l123 -131l-53 -55zM374 0l-30 152h-167l-29 -152h-158l179 693h188l177 -693h-160zM199 265h123l-62 314z" />
    <glyph glyph-name="Atilde" unicode="&#xc3;" horiz-adv-x="524" 
d="M213 808q-23 0 -45 -41l-71 33q17 51 47 81.5t67 30.5q29 0 60 -21t43 -21q23 0 44 41l71 -33q-17 -52 -46.5 -81.5t-67.5 -29.5q-28 0 -59 20.5t-43 20.5zM374 0l-30 152h-167l-29 -152h-158l179 693h188l177 -693h-160zM199 265h123l-62 314z" />
    <glyph glyph-name="Adieresis" unicode="&#xc4;" horiz-adv-x="524" 
d="M164 769q-32 0 -53.5 22t-21.5 54t21.5 54t53.5 22t53 -22t21 -54q0 -33 -20.5 -54.5t-53.5 -21.5zM367 769q-32 0 -53.5 22t-21.5 54t22 54t53 22q33 0 54 -22t21 -54q0 -33 -21 -54.5t-54 -21.5zM374 0l-30 152h-167l-29 -152h-158l179 693h188l177 -693h-160zM199 265
h123l-62 314z" />
    <glyph glyph-name="Aring" unicode="&#xc5;" horiz-adv-x="524" 
d="M263 733q-57 0 -91 36t-34 92q0 57 34 93t91 36t90.5 -36t33.5 -93q0 -56 -33.5 -92t-90.5 -36zM263 914q-38 0 -38 -53q0 -52 38 -52t38 52q0 53 -38 53zM374 0l-30 152h-167l-29 -152h-158l179 693h188l177 -693h-160zM199 265h123l-62 314z" />
    <glyph glyph-name="AE" unicode="&#xc6;" horiz-adv-x="733" 
d="M513 113h199v-113h-332l-19 152h-172l-42 -152h-167l233 693h468l-16 -112h-224l27 -175h205v-110h-188zM219 265h127l-41 313z" />
    <glyph glyph-name="Ccedilla" unicode="&#xc7;" horiz-adv-x="504" 
d="M500 71q-68 -75 -163 -86v-38q91 -12 91 -94q0 -51 -35.5 -81.5t-97.5 -30.5q-58 0 -101 29l34 67q25 -14 56 -14q38 0 38 31q0 35 -80 35l11 99q-105 19 -164 110t-59 250q0 176 76 269t202 93q105 0 186 -76l-74 -87q-53 46 -104 46q-123 0 -123 -245q0 -244 125 -244
q31 0 55.5 13t56.5 40z" />
    <glyph glyph-name="Egrave" unicode="&#xc8;" horiz-adv-x="452" 
d="M173 945l191 -120l-38 -74l-210 85zM429 693l-16 -112h-205v-173h180v-111h-180v-184h219v-113h-376v693h378z" />
    <glyph glyph-name="Eacute" unicode="&#xc9;" horiz-adv-x="452" 
d="M307 946l57 -110l-210 -84l-38 74zM429 693l-16 -112h-205v-173h180v-111h-180v-184h219v-113h-376v693h378z" />
    <glyph glyph-name="Ecircumflex" unicode="&#xca;" horiz-adv-x="452" 
d="M125 759l-52 55l123 131h90l123 -131l-53 -55l-115 84zM429 693l-16 -112h-205v-173h180v-111h-180v-184h219v-113h-376v693h378z" />
    <glyph glyph-name="Edieresis" unicode="&#xcb;" horiz-adv-x="452" 
d="M142 921q32 0 53 -22t21 -54q0 -33 -20.5 -54.5t-53.5 -21.5q-32 0 -53.5 22t-21.5 54t21.5 54t53.5 22zM345 921q33 0 54 -22t21 -54q0 -33 -21 -54.5t-54 -21.5q-32 0 -53.5 22t-21.5 54t22 54t53 22zM429 693l-16 -112h-205v-173h180v-111h-180v-184h219v-113h-376
v693h378z" />
    <glyph glyph-name="Igrave" unicode="&#xcc;" horiz-adv-x="260" 
d="M61 945l191 -120l-38 -74l-210 85zM208 693v-693h-157v693h157z" />
    <glyph glyph-name="Iacute" unicode="&#xcd;" horiz-adv-x="260" 
d="M196 946l57 -110l-210 -84l-38 74zM208 693v-693h-157v693h157z" />
    <glyph glyph-name="Icircumflex" unicode="&#xce;" horiz-adv-x="260" 
d="M13 759l-52 55l123 131h90l123 -131l-53 -55l-115 84zM208 693v-693h-157v693h157z" />
    <glyph glyph-name="Idieresis" unicode="&#xcf;" horiz-adv-x="260" 
d="M31 921q32 0 53 -22t21 -54q0 -33 -20.5 -54.5t-53.5 -21.5q-32 0 -53.5 22t-21.5 54t21.5 54t53.5 22zM234 921q33 0 54 -22t21 -54q0 -33 -21 -54.5t-54 -21.5q-32 0 -53.5 22t-21.5 54t22 54t53 22zM208 693v-693h-157v693h157z" />
    <glyph glyph-name="Eth" unicode="&#xd0;" horiz-adv-x="588" 
d="M246 693q53 0 95 -7.5t84 -29.5t70 -58.5t45.5 -99.5t17.5 -148q0 -101 -24 -172t-67.5 -108.5t-94 -53.5t-115.5 -16h-190v306h-53v94h53v293h179zM266 114q65 0 98 51t33 185t-33 182t-98 48h-42v-180h96v-94h-96v-192h42z" />
    <glyph glyph-name="Ntilde" unicode="&#xd1;" horiz-adv-x="573" 
d="M341 767q-28 0 -59 20.5t-43 20.5q-23 0 -45 -41l-71 33q17 51 47 81.5t67 30.5q29 0 60 -21t43 -21q23 0 44 41l71 -33q-17 -52 -46.5 -81.5t-67.5 -29.5zM522 693v-693h-194l-162 549q21 -176 21 -283v-266h-136v693h193l163 -550q-21 142 -21 259v291h136z" />
    <glyph glyph-name="Ograve" unicode="&#xd2;" horiz-adv-x="606" 
d="M234 945l191 -120l-38 -74l-210 85zM303 710q132 0 202.5 -91.5t70.5 -271.5q0 -178 -71 -271t-202 -93q-132 0 -202.5 92t-70.5 272q0 177 71 270t202 93zM303 595q-57 0 -83.5 -57t-26.5 -191q0 -136 26.5 -192.5t83.5 -56.5q58 0 84 56t26 193q0 134 -26.5 191
t-83.5 57z" />
    <glyph glyph-name="Oacute" unicode="&#xd3;" horiz-adv-x="606" 
d="M369 946l57 -110l-210 -84l-38 74zM303 710q132 0 202.5 -91.5t70.5 -271.5q0 -178 -71 -271t-202 -93q-132 0 -202.5 92t-70.5 272q0 177 71 270t202 93zM303 595q-57 0 -83.5 -57t-26.5 -191q0 -136 26.5 -192.5t83.5 -56.5q58 0 84 56t26 193q0 134 -26.5 191
t-83.5 57z" />
    <glyph glyph-name="Ocircumflex" unicode="&#xd4;" horiz-adv-x="606" 
d="M187 759l-52 55l123 131h90l123 -131l-53 -55l-115 84zM303 710q132 0 202.5 -91.5t70.5 -271.5q0 -178 -71 -271t-202 -93q-132 0 -202.5 92t-70.5 272q0 177 71 270t202 93zM303 595q-57 0 -83.5 -57t-26.5 -191q0 -136 26.5 -192.5t83.5 -56.5q58 0 84 56t26 193
q0 134 -26.5 191t-83.5 57z" />
    <glyph glyph-name="Otilde" unicode="&#xd5;" horiz-adv-x="606" 
d="M355 767q-28 0 -59 20.5t-43 20.5q-23 0 -45 -41l-71 33q17 51 47 81.5t67 30.5q29 0 60 -21t43 -21q23 0 44 41l71 -33q-17 -52 -46.5 -81.5t-67.5 -29.5zM303 710q132 0 202.5 -91.5t70.5 -271.5q0 -178 -71 -271t-202 -93q-132 0 -202.5 92t-70.5 272q0 177 71 270
t202 93zM303 595q-57 0 -83.5 -57t-26.5 -191q0 -136 26.5 -192.5t83.5 -56.5q58 0 84 56t26 193q0 134 -26.5 191t-83.5 57z" />
    <glyph glyph-name="Odieresis" unicode="&#xd6;" horiz-adv-x="606" 
d="M204 921q32 0 53 -22t21 -54q0 -33 -20.5 -54.5t-53.5 -21.5q-32 0 -53.5 22t-21.5 54t21.5 54t53.5 22zM407 921q33 0 54 -22t21 -54q0 -33 -21 -54.5t-54 -21.5q-32 0 -53.5 22t-21.5 54t22 54t53 22zM303 710q132 0 202.5 -91.5t70.5 -271.5q0 -178 -71 -271t-202 -93
q-132 0 -202.5 92t-70.5 272q0 177 71 270t202 93zM303 595q-57 0 -83.5 -57t-26.5 -191q0 -136 26.5 -192.5t83.5 -56.5q58 0 84 56t26 193q0 134 -26.5 191t-83.5 57z" />
    <glyph glyph-name="multiply" unicode="&#xd7;" horiz-adv-x="451" 
d="M326 507l88 -73l-109 -127l109 -129l-89 -72l-100 125l-100 -125l-88 72l108 128l-108 128l88 73l99 -125z" />
    <glyph glyph-name="Oslash" unicode="&#xd8;" horiz-adv-x="606" 
d="M451 670q125 -83 125 -323q0 -178 -70.5 -270.5t-202.5 -92.5q-24 0 -35 1l-31 -118l-116 31l34 126q-125 82 -125 323q0 177 71 269.5t202 92.5q24 0 35 -1l31 118l117 -31zM303 597q-62 0 -89.5 -57t-27.5 -193q0 -156 31 -209l109 457q-16 2 -23 2zM420 347
q0 148 -31 203l-108 -453q7 -1 22 -1q64 0 90.5 56t26.5 195z" />
    <glyph glyph-name="Ugrave" unicode="&#xd9;" horiz-adv-x="562" 
d="M212 945l191 -120l-38 -74l-210 85zM521 693v-482q0 -101 -61.5 -164t-178.5 -63q-118 0 -179 61.5t-61 165.5v482h157v-475q0 -61 19.5 -89.5t63.5 -28.5t63 28.5t19 89.5v475h158z" />
    <glyph glyph-name="Uacute" unicode="&#xda;" horiz-adv-x="562" 
d="M347 946l57 -110l-210 -84l-38 74zM521 693v-482q0 -101 -61.5 -164t-178.5 -63q-118 0 -179 61.5t-61 165.5v482h157v-475q0 -61 19.5 -89.5t63.5 -28.5t63 28.5t19 89.5v475h158z" />
    <glyph glyph-name="Ucircumflex" unicode="&#xdb;" horiz-adv-x="562" 
d="M165 759l-52 55l123 131h90l123 -131l-53 -55l-115 84zM521 693v-482q0 -101 -61.5 -164t-178.5 -63q-118 0 -179 61.5t-61 165.5v482h157v-475q0 -61 19.5 -89.5t63.5 -28.5t63 28.5t19 89.5v475h158z" />
    <glyph glyph-name="Udieresis" unicode="&#xdc;" horiz-adv-x="562" 
d="M182 921q32 0 53 -22t21 -54q0 -33 -20.5 -54.5t-53.5 -21.5q-32 0 -53.5 22t-21.5 54t21.5 54t53.5 22zM385 921q33 0 54 -22t21 -54q0 -33 -21 -54.5t-54 -21.5q-32 0 -53.5 22t-21.5 54t22 54t53 22zM521 693v-482q0 -101 -61.5 -164t-178.5 -63q-118 0 -179 61.5
t-61 165.5v482h157v-475q0 -61 19.5 -89.5t63.5 -28.5t63 28.5t19 89.5v475h158z" />
    <glyph glyph-name="Yacute" unicode="&#xdd;" horiz-adv-x="520" 
d="M326 946l57 -110l-210 -84l-38 74zM529 693l-190 -432v-261h-158v260l-190 433h165l106 -310l107 310h160z" />
    <glyph glyph-name="Thorn" unicode="&#xde;" horiz-adv-x="522" 
d="M250 583q124 0 191 -57t67 -169q0 -121 -65.5 -181t-181.5 -60h-53v-116h-157v693h157v-110h42zM246 228q53 0 78.5 29.5t25.5 98.5q0 61 -26 88.5t-79 27.5h-37v-244h38z" />
    <glyph glyph-name="germandbls" unicode="&#xdf;" horiz-adv-x="530" 
d="M260 758q87 0 135.5 -42t48.5 -106q0 -38 -19 -69.5t-37.5 -57.5t-18.5 -52q0 -20 15 -39.5t37 -38.5t44 -42.5t37 -61t15 -84.5q0 -84 -49.5 -133t-126.5 -49q-63 0 -105 26l44 99q16 -8 36 -8q22 0 35.5 17t13.5 50q0 36 -19.5 66.5t-43 50t-43 52t-19.5 70.5
q0 46 32.5 96.5t32.5 89.5q0 60 -49 60q-56 0 -56 -91v-561h-151v552q0 93 55.5 149.5t155.5 56.5z" />
    <glyph glyph-name="agrave" unicode="&#xe0;" horiz-adv-x="477" 
d="M370 697l-41 -73l-208 94l59 108zM425 144q0 -27 6.5 -39.5t23.5 -19.5l-31 -99q-88 8 -115 73q-50 -76 -139 -76q-69 0 -109.5 45.5t-40.5 120.5q0 86 56 132t163 46h39v27q0 48 -16 66.5t-56 18.5q-45 0 -120 -26l-33 95q88 40 181 40q97 0 144 -45.5t47 -140.5v-218z
M216 90q40 0 62 51v102h-25q-85 0 -85 -81q0 -72 48 -72z" />
    <glyph glyph-name="aacute" unicode="&#xe1;" horiz-adv-x="477" 
d="M354 718l-208 -94l-41 73l190 129zM425 144q0 -27 6.5 -39.5t23.5 -19.5l-31 -99q-88 8 -115 73q-50 -76 -139 -76q-69 0 -109.5 45.5t-40.5 120.5q0 86 56 132t163 46h39v27q0 48 -16 66.5t-56 18.5q-45 0 -120 -26l-33 95q88 40 181 40q97 0 144 -45.5t47 -140.5v-218z
M216 90q40 0 62 51v102h-25q-85 0 -85 -81q0 -72 48 -72z" />
    <glyph glyph-name="acircumflex" unicode="&#xe2;" horiz-adv-x="477" 
d="M237 716l-116 -91l-52 56l123 138h90l123 -138l-53 -56zM425 144q0 -27 6.5 -39.5t23.5 -19.5l-31 -99q-88 8 -115 73q-50 -76 -139 -76q-69 0 -109.5 45.5t-40.5 120.5q0 86 56 132t163 46h39v27q0 48 -16 66.5t-56 18.5q-45 0 -120 -26l-33 95q88 40 181 40
q97 0 144 -45.5t47 -140.5v-218zM216 90q40 0 62 51v102h-25q-85 0 -85 -81q0 -72 48 -72z" />
    <glyph glyph-name="atilde" unicode="&#xe3;" horiz-adv-x="477" 
d="M187 682q-23 0 -45 -41l-71 33q17 51 47 81.5t67 30.5q29 0 60 -21t43 -21q23 0 44 41l71 -33q-17 -52 -46.5 -81.5t-67.5 -29.5q-28 0 -59 20.5t-43 20.5zM425 144q0 -27 6.5 -39.5t23.5 -19.5l-31 -99q-88 8 -115 73q-50 -76 -139 -76q-69 0 -109.5 45.5t-40.5 120.5
q0 86 56 132t163 46h39v27q0 48 -16 66.5t-56 18.5q-45 0 -120 -26l-33 95q88 40 181 40q97 0 144 -45.5t47 -140.5v-218zM216 90q40 0 62 51v102h-25q-85 0 -85 -81q0 -72 48 -72z" />
    <glyph glyph-name="adieresis" unicode="&#xe4;" horiz-adv-x="477" 
d="M135 643q-32 0 -53.5 22t-21.5 54t21.5 54t53.5 22t53 -22t21 -54q0 -33 -20.5 -54.5t-53.5 -21.5zM338 643q-32 0 -53.5 22t-21.5 54t22 54t53 22q33 0 54 -22t21 -54q0 -33 -21 -54.5t-54 -21.5zM425 144q0 -27 6.5 -39.5t23.5 -19.5l-31 -99q-88 8 -115 73
q-50 -76 -139 -76q-69 0 -109.5 45.5t-40.5 120.5q0 86 56 132t163 46h39v27q0 48 -16 66.5t-56 18.5q-45 0 -120 -26l-33 95q88 40 181 40q97 0 144 -45.5t47 -140.5v-218zM216 90q40 0 62 51v102h-25q-85 0 -85 -81q0 -72 48 -72z" />
    <glyph glyph-name="aring" unicode="&#xe5;" horiz-adv-x="477" 
d="M237 607q-57 0 -91 36t-34 92q0 57 34 93t91 36t90.5 -36t33.5 -93q0 -56 -33.5 -92t-90.5 -36zM237 788q-38 0 -38 -53q0 -52 38 -52t38 52q0 53 -38 53zM425 144q0 -27 6.5 -39.5t23.5 -19.5l-31 -99q-88 8 -115 73q-50 -76 -139 -76q-69 0 -109.5 45.5t-40.5 120.5
q0 86 56 132t163 46h39v27q0 48 -16 66.5t-56 18.5q-45 0 -120 -26l-33 95q88 40 181 40q97 0 144 -45.5t47 -140.5v-218zM216 90q40 0 62 51v102h-25q-85 0 -85 -81q0 -72 48 -72z" />
    <glyph glyph-name="ae" unicode="&#xe6;" horiz-adv-x="745" 
d="M722 276q0 -25 -4 -55h-282q6 -71 30.5 -99t69.5 -28q47 0 106 44l62 -82q-78 -73 -182 -73q-122 0 -185 89q-61 -89 -159 -89q-72 0 -115 46t-43 120q0 83 57.5 128.5t167.5 45.5h39v28q0 50 -16 69t-56 19q-47 0 -120 -27l-33 96q89 40 175 40q99 0 140 -67
q57 67 145 67q93 0 148 -70.5t55 -201.5zM577 311v8q0 128 -69 128q-34 0 -51 -30.5t-21 -105.5h141zM223 91q43 0 76 64q-11 39 -12 82v2h-27q-85 0 -85 -80q0 -68 48 -68z" />
    <glyph glyph-name="ccedilla" unicode="&#xe7;" horiz-adv-x="419" 
d="M289 -53q91 -12 91 -94q0 -51 -35.5 -81.5t-97.5 -30.5q-57 0 -101 29l34 67q25 -14 56 -14q38 0 38 31q0 35 -80 35l11 100q-84 18 -130.5 89t-46.5 183q0 133 63 210t170 77q93 0 158 -65l-62 -84q-45 34 -84 34q-44 0 -65.5 -38t-21.5 -133q0 -90 22.5 -125.5
t64.5 -35.5q35 0 81 32l66 -88q-59 -53 -131 -61v-37z" />
    <glyph glyph-name="egrave" unicode="&#xe8;" horiz-adv-x="489" 
d="M383 697l-41 -73l-208 94l59 108zM466 276q0 -10 -3 -55h-284q6 -72 29.5 -99.5t66.5 -27.5q55 0 112 44l61 -82q-76 -73 -184 -73q-115 0 -175.5 74.5t-60.5 204.5t57.5 208t163.5 78q101 0 159 -70t58 -202zM319 311v8q-1 66 -16.5 97.5t-51.5 31.5q-33 0 -50.5 -30
t-21.5 -107h140z" />
    <glyph glyph-name="eacute" unicode="&#xe9;" horiz-adv-x="489" 
d="M367 718l-208 -94l-41 73l190 129zM466 276q0 -10 -3 -55h-284q6 -72 29.5 -99.5t66.5 -27.5q55 0 112 44l61 -82q-76 -73 -184 -73q-115 0 -175.5 74.5t-60.5 204.5t57.5 208t163.5 78q101 0 159 -70t58 -202zM319 311v8q-1 66 -16.5 97.5t-51.5 31.5q-33 0 -50.5 -30
t-21.5 -107h140z" />
    <glyph glyph-name="ecircumflex" unicode="&#xea;" horiz-adv-x="489" 
d="M251 716l-116 -91l-52 56l123 138h90l123 -138l-53 -56zM466 276q0 -10 -3 -55h-284q6 -72 29.5 -99.5t66.5 -27.5q55 0 112 44l61 -82q-76 -73 -184 -73q-115 0 -175.5 74.5t-60.5 204.5t57.5 208t163.5 78q101 0 159 -70t58 -202zM319 311v8q-1 66 -16.5 97.5
t-51.5 31.5q-33 0 -50.5 -30t-21.5 -107h140z" />
    <glyph glyph-name="edieresis" unicode="&#xeb;" horiz-adv-x="489" 
d="M149 643q-32 0 -53.5 22t-21.5 54t21.5 54t53.5 22t53 -22t21 -54q0 -33 -20.5 -54.5t-53.5 -21.5zM352 643q-32 0 -53.5 22t-21.5 54t22 54t53 22q33 0 54 -22t21 -54q0 -33 -21 -54.5t-54 -21.5zM466 276q0 -10 -3 -55h-284q6 -72 29.5 -99.5t66.5 -27.5q55 0 112 44
l61 -82q-76 -73 -184 -73q-115 0 -175.5 74.5t-60.5 204.5t57.5 208t163.5 78q101 0 159 -70t58 -202zM319 311v8q-1 66 -16.5 97.5t-51.5 31.5q-33 0 -50.5 -30t-21.5 -107h140z" />
    <glyph glyph-name="igrave" unicode="&#xec;" horiz-adv-x="249" 
d="M67 825l190 -129l-41 -73l-208 94zM200 531v-531h-151v531h151z" />
    <glyph glyph-name="iacute" unicode="&#xed;" horiz-adv-x="249" 
d="M183 825l59 -108l-208 -94l-41 73zM200 531v-531h-151v531h151z" />
    <glyph glyph-name="icircumflex" unicode="&#xee;" horiz-adv-x="249" 
d="M9 624l-52 56l123 138h90l123 -138l-53 -56l-115 91zM200 531v-531h-151v531h151z" />
    <glyph glyph-name="idieresis" unicode="&#xef;" horiz-adv-x="249" 
d="M23 794q32 0 53 -22t21 -54q0 -33 -20.5 -54.5t-53.5 -21.5q-32 0 -53.5 22t-21.5 54t21.5 54t53.5 22zM226 794q33 0 54 -22t21 -54q0 -33 -21 -54.5t-54 -21.5q-32 0 -53.5 22t-21.5 54t22 54t53 22zM200 531v-531h-151v531h151z" />
    <glyph glyph-name="eth" unicode="&#xf0;" horiz-adv-x="512" 
d="M316 669q88 -70 125.5 -165t37.5 -226t-59.5 -212.5t-168.5 -81.5q-98 0 -160.5 66.5t-62.5 183.5q0 106 52 175t126 69q65 0 115 -48q-13 51 -32 87.5t-54 68.5l-50 -57l-91 44l56 63q-45 17 -80 24l29 97q61 -12 127 -38l64 76l79 -61zM253 94q38 0 56 36.5t18 117.5
q0 58 -1 81q-31 43 -74 43q-72 0 -72 -136q0 -77 18.5 -109.5t54.5 -32.5z" />
    <glyph glyph-name="ntilde" unicode="&#xf1;" horiz-adv-x="502" 
d="M205 682q-23 0 -45 -41l-71 33q17 51 47 81.5t67 30.5q29 0 60 -21t43 -21q23 0 44 41l71 -33q-17 -52 -46.5 -81.5t-67.5 -29.5q-28 0 -59 20.5t-43 20.5zM329 548q60 0 94 -42.5t34 -118.5v-387h-151v370q0 63 -35 63q-34 0 -71 -64v-369h-151v531h132l11 -63
q55 80 137 80z" />
    <glyph glyph-name="ograve" unicode="&#xf2;" horiz-adv-x="514" 
d="M200 826l190 -129l-41 -73l-208 94zM257 548q108 0 168.5 -71.5t60.5 -211.5q0 -134 -61 -208t-168 -74q-108 0 -168.5 72t-60.5 211q0 135 60.5 208.5t168.5 73.5zM257 436q-38 0 -55.5 -39t-17.5 -131q0 -95 17.5 -133.5t55.5 -38.5t56 39t18 132q0 94 -17.5 132.5
t-56.5 38.5z" />
    <glyph glyph-name="oacute" unicode="&#xf3;" horiz-adv-x="514" 
d="M315 826l59 -108l-208 -94l-41 73zM257 548q108 0 168.5 -71.5t60.5 -211.5q0 -134 -61 -208t-168 -74q-108 0 -168.5 72t-60.5 211q0 135 60.5 208.5t168.5 73.5zM257 436q-38 0 -55.5 -39t-17.5 -131q0 -95 17.5 -133.5t55.5 -38.5t56 39t18 132q0 94 -17.5 132.5
t-56.5 38.5z" />
    <glyph glyph-name="ocircumflex" unicode="&#xf4;" horiz-adv-x="514" 
d="M141 625l-52 56l123 138h90l123 -138l-53 -56l-115 91zM257 548q108 0 168.5 -71.5t60.5 -211.5q0 -134 -61 -208t-168 -74q-108 0 -168.5 72t-60.5 211q0 135 60.5 208.5t168.5 73.5zM257 436q-38 0 -55.5 -39t-17.5 -131q0 -95 17.5 -133.5t55.5 -38.5t56 39t18 132
q0 94 -17.5 132.5t-56.5 38.5z" />
    <glyph glyph-name="otilde" unicode="&#xf5;" horiz-adv-x="514" 
d="M309 641q-28 0 -59 20.5t-43 20.5q-23 0 -45 -41l-71 33q17 51 47 81.5t67 30.5q29 0 60 -21t43 -21q23 0 44 41l71 -33q-17 -52 -46.5 -81.5t-67.5 -29.5zM257 548q108 0 168.5 -71.5t60.5 -211.5q0 -134 -61 -208t-168 -74q-108 0 -168.5 72t-60.5 211
q0 135 60.5 208.5t168.5 73.5zM257 436q-38 0 -55.5 -39t-17.5 -131q0 -95 17.5 -133.5t55.5 -38.5t56 39t18 132q0 94 -17.5 132.5t-56.5 38.5z" />
    <glyph glyph-name="odieresis" unicode="&#xf6;" horiz-adv-x="514" 
d="M155 795q32 0 53 -22t21 -54q0 -33 -20.5 -54.5t-53.5 -21.5q-32 0 -53.5 22t-21.5 54t21.5 54t53.5 22zM358 795q33 0 54 -22t21 -54q0 -33 -21 -54.5t-54 -21.5q-32 0 -53.5 22t-21.5 54t22 54t53 22zM257 548q108 0 168.5 -71.5t60.5 -211.5q0 -134 -61 -208t-168 -74
q-108 0 -168.5 72t-60.5 211q0 135 60.5 208.5t168.5 73.5zM257 436q-38 0 -55.5 -39t-17.5 -131q0 -95 17.5 -133.5t55.5 -38.5t56 39t18 132q0 94 -17.5 132.5t-56.5 38.5z" />
    <glyph glyph-name="divide" unicode="&#xf7;" horiz-adv-x="450" 
d="M225 658q37 0 61 -25.5t24 -61.5t-24 -61.5t-61 -25.5t-61 25.5t-24 61.5q0 35 24 61t61 26zM38 275v114h374v-114h-374zM225 179q37 0 61 -25.5t24 -61.5q0 -35 -24 -60.5t-61 -25.5t-61 25.5t-24 60.5t24 61t61 26z" />
    <glyph glyph-name="oslash" unicode="&#xf8;" horiz-adv-x="514" 
d="M387 510q99 -69 99 -245q0 -134 -61 -208t-168 -74q-16 0 -23 1l-32 -118l-108 30l35 124q-101 69 -101 246q0 135 60.5 208.5t168.5 73.5q18 0 26 -1l33 118l108 -30zM257 439q-48 0 -70.5 -39.5t-22.5 -133.5q0 -105 23 -141l82 314h-12zM257 91q48 0 71 40t23 134
q0 99 -22 138l-81 -312h9z" />
    <glyph glyph-name="ugrave" unicode="&#xf9;" horiz-adv-x="498" 
d="M190 826l190 -129l-41 -73l-208 94zM448 531v-531h-132l-6 63q-51 -80 -135 -80q-61 0 -95 42.5t-34 114.5v391h151v-383q0 -53 36 -53t64 57v379h151z" />
    <glyph glyph-name="uacute" unicode="&#xfa;" horiz-adv-x="498" 
d="M305 826l59 -108l-208 -94l-41 73zM448 531v-531h-132l-6 63q-51 -80 -135 -80q-61 0 -95 42.5t-34 114.5v391h151v-383q0 -53 36 -53t64 57v379h151z" />
    <glyph glyph-name="ucircumflex" unicode="&#xfb;" horiz-adv-x="498" 
d="M132 625l-52 56l123 138h90l123 -138l-53 -56l-115 91zM448 531v-531h-132l-6 63q-51 -80 -135 -80q-61 0 -95 42.5t-34 114.5v391h151v-383q0 -53 36 -53t64 57v379h151z" />
    <glyph glyph-name="udieresis" unicode="&#xfc;" horiz-adv-x="498" 
d="M146 795q32 0 53 -22t21 -54q0 -33 -20.5 -54.5t-53.5 -21.5q-32 0 -53.5 22t-21.5 54t21.5 54t53.5 22zM349 795q33 0 54 -22t21 -54q0 -33 -21 -54.5t-54 -21.5q-32 0 -53.5 22t-21.5 54t22 54t53 22zM448 531v-531h-132l-6 63q-51 -80 -135 -80q-61 0 -95 42.5
t-34 114.5v391h151v-383q0 -53 36 -53t64 57v379h151z" />
    <glyph glyph-name="yacute" unicode="&#xfd;" horiz-adv-x="458" 
d="M286 826l59 -108l-208 -94l-41 73zM463 531l-144 -531q-55 -206 -269 -221l-16 104q66 10 99 36.5t52 80.5h-55l-135 531h153l78 -435l87 435h150z" />
    <glyph glyph-name="thorn" unicode="&#xfe;" horiz-adv-x="520" 
d="M323 548q84 0 126 -72.5t42 -208.5q0 -129 -49 -206.5t-132 -77.5q-68 0 -110 60v-246l-151 -17v962l151 16v-276q48 66 123 66zM265 94q71 0 71 171q0 98 -16 135t-48 37q-41 0 -72 -58v-241q28 -44 65 -44z" />
    <glyph glyph-name="ydieresis" unicode="&#xff;" horiz-adv-x="458" 
d="M127 795q32 0 53 -22t21 -54q0 -33 -20.5 -54.5t-53.5 -21.5q-32 0 -53.5 22t-21.5 54t21.5 54t53.5 22zM330 795q33 0 54 -22t21 -54q0 -33 -21 -54.5t-54 -21.5q-32 0 -53.5 22t-21.5 54t22 54t53 22zM463 531l-144 -531q-55 -206 -269 -221l-16 104q66 10 99 36.5
t52 80.5h-55l-135 531h153l78 -435l87 435h150z" />
    <glyph glyph-name="Amacron" unicode="&#x100;" horiz-adv-x="524" 
d="M397 886v-102h-269v102h269zM374 0l-30 152h-167l-29 -152h-158l179 693h188l177 -693h-160zM199 265h123l-62 314z" />
    <glyph glyph-name="amacron" unicode="&#x101;" horiz-adv-x="477" 
d="M372 760v-102h-269v102h269zM425 144q0 -27 6.5 -39.5t23.5 -19.5l-31 -99q-88 8 -115 73q-50 -76 -139 -76q-69 0 -109.5 45.5t-40.5 120.5q0 86 56 132t163 46h39v27q0 48 -16 66.5t-56 18.5q-45 0 -120 -26l-33 95q88 40 181 40q97 0 144 -45.5t47 -140.5v-218z
M216 90q40 0 62 51v102h-25q-85 0 -85 -81q0 -72 48 -72z" />
    <glyph glyph-name="Abreve" unicode="&#x102;" horiz-adv-x="524" 
d="M263 752q-68 0 -107 45t-45 112l80 15q18 -67 72 -67t72 67l80 -15q-6 -67 -45 -112t-107 -45zM374 0l-30 152h-167l-29 -152h-158l179 693h188l177 -693h-160zM199 265h123l-62 314z" />
    <glyph glyph-name="abreve" unicode="&#x103;" horiz-adv-x="477" 
d="M237 634q-70 0 -108.5 45t-43.5 123l80 14q16 -79 72 -79t72 79l80 -14q-5 -78 -43.5 -123t-108.5 -45zM425 144q0 -27 6.5 -39.5t23.5 -19.5l-31 -99q-88 8 -115 73q-50 -76 -139 -76q-69 0 -109.5 45.5t-40.5 120.5q0 86 56 132t163 46h39v27q0 48 -16 66.5t-56 18.5
q-45 0 -120 -26l-33 95q88 40 181 40q97 0 144 -45.5t47 -140.5v-218zM216 90q40 0 62 51v102h-25q-85 0 -85 -81q0 -72 48 -72z" />
    <glyph glyph-name="Aogonek" unicode="&#x104;" horiz-adv-x="524" 
d="M452 0q-100 -44 -100 -103q0 -47 45 -47q22 0 52 8l-9 -94q-33 -7 -62 -7q-58 0 -95.5 31t-37.5 84q0 95 124 153l-25 127h-167l-29 -152h-158l179 693h188l177 -693h-82zM199 265h123l-62 314z" />
    <glyph glyph-name="aogonek" unicode="&#x105;" horiz-adv-x="477" 
d="M424 -14h-1q-99 -44 -99 -103q0 -47 45 -47q22 0 52 8l-9 -94q-33 -7 -62 -7q-58 0 -95.5 31t-37.5 84q0 96 127 154q-23 17 -35 47q-50 -76 -139 -76q-69 0 -109.5 45.5t-40.5 120.5q0 86 56 132t163 46h39v27q0 48 -16 66.5t-56 18.5q-45 0 -120 -26l-33 95
q88 40 181 40q97 0 144 -45.5t47 -140.5v-218q0 -27 6.5 -39.5t23.5 -19.5zM216 90q40 0 62 51v102h-25q-85 0 -85 -81q0 -72 48 -72z" />
    <glyph glyph-name="Cacute" unicode="&#x106;" horiz-adv-x="504" 
d="M378 946l57 -110l-210 -84l-38 74zM308 710q105 0 186 -76l-74 -87q-53 46 -104 46q-123 0 -123 -245q0 -244 125 -244q31 0 55.5 13t56.5 40l70 -86q-80 -88 -191 -88q-130 0 -204.5 92.5t-74.5 272.5q0 176 76 269t202 93z" />
    <glyph glyph-name="cacute" unicode="&#x107;" horiz-adv-x="419" 
d="M315 826l59 -108l-208 -94l-41 73zM261 548q93 0 158 -65l-62 -84q-45 34 -84 34q-44 0 -65.5 -38t-21.5 -133q0 -90 22.5 -125.5t64.5 -35.5q35 0 81 32l66 -88q-69 -62 -157 -62q-110 0 -172.5 74t-62.5 204q0 133 63 210t170 77z" />
    <glyph glyph-name="Cdotaccent" unicode="&#x10a;" horiz-adv-x="504" 
d="M312 932q38 0 62 -24.5t24 -61.5t-24 -61.5t-62 -24.5q-39 0 -63 24.5t-24 61.5t24 61.5t63 24.5zM308 710q105 0 186 -76l-74 -87q-53 46 -104 46q-123 0 -123 -245q0 -244 125 -244q31 0 55.5 13t56.5 40l70 -86q-80 -88 -191 -88q-130 0 -204.5 92.5t-74.5 272.5
q0 176 76 269t202 93z" />
    <glyph glyph-name="cdotaccent" unicode="&#x10b;" horiz-adv-x="419" 
d="M257 807q38 0 62 -24.5t24 -61.5t-24 -61.5t-62 -24.5q-39 0 -63 24.5t-24 61.5t24 61.5t63 24.5zM261 548q93 0 158 -65l-62 -84q-45 34 -84 34q-44 0 -65.5 -38t-21.5 -133q0 -90 22.5 -125.5t64.5 -35.5q35 0 81 32l66 -88q-69 -62 -157 -62q-110 0 -172.5 74
t-62.5 204q0 133 63 210t170 77z" />
    <glyph glyph-name="Ccaron" unicode="&#x10c;" horiz-adv-x="504" 
d="M428 936l52 -55l-123 -131h-91l-122 131l52 55l116 -83zM308 710q105 0 186 -76l-74 -87q-53 46 -104 46q-123 0 -123 -245q0 -244 125 -244q31 0 55.5 13t56.5 40l70 -86q-80 -88 -191 -88q-130 0 -204.5 92.5t-74.5 272.5q0 176 76 269t202 93z" />
    <glyph glyph-name="ccaron" unicode="&#x10d;" horiz-adv-x="419" 
d="M373 807l52 -56l-123 -138h-91l-122 138l52 56l116 -92zM261 548q93 0 158 -65l-62 -84q-45 34 -84 34q-44 0 -65.5 -38t-21.5 -133q0 -90 22.5 -125.5t64.5 -35.5q35 0 81 32l66 -88q-69 -62 -157 -62q-110 0 -172.5 74t-62.5 204q0 133 63 210t170 77z" />
    <glyph glyph-name="Dcaron" unicode="&#x10e;" horiz-adv-x="572" 
d="M372 936l52 -55l-123 -131h-91l-122 131l52 55l116 -83zM230 693q53 0 95 -7.5t84 -29.5t70 -58.5t45.5 -99.5t17.5 -148q0 -101 -24 -172t-67.5 -108.5t-94 -53.5t-115.5 -16h-190v693h179zM250 580h-42v-466h42q65 0 98 51t33 185t-33 182t-98 48z" />
    <glyph glyph-name="dcaron" unicode="&#x10f;" horiz-adv-x="614" 
d="M322 498v260l151 -16v-742h-134l-6 58q-48 -75 -128 -75q-87 0 -131.5 73.5t-44.5 209.5q0 128 52 205t136 77q63 0 105 -50zM526 757l95 -41l-32 -186l-68 38zM253 94q40 0 69 54v246q-29 43 -62 43q-75 0 -75 -171q0 -97 17.5 -134.5t50.5 -37.5z" />
    <glyph glyph-name="Dcroat" unicode="&#x110;" horiz-adv-x="588" 
d="M246 693q53 0 95 -7.5t84 -29.5t70 -58.5t45.5 -99.5t17.5 -148q0 -101 -24 -172t-67.5 -108.5t-94 -53.5t-115.5 -16h-190v306h-53v94h53v293h179zM266 114q65 0 98 51t33 185t-33 182t-98 48h-42v-180h96v-94h-96v-192h42z" />
    <glyph glyph-name="dcroat" unicode="&#x111;" horiz-adv-x="522" 
d="M519 686v-88h-46v-598h-134l-6 58q-48 -75 -128 -75q-87 0 -131.5 73.5t-44.5 209.5q0 128 52 205t136 77q63 0 105 -50v100h-115v88h115v72l151 -16v-56h46zM253 94q40 0 69 54v246q-29 43 -62 43q-75 0 -75 -171q0 -97 17.5 -134.5t50.5 -37.5z" />
    <glyph glyph-name="Emacron" unicode="&#x112;" horiz-adv-x="452" 
d="M376 784h-269v102h269v-102zM429 693l-16 -112h-205v-173h180v-111h-180v-184h219v-113h-376v693h378z" />
    <glyph glyph-name="emacron" unicode="&#x113;" horiz-adv-x="489" 
d="M385 760v-102h-269v102h269zM466 276q0 -10 -3 -55h-284q6 -72 29.5 -99.5t66.5 -27.5q55 0 112 44l61 -82q-76 -73 -184 -73q-115 0 -175.5 74.5t-60.5 204.5t57.5 208t163.5 78q101 0 159 -70t58 -202zM319 311v8q-1 66 -16.5 97.5t-51.5 31.5q-33 0 -50.5 -30
t-21.5 -107h140z" />
    <glyph glyph-name="Edotaccent" unicode="&#x116;" horiz-adv-x="452" 
d="M241 932q38 0 62 -24.5t24 -61.5t-24 -61.5t-62 -24.5q-39 0 -63 24.5t-24 61.5t24 61.5t63 24.5zM429 693l-16 -112h-205v-173h180v-111h-180v-184h219v-113h-376v693h378z" />
    <glyph glyph-name="edotaccent" unicode="&#x117;" horiz-adv-x="489" 
d="M251 635q-39 0 -63 24.5t-24 61.5t24 61.5t63 24.5q38 0 62 -24.5t24 -61.5t-24 -61.5t-62 -24.5zM466 276q0 -10 -3 -55h-284q6 -72 29.5 -99.5t66.5 -27.5q55 0 112 44l61 -82q-76 -73 -184 -73q-115 0 -175.5 74.5t-60.5 204.5t57.5 208t163.5 78q101 0 159 -70
t58 -202zM319 311v8q-1 66 -16.5 97.5t-51.5 31.5q-33 0 -50.5 -30t-21.5 -107h140z" />
    <glyph glyph-name="Eogonek" unicode="&#x118;" horiz-adv-x="452" 
d="M208 297v-184h219v-113h-34q-100 -44 -100 -103q0 -47 45 -47q22 0 52 8l-9 -94q-33 -7 -62 -7q-58 0 -95.5 31t-37.5 84q0 77 79 128h-214v693h378l-16 -112h-205v-173h180v-111h-180z" />
    <glyph glyph-name="eogonek" unicode="&#x119;" horiz-adv-x="489" 
d="M466 276q0 -10 -3 -55h-284q6 -72 29.5 -99.5t66.5 -27.5q55 0 112 44l61 -82q-41 -38 -86 -55q-83 -40 -83 -95q0 -47 45 -47q22 0 52 8l-9 -94q-33 -7 -62 -7q-57 0 -94 31t-37 83q0 64 63 104q-102 9 -155.5 82.5t-53.5 195.5q0 130 57.5 208t163.5 78q101 0 159 -70
t58 -202zM319 311v8q-1 66 -16.5 97.5t-51.5 31.5q-33 0 -50.5 -30t-21.5 -107h140z" />
    <glyph glyph-name="Ecaron" unicode="&#x11a;" horiz-adv-x="452" 
d="M357 936l52 -55l-123 -131h-91l-122 131l52 55l116 -83zM429 693l-16 -112h-205v-173h180v-111h-180v-184h219v-113h-376v693h378z" />
    <glyph glyph-name="ecaron" unicode="&#x11b;" horiz-adv-x="489" 
d="M296 613h-91l-122 138l52 56l116 -92l116 92l52 -56zM466 276q0 -10 -3 -55h-284q6 -72 29.5 -99.5t66.5 -27.5q55 0 112 44l61 -82q-76 -73 -184 -73q-115 0 -175.5 74.5t-60.5 204.5t57.5 208t163.5 78q101 0 159 -70t58 -202zM319 311v8q-1 66 -16.5 97.5t-51.5 31.5
q-33 0 -50.5 -30t-21.5 -107h140z" />
    <glyph glyph-name="Gbreve" unicode="&#x11e;" horiz-adv-x="567" 
d="M307 752q-68 0 -107 45t-45 112l80 15q18 -67 72 -67t72 67l80 -15q-6 -67 -45 -112t-107 -45zM323 710q118 0 204 -84l-76 -79q-59 49 -120 49q-139 0 -139 -249q0 -136 27.5 -192.5t86.5 -56.5q39 0 74 24v164h-72l-15 111h235v-342q-98 -71 -218 -71q-280 0 -280 364
q0 172 82.5 267t210.5 95z" />
    <glyph glyph-name="gbreve" unicode="&#x11f;" horiz-adv-x="474" 
d="M239 634q-70 0 -108.5 45t-43.5 123l80 14q16 -79 72 -79t72 79l80 -14q-5 -78 -43.5 -123t-108.5 -45zM443 610l36 -108q-42 -21 -131 -21q90 -41 90 -138q0 -79 -53.5 -128t-145.5 -49q-29 0 -51 6q-17 -11 -17 -34q0 -35 53 -35h59q87 0 137 -41.5t50 -108.5
q0 -80 -63.5 -127t-181.5 -47q-127 0 -176 42.5t-49 127.5h135q0 -38 18.5 -54.5t72.5 -16.5q93 0 93 64q0 58 -70 58h-50q-78 0 -114.5 28t-36.5 75q0 59 57 99q-44 26 -64 62t-20 90q0 90 57 141.5t156 50.5q46 0 87.5 10t63.5 21.5t58 32.5zM233 448q-64 0 -64 -92
q0 -93 63 -93q32 0 47.5 22t15.5 74q0 89 -62 89z" />
    <glyph glyph-name="Gdotaccent" unicode="&#x120;" horiz-adv-x="567" 
d="M307 932q38 0 62 -24.5t24 -61.5t-24 -61.5t-62 -24.5q-39 0 -63 24.5t-24 61.5t24 61.5t63 24.5zM323 710q118 0 204 -84l-76 -79q-59 49 -120 49q-139 0 -139 -249q0 -136 27.5 -192.5t86.5 -56.5q39 0 74 24v164h-72l-15 111h235v-342q-98 -71 -218 -71
q-280 0 -280 364q0 172 82.5 267t210.5 95z" />
    <glyph glyph-name="gdotaccent" unicode="&#x121;" horiz-adv-x="474" 
d="M239 807q38 0 62 -24.5t24 -61.5t-24 -61.5t-62 -24.5q-39 0 -63 24.5t-24 61.5t24 61.5t63 24.5zM443 610l36 -108q-42 -21 -131 -21q90 -41 90 -138q0 -79 -53.5 -128t-145.5 -49q-29 0 -51 6q-17 -11 -17 -34q0 -35 53 -35h59q87 0 137 -41.5t50 -108.5
q0 -80 -63.5 -127t-181.5 -47q-127 0 -176 42.5t-49 127.5h135q0 -38 18.5 -54.5t72.5 -16.5q93 0 93 64q0 58 -70 58h-50q-78 0 -114.5 28t-36.5 75q0 59 57 99q-44 26 -64 62t-20 90q0 90 57 141.5t156 50.5q46 0 87.5 10t63.5 21.5t58 32.5zM233 448q-64 0 -64 -92
q0 -93 63 -93q32 0 47.5 22t15.5 74q0 89 -62 89z" />
    <glyph glyph-name="Gcommaaccent" unicode="&#x122;" horiz-adv-x="567" 
d="M323 710q118 0 204 -84l-76 -79q-59 49 -120 49q-139 0 -139 -249q0 -136 27.5 -192.5t86.5 -56.5q39 0 74 24v164h-72l-15 111h235v-342q-98 -71 -218 -71q-280 0 -280 364q0 172 82.5 267t210.5 95zM306 -69q32 0 52.5 -21.5t20.5 -53.5q0 -27 -23 -82l-40 -95h-74
l26 115q-35 22 -35 62q0 32 20.5 53.5t52.5 21.5z" />
    <glyph glyph-name="gcommaaccent" unicode="&#x123;" horiz-adv-x="474" 
d="M230 578q-32 0 -52.5 21.5t-20.5 53.5q0 27 23 82l40 95h74l-26 -115q35 -22 35 -62q0 -32 -20.5 -53.5t-52.5 -21.5zM443 610l36 -108q-42 -21 -131 -21q90 -41 90 -138q0 -79 -53.5 -128t-145.5 -49q-29 0 -51 6q-17 -11 -17 -34q0 -35 53 -35h59q87 0 137 -41.5
t50 -108.5q0 -80 -63.5 -127t-181.5 -47q-127 0 -176 42.5t-49 127.5h135q0 -38 18.5 -54.5t72.5 -16.5q93 0 93 64q0 58 -70 58h-50q-78 0 -114.5 28t-36.5 75q0 59 57 99q-44 26 -64 62t-20 90q0 90 57 141.5t156 50.5q46 0 87.5 10t63.5 21.5t58 32.5zM233 448
q-64 0 -64 -92q0 -93 63 -93q32 0 47.5 22t15.5 74q0 89 -62 89z" />
    <glyph glyph-name="Hbar" unicode="&#x126;" horiz-adv-x="588" 
d="M576 589v-88h-45v-501h-157v299h-160v-299h-157v501h-45v88h45v104h157v-104h160v104h157v-104h45zM374 422v79h-160v-79h160z" />
    <glyph glyph-name="hbar" unicode="&#x127;" horiz-adv-x="507" 
d="M335 548q60 0 93.5 -42.5t33.5 -118.5v-387h-151v370q0 63 -35 63q-34 0 -71 -64v-369h-151v598h-52v88h52v56l151 15v-71h108v-88h-108v-125q53 75 130 75z" />
    <glyph glyph-name="Imacron" unicode="&#x12a;" horiz-adv-x="260" 
d="M264 784h-269v102h269v-102zM208 693v-693h-157v693h157z" />
    <glyph glyph-name="imacron" unicode="&#x12b;" horiz-adv-x="249" 
d="M259 657h-269v102h269v-102zM200 531v-531h-151v531h151z" />
    <glyph glyph-name="Iogonek" unicode="&#x12e;" horiz-adv-x="260" 
d="M51 693h157v-693h-34q-100 -44 -100 -103q0 -47 45 -47q22 0 52 8l-9 -94q-33 -7 -62 -7q-58 0 -95.5 31t-37.5 84q0 79 84 132v689z" />
    <glyph glyph-name="iogonek" unicode="&#x12f;" horiz-adv-x="249" 
d="M125 634q-39 0 -63 24.5t-24 61.5t24 61.5t63 24.5q38 0 62 -24.5t24 -61.5t-24 -61.5t-62 -24.5zM49 3v528h151v-531h-28q-100 -44 -100 -103q0 -47 45 -47q22 0 52 8l-9 -94q-33 -7 -62 -7q-58 0 -95.5 31t-37.5 84q0 80 84 131z" />
    <glyph glyph-name="Idotaccent" unicode="&#x130;" horiz-adv-x="260" 
d="M130 932q38 0 62 -24.5t24 -61.5t-24 -61.5t-62 -24.5q-39 0 -63 24.5t-24 61.5t24 61.5t63 24.5zM208 693v-693h-157v693h157z" />
    <glyph glyph-name="Kcommaaccent" unicode="&#x136;" horiz-adv-x="559" 
d="M208 693v-693h-157v693h157zM556 693l-184 -312l199 -381h-173l-185 370l186 323h157zM285 -69q32 0 52.5 -21.5t20.5 -53.5q0 -27 -23 -82l-40 -95h-74l26 115q-35 22 -35 62q0 32 20.5 53.5t52.5 21.5z" />
    <glyph glyph-name="kcommaaccent" unicode="&#x137;" horiz-adv-x="491" 
d="M200 758v-758h-151v742zM488 531l-135 -234l145 -297h-162l-132 290l138 241h146zM247 -69q32 0 52.5 -21.5t20.5 -53.5q0 -27 -23 -82l-40 -95h-74l26 115q-35 22 -35 62q0 32 20.5 53.5t52.5 21.5z" />
    <glyph glyph-name="Lacute" unicode="&#x139;" horiz-adv-x="445" 
d="M196 946l57 -110l-210 -84l-38 74zM208 693v-569h230l-17 -124h-370v693h157z" />
    <glyph glyph-name="lacute" unicode="&#x13a;" horiz-adv-x="264" 
d="M186 995l57 -110l-210 -84l-38 74zM180 -17q-64 0 -100 37.5t-36 102.5v619l151 16v-628q0 -27 23 -27q12 0 20 3l28 -104q-38 -19 -86 -19z" />
    <glyph glyph-name="Lcommaaccent" unicode="&#x13b;" horiz-adv-x="445" 
d="M208 693v-569h230l-17 -124h-370v693h157zM236 -69q32 0 52.5 -21.5t20.5 -53.5q0 -27 -23 -82l-40 -95h-74l26 115q-35 22 -35 62q0 32 20.5 53.5t52.5 21.5z" />
    <glyph glyph-name="lcommaaccent" unicode="&#x13c;" horiz-adv-x="264" 
d="M180 -17q-64 0 -100 37.5t-36 102.5v619l151 16v-628q0 -27 23 -27q12 0 20 3l28 -104q-38 -19 -86 -19zM162 -69q32 0 52.5 -21.5t20.5 -53.5q0 -27 -23 -82l-40 -95h-74l26 115q-35 22 -35 62q0 32 20.5 53.5t52.5 21.5z" />
    <glyph glyph-name="Lcaron" unicode="&#x13d;" horiz-adv-x="445" 
d="M262 708l95 -41l-32 -186l-68 38zM208 693v-569h230l-17 -124h-370v693h157z" />
    <glyph glyph-name="lcaron" unicode="&#x13e;" horiz-adv-x="264" 
d="M180 -17q-64 0 -100 37.5t-36 102.5v619l151 16v-628q0 -27 23 -27q12 0 20 3l28 -104q-38 -19 -86 -19zM248 757l95 -41l-32 -186l-68 38z" />
    <glyph glyph-name="Ldot" unicode="&#x13f;" horiz-adv-x="445" 
d="M208 693v-569h230l-17 -124h-370v693h157zM348 483q38 0 62 -24.5t24 -61.5t-24 -61.5t-62 -24.5q-39 0 -63 24.5t-24 61.5t24 61.5t63 24.5z" />
    <glyph glyph-name="ldot" unicode="&#x140;" horiz-adv-x="405" 
d="M180 -17q-64 0 -100 37.5t-36 102.5v619l151 16v-628q0 -27 23 -27q12 0 20 3l28 -104q-38 -19 -86 -19zM322 463q38 0 62 -24.5t24 -61.5t-24 -61.5t-62 -24.5q-39 0 -63 24.5t-24 61.5t24 61.5t63 24.5z" />
    <glyph glyph-name="Lslash" unicode="&#x141;" horiz-adv-x="485" 
d="M248 124h230l-17 -124h-370v228l-38 -26l-49 83l83 58l4 3v347h157v-239l98 68l50 -83l-148 -102v-213z" />
    <glyph glyph-name="lslash" unicode="&#x142;" horiz-adv-x="322" 
d="M251 103q13 0 20 3l28 -104q-38 -19 -86 -19q-64 0 -100 37.5t-36 102.5v148l-34 -22l-49 79l83 58v356l151 16v-273l51 34l49 -80l-100 -67v-242q0 -27 23 -27z" />
    <glyph glyph-name="Nacute" unicode="&#x143;" horiz-adv-x="573" 
d="M355 946l57 -110l-210 -84l-38 74zM522 693v-693h-194l-162 549q21 -176 21 -283v-266h-136v693h193l163 -550q-21 142 -21 259v291h136z" />
    <glyph glyph-name="nacute" unicode="&#x144;" horiz-adv-x="502" 
d="M372 718l-208 -94l-41 73l190 129zM329 548q60 0 94 -42.5t34 -118.5v-387h-151v370q0 63 -35 63q-34 0 -71 -64v-369h-151v531h132l11 -63q55 80 137 80z" />
    <glyph glyph-name="Ncommaaccent" unicode="&#x145;" horiz-adv-x="573" 
d="M522 693v-693h-194l-162 549q21 -176 21 -283v-266h-136v693h193l163 -550q-21 142 -21 259v291h136zM286 -69q32 0 52.5 -21.5t20.5 -53.5q0 -27 -23 -82l-40 -95h-74l26 115q-35 22 -35 62q0 32 20.5 53.5t52.5 21.5z" />
    <glyph glyph-name="ncommaaccent" unicode="&#x146;" horiz-adv-x="502" 
d="M329 548q60 0 94 -42.5t34 -118.5v-387h-151v370q0 63 -35 63q-34 0 -71 -64v-369h-151v531h132l11 -63q55 80 137 80zM251 -69q32 0 52.5 -21.5t20.5 -53.5q0 -27 -23 -82l-40 -95h-74l26 115q-35 22 -35 62q0 32 20.5 53.5t52.5 21.5z" />
    <glyph glyph-name="Ncaron" unicode="&#x147;" horiz-adv-x="573" 
d="M405 936l52 -55l-123 -131h-91l-122 131l52 55l116 -83zM522 693v-693h-194l-162 549q21 -176 21 -283v-266h-136v693h193l163 -550q-21 142 -21 259v291h136z" />
    <glyph glyph-name="ncaron" unicode="&#x148;" horiz-adv-x="502" 
d="M300 613h-91l-122 138l52 56l116 -92l116 92l52 -56zM329 548q60 0 94 -42.5t34 -118.5v-387h-151v370q0 63 -35 63q-34 0 -71 -64v-369h-151v531h132l11 -63q55 80 137 80z" />
    <glyph glyph-name="napostrophe" unicode="&#x149;" horiz-adv-x="619" 
d="M95 759q29 0 46 -18.5t17 -47.5q0 -24 -21 -73l-33 -83h-64l20 101q-28 21 -28 55q0 28 17.5 47t45.5 19zM446 548q60 0 94 -42.5t34 -118.5v-387h-151v370q0 63 -35 63q-34 0 -71 -64v-369h-151v531h132l11 -64q55 81 137 81z" />
    <glyph glyph-name="Eng" unicode="&#x14a;" horiz-adv-x="573" 
d="M522 -34q0 -91 -49.5 -138.5t-134.5 -47.5q-76 0 -128 41l50 94q32 -21 59 -21q46 0 46 62v44h-37l-162 549q21 -176 21 -283v-266h-136v693h193l163 -550q-21 142 -21 259v291h136v-727z" />
    <glyph glyph-name="eng" unicode="&#x14b;" horiz-adv-x="502" 
d="M457 387v-387h-1v-34q0 -91 -48.5 -138.5t-131.5 -47.5q-75 0 -127 41l51 88q30 -19 57 -19q48 0 48 62v49h1v369q0 63 -35 63q-34 0 -71 -64v-369h-151v531h132l11 -63q55 80 137 80q60 0 94 -42.5t34 -118.5z" />
    <glyph glyph-name="Omacron" unicode="&#x14c;" horiz-adv-x="606" 
d="M437 784h-269v102h269v-102zM303 710q132 0 202.5 -91.5t70.5 -271.5q0 -178 -71 -271t-202 -93q-132 0 -202.5 92t-70.5 272q0 177 71 270t202 93zM303 595q-57 0 -83.5 -57t-26.5 -191q0 -136 26.5 -192.5t83.5 -56.5q58 0 84 56t26 193q0 134 -26.5 191t-83.5 57z" />
    <glyph glyph-name="omacron" unicode="&#x14d;" horiz-adv-x="514" 
d="M392 658h-269v102h269v-102zM257 548q108 0 168.5 -71.5t60.5 -211.5q0 -134 -61 -208t-168 -74q-108 0 -168.5 72t-60.5 211q0 135 60.5 208.5t168.5 73.5zM257 436q-38 0 -55.5 -39t-17.5 -131q0 -95 17.5 -133.5t55.5 -38.5t56 39t18 132q0 94 -17.5 132.5t-56.5 38.5
z" />
    <glyph glyph-name="Ohungarumlaut" unicode="&#x150;" horiz-adv-x="606" 
d="M266 981l96 -47l-100 -177l-74 31zM421 981l96 -50l-108 -178l-72 34zM303 710q132 0 202.5 -91.5t70.5 -271.5q0 -178 -71 -271t-202 -93q-132 0 -202.5 92t-70.5 272q0 177 71 270t202 93zM303 595q-57 0 -83.5 -57t-26.5 -191q0 -136 26.5 -192.5t83.5 -56.5
q58 0 84 56t26 193q0 134 -26.5 191t-83.5 57z" />
    <glyph glyph-name="ohungarumlaut" unicode="&#x151;" horiz-adv-x="514" 
d="M212 855l96 -47l-100 -177l-74 31zM367 855l96 -50l-108 -178l-72 34zM257 548q108 0 168.5 -71.5t60.5 -211.5q0 -134 -61 -208t-168 -74q-108 0 -168.5 72t-60.5 211q0 135 60.5 208.5t168.5 73.5zM257 436q-38 0 -55.5 -39t-17.5 -131q0 -95 17.5 -133.5t55.5 -38.5
t56 39t18 132q0 94 -17.5 132.5t-56.5 38.5z" />
    <glyph glyph-name="OE" unicode="&#x152;" horiz-adv-x="786" 
d="M555 297q-9 -112 -60 -184h264v-113h-384q-39 -17 -87 -17q-121 0 -189.5 94.5t-68.5 269.5q0 173 69 268t189 95q49 0 89 -17h384l-16 -112h-249q47 -68 58 -173h166v-111h-165zM294 98q52 0 76.5 57t24.5 193q0 133 -25 190t-76 57t-76 -57t-25 -191t25 -191.5
t76 -57.5z" />
    <glyph glyph-name="oe" unicode="&#x153;" horiz-adv-x="789" 
d="M767 276q0 -25 -4 -55h-282q6 -71 30 -99t68 -28q55 0 112 44l61 -81q-77 -74 -184 -74q-101 0 -162 79q-60 -79 -154 -79q-105 0 -165 73t-60 210q0 131 61 206.5t166 75.5q91 0 153 -76q58 76 150 76q96 0 153 -70.5t57 -201.5zM620 312v7q0 65 -15 96.5t-51 31.5
q-34 0 -51.5 -31t-21.5 -104h139zM256 94q38 0 55.5 39.5t17.5 132.5q0 91 -18 130.5t-55 39.5q-38 0 -55.5 -39t-17.5 -131q0 -94 17.5 -133t55.5 -39z" />
    <glyph glyph-name="Racute" unicode="&#x154;" horiz-adv-x="539" 
d="M394 836l-210 -84l-38 74l191 120zM377 0l-120 268h-49v-268h-157v693h194q263 0 263 -210q0 -66 -26.5 -109.5t-85.5 -74.5l150 -299h-169zM208 376h42q51 0 74 25.5t23 81.5q0 52 -24.5 76t-78.5 24h-36v-207z" />
    <glyph glyph-name="racute" unicode="&#x155;" horiz-adv-x="351" 
d="M320 718l-208 -94l-41 73l190 129zM312 546q23 0 45 -8l-25 -145q-19 6 -40 6q-39 0 -59 -30t-33 -89v-280h-151v531h132l11 -91q38 106 120 106z" />
    <glyph glyph-name="Rcommaaccent" unicode="&#x156;" horiz-adv-x="539" 
d="M396 299l150 -299h-169l-120 268h-49v-268h-157v693h194q263 0 263 -210q0 -66 -26.5 -109.5t-85.5 -74.5zM208 376h42q51 0 74 25.5t23 81.5q0 52 -24.5 76t-78.5 24h-36v-207zM272 -69q32 0 52.5 -21.5t20.5 -53.5q0 -27 -23 -82l-40 -95h-74l26 115q-35 22 -35 62
q0 32 20.5 53.5t52.5 21.5z" />
    <glyph glyph-name="rcommaaccent" unicode="&#x157;" horiz-adv-x="351" 
d="M312 546q23 0 45 -8l-25 -145q-19 6 -40 6q-39 0 -59 -30t-33 -89v-280h-151v531h132l11 -91q38 106 120 106zM125 -69q32 0 52.5 -21.5t20.5 -53.5q0 -27 -23 -82l-40 -95h-74l26 115q-35 22 -35 62q0 32 20.5 53.5t52.5 21.5z" />
    <glyph glyph-name="Rcaron" unicode="&#x158;" horiz-adv-x="539" 
d="M316 750h-91l-122 131l52 55l116 -83l116 83l52 -55zM377 0l-120 268h-49v-268h-157v693h194q263 0 263 -210q0 -66 -26.5 -109.5t-85.5 -74.5l150 -299h-169zM208 376h42q51 0 74 25.5t23 81.5q0 52 -24.5 76t-78.5 24h-36v-207z" />
    <glyph glyph-name="rcaron" unicode="&#x159;" horiz-adv-x="351" 
d="M249 613h-91l-122 138l52 56l116 -92l116 92l52 -56zM192 440q38 106 120 106q23 0 45 -8l-25 -145q-19 6 -40 6q-39 0 -59 -30t-33 -89v-280h-151v531h132z" />
    <glyph glyph-name="Sacute" unicode="&#x15a;" horiz-adv-x="498" 
d="M324 945l57 -110l-210 -84l-38 74zM252 710q126 0 212 -88l-70 -83q-62 56 -126 56q-37 0 -57.5 -19.5t-20.5 -53.5q0 -32 23 -52.5t90 -47.5q92 -38 134 -85t42 -135q0 -97 -65.5 -158t-177.5 -61q-139 0 -232 98l76 84q74 -66 146 -66q44 0 67 24.5t23 65.5
q0 39 -22 63t-82 47q-100 41 -142 89t-42 122q0 90 63.5 145t160.5 55z" />
    <glyph glyph-name="sacute" unicode="&#x15b;" horiz-adv-x="419" 
d="M271 826l59 -108l-208 -94l-41 73zM215 548q103 0 174 -65l-55 -82q-59 39 -106 39q-26 0 -41 -12t-15 -33q0 -23 18 -37.5t77 -37.5q71 -26 104.5 -63.5t33.5 -100.5q0 -79 -58.5 -126t-150.5 -47q-120 0 -196 78l71 79q63 -50 118 -50q29 0 45.5 14t16.5 39
q0 28 -18 44.5t-76 37.5q-71 27 -102.5 64t-31.5 95q0 72 51.5 118t140.5 46z" />
    <glyph glyph-name="Scedilla" unicode="&#x15e;" horiz-adv-x="498" 
d="M479 202q0 -86 -51.5 -144.5t-142.5 -71.5v-39q91 -12 91 -94q0 -51 -35.5 -81.5t-97.5 -30.5q-57 0 -101 29l34 67q25 -14 56 -14q38 0 38 31q0 35 -80 35l11 96q-117 10 -197 96l76 84q74 -66 146 -66q44 0 67 24.5t23 65.5q0 39 -22 63t-82 47q-100 41 -142 89
t-42 122q0 90 63.5 145t160.5 55q126 0 212 -88l-70 -83q-62 56 -126 56q-37 0 -57.5 -19.5t-20.5 -53.5q0 -32 23 -52.5t90 -47.5q92 -38 134 -85t42 -135z" />
    <glyph glyph-name="scedilla" unicode="&#x15f;" horiz-adv-x="419" 
d="M405 156q0 -66 -41.5 -110.5t-111.5 -57.5v-41q91 -12 91 -94q0 -51 -35.5 -81.5t-97.5 -30.5q-58 0 -101 29l34 67q25 -14 56 -14q38 0 38 31q0 35 -80 35l11 95q-101 10 -168 77l71 79q63 -50 118 -50q29 0 45.5 14t16.5 39q0 28 -18 44.5t-76 37.5q-71 27 -102.5 64
t-31.5 95q0 72 51.5 118t140.5 46q103 0 174 -65l-55 -82q-59 39 -106 39q-26 0 -41 -12t-15 -33q0 -23 18 -37.5t77 -37.5q71 -26 104.5 -63.5t33.5 -100.5z" />
    <glyph glyph-name="Scaron" unicode="&#x160;" horiz-adv-x="498" 
d="M373 935l52 -55l-123 -131h-91l-122 131l52 55l116 -83zM252 710q126 0 212 -88l-70 -83q-62 56 -126 56q-37 0 -57.5 -19.5t-20.5 -53.5q0 -32 23 -52.5t90 -47.5q92 -38 134 -85t42 -135q0 -97 -65.5 -158t-177.5 -61q-139 0 -232 98l76 84q74 -66 146 -66
q44 0 67 24.5t23 65.5q0 39 -22 63t-82 47q-100 41 -142 89t-42 122q0 90 63.5 145t160.5 55z" />
    <glyph glyph-name="scaron" unicode="&#x161;" horiz-adv-x="419" 
d="M329 807l52 -56l-123 -138h-91l-122 138l52 56l116 -92zM215 548q103 0 174 -65l-55 -82q-59 39 -106 39q-26 0 -41 -12t-15 -33q0 -23 18 -37.5t77 -37.5q71 -26 104.5 -63.5t33.5 -100.5q0 -79 -58.5 -126t-150.5 -47q-120 0 -196 78l71 79q63 -50 118 -50
q29 0 45.5 14t16.5 39q0 28 -18 44.5t-76 37.5q-71 27 -102.5 64t-31.5 95q0 72 51.5 118t140.5 46z" />
    <glyph glyph-name="uni0162" unicode="&#x162;" horiz-adv-x="469" 
d="M312 -49q92 -12 92 -98q0 -51 -35.5 -81.5t-97.5 -30.5q-61 0 -101 29l34 70q29 -17 53 -17q41 0 41 32q0 34 -80 34l12 111h-75v573h-149v120h464l-16 -120h-142v-622z" />
    <glyph glyph-name="uni0163" unicode="&#x163;" horiz-adv-x="337" 
d="M244 -53q91 -12 91 -94q0 -51 -35.5 -81.5t-97.5 -30.5q-58 0 -101 29l34 67q25 -14 56 -14q38 0 38 31q0 35 -80 35l11 102q-100 29 -100 159v276h-59v105h59v116l151 17v-133h105l-16 -105h-89v-274q0 -49 41 -49q20 0 46 14l50 -92q-42 -33 -104 -40v-38z" />
    <glyph glyph-name="Tcaron" unicode="&#x164;" horiz-adv-x="469" 
d="M350 936l52 -55l-123 -131h-91l-122 131l52 55l116 -83zM470 693l-16 -120h-142v-573h-157v573h-149v120h464z" />
    <glyph glyph-name="tcaron" unicode="&#x165;" horiz-adv-x="337" 
d="M345 751l-32 -186l-68 38l5 189zM298 117l50 -92q-52 -42 -130 -42q-79 0 -118.5 44.5t-39.5 122.5v276h-59v105h59v116l151 17v-133h105l-16 -105h-89v-274q0 -49 41 -49q20 0 46 14z" />
    <glyph glyph-name="Tbar" unicode="&#x166;" horiz-adv-x="469" 
d="M454 573h-142v-184h97v-89h-97v-301h-157v301h-96v89h96v184h-149v119h464z" />
    <glyph glyph-name="tbar" unicode="&#x167;" horiz-adv-x="337" 
d="M298 117l50 -92q-52 -42 -130 -42q-79 0 -118.5 44.5t-39.5 122.5v110h-53v100h53v66h-59v105h59v116l151 17v-133h105l-16 -105h-89v-66h88v-100h-88v-108q0 -49 41 -49q20 0 46 14z" />
    <glyph glyph-name="Umacron" unicode="&#x16a;" horiz-adv-x="562" 
d="M415 784h-269v102h269v-102zM521 693v-482q0 -101 -61.5 -164t-178.5 -63q-118 0 -179 61.5t-61 165.5v482h157v-475q0 -61 19.5 -89.5t63.5 -28.5t63 28.5t19 89.5v475h158z" />
    <glyph glyph-name="umacron" unicode="&#x16b;" horiz-adv-x="498" 
d="M382 658h-269v102h269v-102zM448 531v-531h-132l-6 63q-51 -80 -135 -80q-61 0 -95 42.5t-34 114.5v391h151v-383q0 -53 36 -53t64 57v379h151z" />
    <glyph glyph-name="Uring" unicode="&#x16e;" horiz-adv-x="562" 
d="M281 990q57 0 90.5 -36t33.5 -93q0 -56 -33.5 -92t-90.5 -36t-91 36t-34 92q0 57 34 93t91 36zM281 914q-38 0 -38 -53q0 -52 38 -52t38 52q0 53 -38 53zM521 693v-482q0 -101 -61.5 -164t-178.5 -63q-118 0 -179 61.5t-61 165.5v482h157v-475q0 -61 19.5 -89.5
t63.5 -28.5t63 28.5t19 89.5v475h158z" />
    <glyph glyph-name="uring" unicode="&#x16f;" horiz-adv-x="498" 
d="M248 864q57 0 90.5 -36t33.5 -93q0 -56 -33.5 -92t-90.5 -36t-91 36t-34 92q0 57 34 93t91 36zM248 788q-38 0 -38 -53q0 -52 38 -52t38 52q0 53 -38 53zM448 531v-531h-132l-6 63q-51 -80 -135 -80q-61 0 -95 42.5t-34 114.5v391h151v-383q0 -53 36 -53t64 57v379h151z
" />
    <glyph glyph-name="Uhungarumlaut" unicode="&#x170;" horiz-adv-x="562" 
d="M244 981l96 -47l-100 -177l-74 31zM399 981l96 -50l-108 -178l-72 34zM521 693v-482q0 -101 -61.5 -164t-178.5 -63q-118 0 -179 61.5t-61 165.5v482h157v-475q0 -61 19.5 -89.5t63.5 -28.5t63 28.5t19 89.5v475h158z" />
    <glyph glyph-name="uhungarumlaut" unicode="&#x171;" horiz-adv-x="498" 
d="M203 855l96 -47l-100 -177l-74 31zM358 855l96 -50l-108 -178l-72 34zM448 531v-531h-132l-6 63q-51 -80 -135 -80q-61 0 -95 42.5t-34 114.5v391h151v-383q0 -53 36 -53t64 57v379h151z" />
    <glyph glyph-name="Uogonek" unicode="&#x172;" horiz-adv-x="562" 
d="M363 693h158v-482q0 -75 -35 -131t-102 -80q-100 -44 -100 -103q0 -47 45 -47q22 0 52 8l-9 -94q-33 -7 -62 -7q-57 0 -94 31t-37 83q0 73 79 113q-107 7 -162 67.5t-55 159.5v482h157v-475q0 -61 19.5 -89.5t63.5 -28.5t63 28.5t19 89.5v475z" />
    <glyph glyph-name="uogonek" unicode="&#x173;" horiz-adv-x="498" 
d="M297 531h151v-531q-100 -44 -100 -103q0 -47 45 -47q22 0 52 8l-9 -94q-33 -7 -62 -7q-58 0 -95.5 31t-37.5 84q0 77 79 128h-4l-6 63q-51 -80 -135 -80q-61 0 -95 42.5t-34 114.5v391h151v-383q0 -53 36 -53t64 57v379z" />
    <glyph glyph-name="Wcircumflex" unicode="&#x174;" horiz-adv-x="741" 
d="M256 759l-52 55l123 131h90l123 -131l-53 -55l-115 84zM732 693l-94 -693h-203l-65 538l-71 -538h-199l-91 693h151l55 -574l76 574h162l71 -574l64 574h144z" />
    <glyph glyph-name="wcircumflex" unicode="&#x175;" horiz-adv-x="662" 
d="M216 625l-52 56l123 138h90l123 -138l-53 -56l-115 91zM656 531l-93 -531h-176l-56 395l-55 -395h-175l-95 531h146l45 -417l66 417h142l62 -417l48 417h141z" />
    <glyph glyph-name="Ycircumflex" unicode="&#x176;" horiz-adv-x="520" 
d="M144 759l-52 55l123 131h90l123 -131l-53 -55l-115 84zM529 693l-190 -432v-261h-158v260l-190 433h165l106 -310l107 310h160z" />
    <glyph glyph-name="ycircumflex" unicode="&#x177;" horiz-adv-x="458" 
d="M113 625l-52 56l123 138h90l123 -138l-53 -56l-115 91zM463 531l-144 -531q-55 -206 -269 -221l-16 104q66 10 99 36.5t52 80.5h-55l-135 531h153l78 -435l87 435h150z" />
    <glyph glyph-name="Ydieresis" unicode="&#x178;" horiz-adv-x="520" 
d="M161 921q32 0 53 -22t21 -54q0 -33 -20.5 -54.5t-53.5 -21.5q-32 0 -53.5 22t-21.5 54t21.5 54t53.5 22zM364 921q33 0 54 -22t21 -54q0 -33 -21 -54.5t-54 -21.5q-32 0 -53.5 22t-21.5 54t22 54t53 22zM529 693l-190 -432v-261h-158v260l-190 433h165l106 -310l107 310
h160z" />
    <glyph glyph-name="Zacute" unicode="&#x179;" horiz-adv-x="471" 
d="M305 946l57 -110l-210 -84l-38 74zM449 693v-119l-263 -449h268l-15 -125h-427v117l264 454h-238v122h411z" />
    <glyph glyph-name="zacute" unicode="&#x17a;" horiz-adv-x="402" 
d="M264 826l59 -108l-208 -94l-41 73zM385 531v-106l-209 -310h213l-13 -115h-366v107l209 310h-191v114h357z" />
    <glyph glyph-name="Zdotaccent" unicode="&#x17b;" horiz-adv-x="471" 
d="M239 932q38 0 62 -24.5t24 -61.5t-24 -61.5t-62 -24.5q-39 0 -63 24.5t-24 61.5t24 61.5t63 24.5zM449 693v-119l-263 -449h268l-15 -125h-427v117l264 454h-238v122h411z" />
    <glyph glyph-name="zdotaccent" unicode="&#x17c;" horiz-adv-x="402" 
d="M206 807q38 0 62 -24.5t24 -61.5t-24 -61.5t-62 -24.5q-39 0 -63 24.5t-24 61.5t24 61.5t63 24.5zM385 531v-106l-209 -310h213l-13 -115h-366v107l209 310h-191v114h357z" />
    <glyph glyph-name="Zcaron" unicode="&#x17d;" horiz-adv-x="471" 
d="M355 936l52 -55l-123 -131h-91l-122 131l52 55l116 -83zM449 693v-119l-263 -449h268l-15 -125h-427v117l264 454h-238v122h411z" />
    <glyph glyph-name="zcaron" unicode="&#x17e;" horiz-adv-x="402" 
d="M322 807l52 -56l-123 -138h-91l-122 138l52 56l116 -92zM385 531v-106l-209 -310h213l-13 -115h-366v107l209 310h-191v114h357z" />
    <glyph glyph-name="florin" unicode="&#x192;" horiz-adv-x="330" 
d="M278 647q-30 0 -43.5 -14.5t-13.5 -45.5v-56h109l-17 -105h-92v-342v-27q0 -117 -49.5 -177.5t-144.5 -99.5l-51 110q50 27 72 58.5t22 99.5v378h-64v105h64v52q0 81 47 128t138 47q74 0 140 -33l-40 -95q-43 17 -77 17z" />
    <glyph glyph-name="Scommaaccent" unicode="&#x218;" horiz-adv-x="498" 
d="M252 710q126 0 212 -88l-70 -83q-62 56 -126 56q-37 0 -57.5 -19.5t-20.5 -53.5q0 -32 23 -52.5t90 -47.5q92 -38 134 -85t42 -135q0 -97 -65.5 -158t-177.5 -61q-139 0 -232 98l76 84q74 -66 146 -66q44 0 67 24.5t23 65.5q0 39 -22 63t-82 47q-100 41 -142 89t-42 122
q0 90 63.5 145t160.5 55zM246 -69q32 0 52.5 -21.5t20.5 -53.5q0 -27 -23 -82l-40 -95h-74l26 115q-35 22 -35 62q0 32 20.5 53.5t52.5 21.5z" />
    <glyph glyph-name="scommaaccent" unicode="&#x219;" horiz-adv-x="419" 
d="M215 548q103 0 174 -65l-55 -82q-59 39 -106 39q-26 0 -41 -12t-15 -33q0 -23 18 -37.5t77 -37.5q71 -26 104.5 -63.5t33.5 -100.5q0 -79 -58.5 -126t-150.5 -47q-120 0 -196 78l71 79q63 -50 118 -50q29 0 45.5 14t16.5 39q0 28 -18 44.5t-76 37.5q-71 27 -102.5 64
t-31.5 95q0 72 51.5 118t140.5 46zM209 -69q32 0 52.5 -21.5t20.5 -53.5q0 -27 -23 -82l-40 -95h-74l26 115q-35 22 -35 62q0 32 20.5 53.5t52.5 21.5z" />
    <glyph glyph-name="uni021A" unicode="&#x21a;" horiz-adv-x="469" 
d="M470 693l-16 -120h-142v-573h-157v573h-149v120h464zM234 -69q32 0 52.5 -21.5t20.5 -53.5q0 -27 -23 -82l-40 -95h-74l26 115q-35 22 -35 62q0 32 20.5 53.5t52.5 21.5z" />
    <glyph glyph-name="uni021B" unicode="&#x21b;" horiz-adv-x="337" 
d="M348 25q-52 -42 -130 -42q-79 0 -118.5 44.5t-39.5 122.5v276h-59v105h59v116l151 17v-133h105l-16 -105h-89v-274q0 -49 41 -49q20 0 46 14zM201 -69q32 0 52.5 -21.5t20.5 -53.5q0 -27 -23 -82l-40 -95h-74l26 115q-35 22 -35 62q0 32 20.5 53.5t52.5 21.5z" />
    <glyph glyph-name="circumflex" unicode="&#x2c6;" horiz-adv-x="396" 
d="M86 625l-52 56l123 138h90l122 -138l-52 -56l-115 91z" />
    <glyph glyph-name="caron" unicode="&#x2c7;" horiz-adv-x="396" 
d="M317 807l52 -56l-122 -138h-91l-122 138l52 56l116 -92z" />
    <glyph glyph-name="uni02D4" unicode="&#x2d4;" horiz-adv-x="361" 
d="M323 263v-84h-285v84h95v148h94v-148h96z" />
    <glyph glyph-name="uni02D6" unicode="&#x2d6;" horiz-adv-x="425" 
d="M268 489v-138h119v-105h-119v-138h-110v138h-119v105h119v138h110z" />
    <glyph glyph-name="uni02D7" unicode="&#x2d7;" horiz-adv-x="413" 
d="M39 248v102h336v-102h-336z" />
    <glyph glyph-name="breve" unicode="&#x2d8;" horiz-adv-x="364" 
d="M186 634q-70 0 -108.5 45t-43.5 123l80 14q16 -79 72 -79t72 79l80 -14q-5 -78 -43.5 -123t-108.5 -45z" />
    <glyph glyph-name="dotaccent" unicode="&#x2d9;" horiz-adv-x="233" 
d="M121 806q38 0 62.5 -24.5t24.5 -61.5t-24.5 -61.5t-62.5 -24.5t-62.5 24.5t-24.5 61.5t24.5 61.5t62.5 24.5z" />
    <glyph glyph-name="ring" unicode="&#x2da;" horiz-adv-x="309" 
d="M159 864q57 0 90.5 -36t33.5 -93q0 -56 -33.5 -92t-90.5 -36q-58 0 -91.5 36t-33.5 92q0 57 33.5 93t91.5 36zM159 788q-38 0 -38 -53q0 -52 38 -52t38 52q0 53 -38 53z" />
    <glyph glyph-name="ogonek" unicode="&#x2db;" horiz-adv-x="267" 
d="M245 49l24 -49q-100 -44 -100 -103q0 -47 45 -47q22 0 52 8l-9 -94q-33 -7 -62 -7q-58 0 -95.5 31t-37.5 84q0 63 48 104.5t135 72.5z" />
    <glyph glyph-name="tilde" unicode="&#x2dc;" horiz-adv-x="392" 
d="M252 641q-28 0 -59 20.5t-43 20.5q-23 0 -45 -41l-71 33q17 51 46.5 81.5t67.5 30.5q29 0 60 -21t43 -21q23 0 43 41l72 -33q-17 -52 -46.5 -81.5t-67.5 -29.5z" />
    <glyph glyph-name="hungarumlaut" unicode="&#x2dd;" horiz-adv-x="389" 
d="M109 855l97 -47l-101 -177l-74 31zM265 855l95 -50l-108 -178l-72 34z" />
    <glyph glyph-name="uni02DE" unicode="&#x2de;" horiz-adv-x="456" 
d="M263 208q-60 0 -95 32t-43 89l-1 8l-98 -65v102l91 57h122v-61q0 -57 42 -57q19 0 51 17l39 -85q-47 -37 -108 -37z" />
    <glyph glyph-name="uni02E0" unicode="&#x2e0;" horiz-adv-x="310" 
d="M279 665l-89 -229q32 -50 32 -86q0 -27 -17 -43t-48 -16t-48.5 15.5t-17.5 43.5q0 37 33 87l-91 228h73l51 -181l51 181h71zM169 355q0 17 -12 44q-13 -27 -13 -44q0 -15 12 -15q13 0 13 15z" />
    <glyph glyph-name="uni02E4" unicode="&#x2e4;" horiz-adv-x="281" 
d="M187 400h-72v145l-14 5q-39 13 -57 37t-18 70q0 55 35.5 88t90.5 33q56 0 103 -43l-35 -45q-33 27 -65 27q-25 0 -40 -15.5t-15 -44.5q0 -31 14 -47t43 -24l29 -8z" />
    <glyph glyph-name="uni02E5" unicode="&#x2e5;" horiz-adv-x="323" 
d="M193 0v599h-167v94h271v-693h-104z" />
    <glyph glyph-name="uni02E6" unicode="&#x2e6;" horiz-adv-x="323" 
d="M193 693h104v-693h-104v451h-167v94h167v148z" />
    <glyph glyph-name="uni02E7" unicode="&#x2e7;" horiz-adv-x="323" 
d="M193 693h104v-693h-104v301h-167v94h167v298z" />
    <glyph glyph-name="uni02E8" unicode="&#x2e8;" horiz-adv-x="323" 
d="M193 693h104v-693h-104v151h-167v94h167v448z" />
    <glyph glyph-name="uni02E9" unicode="&#x2e9;" horiz-adv-x="323" 
d="M193 693h104v-693h-271v95h167v598z" />
    <glyph glyph-name="uni02EE" unicode="&#x2ee;" horiz-adv-x="391" 
d="M104 758q30 0 48.5 -19.5t18.5 -50.5q0 -23 -23 -83l-50 -117h-65l32 140q-31 23 -31 60q0 30 19.5 50t50.5 20zM286 758q31 0 49.5 -19.5t18.5 -50.5q0 -25 -24 -82l-49 -117h-66l33 139q-31 23 -31 60q0 30 19.5 50t49.5 20z" />
    <glyph glyph-name="gravecomb" unicode="&#x300;" horiz-adv-x="0" 
d="M-220 826l190 -129l-41 -73l-208 94z" />
    <glyph glyph-name="acutecomb" unicode="&#x301;" horiz-adv-x="0" 
d="M-89 826l59 -108l-208 -94l-41 73z" />
    <glyph glyph-name="uni0302" unicode="&#x302;" horiz-adv-x="0" 
d="M-314 625l-52 56l123 138h90l123 -138l-53 -56l-115 91z" />
    <glyph glyph-name="tildecomb" unicode="&#x303;" horiz-adv-x="0" 
d="M-144 641q-28 0 -59 20.5t-43 20.5q-23 0 -45 -41l-71 33q17 51 47 81.5t67 30.5q29 0 60 -21t43 -21q23 0 44 41l71 -33q-17 -52 -46.5 -81.5t-67.5 -29.5z" />
    <glyph glyph-name="uni0304" unicode="&#x304;" horiz-adv-x="0" 
d="M-30 658h-269v102h269v-102z" />
    <glyph glyph-name="uni0306" unicode="&#x306;" horiz-adv-x="0" 
d="M-182 634q-70 0 -108.5 45t-43.5 123l80 14q16 -79 72 -79t72 79l80 -14q-5 -78 -43.5 -123t-108.5 -45z" />
    <glyph glyph-name="uni0307" unicode="&#x307;" horiz-adv-x="0" 
d="M-116 806q38 0 62 -24.5t24 -61.5t-24 -61.5t-62 -24.5q-39 0 -63 24.5t-24 61.5t24 61.5t63 24.5z" />
    <glyph glyph-name="uni0308" unicode="&#x308;" horiz-adv-x="0" 
d="M-308 795q32 0 53 -22t21 -54q0 -33 -20.5 -54.5t-53.5 -21.5q-32 0 -53.5 22t-21.5 54t21.5 54t53.5 22zM-105 795q33 0 54 -22t21 -54q0 -33 -21 -54.5t-54 -21.5q-32 0 -53.5 22t-21.5 54t22 54t53 22z" />
    <glyph glyph-name="uni030A" unicode="&#x30a;" horiz-adv-x="0" 
d="M-154 864q57 0 90.5 -36t33.5 -93q0 -56 -33.5 -92t-90.5 -36t-91 36t-34 92q0 57 34 93t91 36zM-154 788q-38 0 -38 -53q0 -52 38 -52t38 52q0 53 -38 53z" />
    <glyph glyph-name="uni030B" unicode="&#x30b;" horiz-adv-x="0" 
d="M-126 855l96 -50l-108 -178l-72 34zM-281 855l96 -47l-100 -177l-74 31z" />
    <glyph glyph-name="uni030C" unicode="&#x30c;" horiz-adv-x="0" 
d="M-82 807l52 -56l-123 -138h-91l-122 138l52 56l116 -92z" />
    <glyph glyph-name="uni0312" unicode="&#x312;" horiz-adv-x="0" 
d="M-110 578q-32 0 -52.5 21.5t-20.5 53.5q0 24 23 81l41 96h74l-27 -115q35 -22 35 -62q0 -32 -20.5 -53.5t-52.5 -21.5z" />
    <glyph glyph-name="uni0326" unicode="&#x326;" horiz-adv-x="0" 
d="M-103 -69q32 0 52.5 -21.5t20.5 -53.5q0 -27 -23 -82l-40 -95h-74l26 115q-35 22 -35 62q0 32 20.5 53.5t52.5 21.5z" />
    <glyph glyph-name="uni0327" unicode="&#x327;" horiz-adv-x="0" 
d="M-121 16v-69q91 -12 91 -94q0 -51 -35.5 -81.5t-97.5 -30.5q-57 0 -101 29l34 67q25 -14 56 -14q38 0 38 31q0 35 -80 35l14 127h81z" />
    <glyph glyph-name="uni0328" unicode="&#x328;" horiz-adv-x="0" 
d="M-54 49l24 -49q-100 -44 -100 -103q0 -47 45 -47q22 0 52 8l-9 -94q-33 -7 -62 -7q-58 0 -95.5 31t-37.5 84q0 63 48 104.5t135 72.5z" />
    <glyph glyph-name="uni0374" unicode="&#x374;" horiz-adv-x="287" 
d="M44 416l67 277h132l-103 -277h-96z" />
    <glyph glyph-name="uni0375" unicode="&#x375;" horiz-adv-x="287" 
d="M243 143l-67 -277h-132l103 277h96z" />
    <glyph glyph-name="uni037E" unicode="&#x37e;" horiz-adv-x="223" 
d="M111 504q37 0 61 -25.5t24 -61.5t-24 -61.5t-61 -25.5t-61 26t-24 61t24 61t61 26zM110 157q36 0 59 -24.5t23 -60.5q0 -29 -30 -105l-55 -142h-80l39 173q-40 27 -40 73q0 37 24 61.5t60 24.5z" />
    <glyph glyph-name="anoteleia" unicode="&#x387;" horiz-adv-x="223" 
d="M111 395q37 0 61 -25.5t24 -61.5t-24 -61.5t-61 -25.5t-61 25.5t-24 61.5q0 35 24 61t61 26z" />
    <glyph glyph-name="uni03F6" unicode="&#x3f6;" horiz-adv-x="424" 
d="M177 548q102 0 160.5 -73t58.5 -212q0 -132 -60.5 -205.5t-168.5 -73.5q-92 0 -162 59l66 85q46 -34 86 -34q82 0 90 133h-160v88h160q-4 69 -24 96t-59 27q-46 0 -89 -36l-63 84q68 62 165 62z" />
    <glyph glyph-name="Wgrave" unicode="&#x1e80;" horiz-adv-x="741" 
d="M304 945l191 -120l-38 -74l-210 85zM732 693l-94 -693h-203l-65 538l-71 -538h-199l-91 693h151l55 -574l76 574h162l71 -574l64 574h144z" />
    <glyph glyph-name="wgrave" unicode="&#x1e81;" horiz-adv-x="662" 
d="M274 826l190 -129l-41 -73l-208 94zM656 531l-93 -531h-176l-56 395l-55 -395h-175l-95 531h146l45 -417l66 417h142l62 -417l48 417h141z" />
    <glyph glyph-name="Wacute" unicode="&#x1e82;" horiz-adv-x="741" 
d="M439 946l57 -110l-210 -84l-38 74zM732 693l-94 -693h-203l-65 538l-71 -538h-199l-91 693h151l55 -574l76 574h162l71 -574l64 574h144z" />
    <glyph glyph-name="wacute" unicode="&#x1e83;" horiz-adv-x="662" 
d="M389 826l59 -108l-208 -94l-41 73zM656 531l-93 -531h-176l-56 395l-55 -395h-175l-95 531h146l45 -417l66 417h142l62 -417l48 417h141z" />
    <glyph glyph-name="Wdieresis" unicode="&#x1e84;" horiz-adv-x="741" 
d="M274 921q32 0 53 -22t21 -54q0 -33 -20.5 -54.5t-53.5 -21.5q-32 0 -53.5 22t-21.5 54t21.5 54t53.5 22zM477 921q33 0 54 -22t21 -54q0 -33 -21 -54.5t-54 -21.5q-32 0 -53.5 22t-21.5 54t22 54t53 22zM732 693l-94 -693h-203l-65 538l-71 -538h-199l-91 693h151
l55 -574l76 574h162l71 -574l64 574h144z" />
    <glyph glyph-name="wdieresis" unicode="&#x1e85;" horiz-adv-x="662" 
d="M230 795q32 0 53 -22t21 -54q0 -33 -20.5 -54.5t-53.5 -21.5q-32 0 -53.5 22t-21.5 54t21.5 54t53.5 22zM433 795q33 0 54 -22t21 -54q0 -33 -21 -54.5t-54 -21.5q-32 0 -53.5 22t-21.5 54t22 54t53 22zM656 531l-93 -531h-176l-56 395l-55 -395h-175l-95 531h146
l45 -417l66 417h142l62 -417l48 417h141z" />
    <glyph glyph-name="Ygrave" unicode="&#x1ef2;" horiz-adv-x="520" 
d="M191 945l191 -120l-38 -74l-210 85zM529 693l-190 -432v-261h-158v260l-190 433h165l106 -310l107 310h160z" />
    <glyph glyph-name="ygrave" unicode="&#x1ef3;" horiz-adv-x="458" 
d="M171 826l190 -129l-41 -73l-208 94zM463 531l-144 -531q-55 -206 -269 -221l-16 104q66 10 99 36.5t52 80.5h-55l-135 531h153l78 -435l87 435h150z" />
    <glyph glyph-name="uni2007" unicode="&#x2007;" 
 />
    <glyph glyph-name="uni2008" unicode="&#x2008;" horiz-adv-x="227" 
 />
    <glyph glyph-name="uni200B" unicode="&#x200b;" horiz-adv-x="0" 
 />
    <glyph glyph-name="uni200C" unicode="&#x200c;" horiz-adv-x="0" 
d="M8 750v-900h-16v900h16z" />
    <glyph glyph-name="uni200D" unicode="&#x200d;" horiz-adv-x="0" 
d="M54 815l11 -11l-54 -54l57 -57l-11 -11l-49 49v-881h-16v881l-49 -49l-11 11l57 57l-54 54l11 11l54 -54z" />
    <glyph glyph-name="uni200E" unicode="&#x200e;" horiz-adv-x="0" 
d="M73 822l55 -72l-55 -72l-13 9l43 55h-95v-892h-16v908h111l-43 55z" />
    <glyph glyph-name="uni200F" unicode="&#x200f;" horiz-adv-x="0" 
d="M-73 822l13 -9l-43 -55h111v-908h-16v892h-95l43 -55l-13 -9l-55 72z" />
    <glyph glyph-name="figuredash" unicode="&#x2012;" 
d="M12 274v118h458v-118h-458z" />
    <glyph glyph-name="endash" unicode="&#x2013;" horiz-adv-x="457" 
d="M21 254v118h415v-118h-415z" />
    <glyph glyph-name="emdash" unicode="&#x2014;" horiz-adv-x="696" 
d="M21 254v118h654v-118h-654z" />
    <glyph glyph-name="uni2015" unicode="&#x2015;" horiz-adv-x="457" 
d="M21 254v118h415v-118h-415z" />
    <glyph glyph-name="uni2016" unicode="&#x2016;" horiz-adv-x="534" 
d="M447 810v-915h-142v915h142zM229 810v-915h-142v915h142z" />
    <glyph glyph-name="quoteleft" unicode="&#x2018;" horiz-adv-x="224" 
d="M112 466q-34 0 -54.5 21.5t-20.5 55.5q0 28 27 91l54 130h73l-36 -155q34 -24 34 -66q0 -33 -21.5 -55t-55.5 -22z" />
    <glyph glyph-name="quoteright" unicode="&#x2019;" horiz-adv-x="224" 
d="M112 764q34 0 54.5 -21.5t20.5 -55.5q0 -26 -26 -92l-55 -130h-73l36 155q-34 26 -34 67q0 33 21.5 55t55.5 22z" />
    <glyph glyph-name="quotesinglbase" unicode="&#x201a;" horiz-adv-x="224" 
d="M112 137q34 0 54.5 -21.5t20.5 -55.5q0 -27 -26 -91l-55 -130h-73l36 154q-34 26 -34 67q0 33 21.5 55t55.5 22z" />
    <glyph glyph-name="quotedblleft" unicode="&#x201c;" horiz-adv-x="427" 
d="M315 467q-34 0 -54.5 22t-20.5 56q0 27 27 91l54 130h73l-36 -155q34 -26 34 -67q0 -33 -21.5 -55t-55.5 -22zM112 467q-34 0 -54.5 21.5t-20.5 55.5q0 27 26 91l55 130h73l-36 -154q34 -26 34 -67q0 -33 -21.5 -55t-55.5 -22z" />
    <glyph glyph-name="quotedblright" unicode="&#x201d;" horiz-adv-x="427" 
d="M112 764q34 0 54.5 -21.5t20.5 -55.5q0 -26 -26 -92l-55 -130h-73l36 155q-34 26 -34 67q0 33 21.5 55t55.5 22zM315 764q34 0 54.5 -21.5t20.5 -55.5q0 -27 -26 -91l-55 -130h-73l36 154q-34 26 -34 67q0 33 21.5 55t55.5 22z" />
    <glyph glyph-name="quotedblbase" unicode="&#x201e;" horiz-adv-x="427" 
d="M112 137q34 0 54.5 -21.5t20.5 -55.5q0 -27 -26 -91l-55 -130h-73l36 154q-34 26 -34 67q0 33 21.5 55t55.5 22zM315 137q34 0 54.5 -21.5t20.5 -55.5q0 -27 -26 -91l-55 -130h-73l36 154q-34 26 -34 67q0 33 21.5 55t55.5 22z" />
    <glyph glyph-name="dagger" unicode="&#x2020;" horiz-adv-x="465" 
d="M303 676v-141h141v-122h-141v-413h-141v413h-142v122h142v141h141z" />
    <glyph glyph-name="daggerdbl" unicode="&#x2021;" horiz-adv-x="465" 
d="M445 413h-142v-143h141v-123h-141v-147h-141v147h-142v123h142v143h-141v122h141v141h141v-141h142v-122z" />
    <glyph glyph-name="bullet" unicode="&#x2022;" horiz-adv-x="324" 
d="M162 475q57 0 93.5 -38t36.5 -95t-36.5 -95t-93.5 -38t-93.5 38t-36.5 95t36.5 95t93.5 38z" />
    <glyph glyph-name="ellipsis" unicode="&#x2026;" horiz-adv-x="671" 
d="M335 157q37 0 61.5 -26t24.5 -61q0 -36 -24.5 -61.5t-61.5 -25.5t-61 25.5t-24 61.5q0 35 24 61t61 26zM560 157q37 0 61 -26t24 -61q0 -36 -24 -61.5t-61 -25.5t-61 25.5t-24 61.5t24 61.5t61 25.5zM111 157q37 0 61 -25.5t24 -61.5t-24 -61.5t-61 -25.5t-61 25.5
t-24 61.5q0 35 24 61t61 26z" />
    <glyph glyph-name="perthousand" unicode="&#x2030;" horiz-adv-x="1096" 
d="M536 718l90 -51l-401 -705l-89 51zM185 689q68 0 111.5 -46.5t43.5 -131.5q0 -86 -43.5 -133t-111.5 -47t-112 47t-44 132q0 86 44 132.5t112 46.5zM185 602q-53 0 -53 -92q0 -91 53 -91q28 0 39.5 22.5t11.5 69.5q0 91 -51 91zM574 341q69 0 112.5 -46.5t43.5 -132.5
t-43.5 -132.5t-112.5 -46.5q-68 0 -112 46.5t-44 131.5q0 86 44 133t112 47zM912 341q68 0 112 -47t44 -132q0 -86 -44 -132.5t-112 -46.5t-112.5 46.5t-44.5 131.5q0 86 44.5 133t112.5 47zM574 253q-29 0 -40.5 -22.5t-11.5 -69.5q0 -46 11.5 -68t40.5 -22t40.5 22
t11.5 69q0 46 -11.5 68.5t-40.5 22.5zM912 253q-29 0 -41 -22.5t-12 -69.5q0 -45 12 -67.5t41 -22.5t40 22t11 69t-11 69t-40 22z" />
    <glyph glyph-name="guilsinglleft" unicode="&#x2039;" horiz-adv-x="326" 
d="M199 553l94 -61l-114 -207l114 -207l-94 -62l-166 220v96z" />
    <glyph glyph-name="guilsinglright" unicode="&#x203a;" horiz-adv-x="326" 
d="M127 553l166 -221v-96l-166 -220l-94 62l114 207l-114 207z" />
    <glyph glyph-name="uni203F" unicode="&#x203f;" horiz-adv-x="589" 
d="M589 -97q-62 -58 -132 -92t-162 -34q-93 0 -163 34t-132 93l49 63q107 -72 246 -72q135 0 245 72z" />
    <glyph glyph-name="fraction" unicode="&#x2044;" horiz-adv-x="153" 
d="M209 758l88 -39l-353 -803l-88 38z" />
    <glyph glyph-name="uni204A" unicode="&#x204a;" horiz-adv-x="474" 
d="M428 531v-106l-215 -639l-136 42l199 585h-247v118h399z" />
    <glyph glyph-name="uni2070" unicode="&#x2070;" horiz-adv-x="344" 
d="M172 752q153 0 153 -221q0 -222 -153 -222q-154 0 -154 222q0 221 154 221zM172 669q-24 0 -33 -27.5t-9 -110.5q0 -84 9 -111t33 -27q23 0 33 27.5t10 110.5t-10 110.5t-33 27.5z" />
    <glyph glyph-name="uni2074" unicode="&#x2074;" horiz-adv-x="344" 
d="M326 488v-82h-39v-85h-101v85h-169v76l102 270l92 -35l-85 -229h62l22 98h77v-98h39z" />
    <glyph glyph-name="uni2075" unicode="&#x2075;" horiz-adv-x="344" 
d="M299 742l-12 -76h-139v-81q32 16 61 16q48 0 79.5 -37.5t31.5 -102.5q0 -68 -43.5 -110t-114.5 -42q-84 0 -138 68l60 54q32 -37 68 -37q54 0 54 67q0 65 -42 65q-20 0 -43 -15h-72v231h250z" />
    <glyph glyph-name="uni2076" unicode="&#x2076;" horiz-adv-x="345" 
d="M215 604q49 0 79 -36.5t30 -102.5q0 -70 -39 -113t-110 -43q-155 0 -155 201q0 115 48 178.5t132 63.5q53 0 91 -29l-38 -64q-27 15 -49 15q-60 0 -67 -105q36 35 78 35zM177 389q37 0 37 75q0 38 -8 53t-27 15q-24 0 -42 -24q0 -69 8.5 -94t31.5 -25z" />
    <glyph glyph-name="uni2077" unicode="&#x2077;" horiz-adv-x="344" 
d="M303 742v-75l-139 -358l-96 34l128 319h-155v80h262z" />
    <glyph glyph-name="uni2078" unicode="&#x2078;" horiz-adv-x="344" 
d="M247 546q82 -39 82 -111q0 -53 -42 -89.5t-117 -36.5q-72 0 -113.5 36.5t-41.5 86.5q0 72 77 104q-62 37 -62 100q0 51 38.5 83.5t103.5 32.5t104 -30.5t39 -79.5q0 -61 -68 -96zM172 680q-37 0 -37 -44q0 -23 8 -34.5t28 -20.5l11 -5q27 21 27 61q0 43 -37 43zM173 387
q48 0 48 49q0 23 -10.5 36t-38.5 25l-19 8q-29 -22 -29 -66q0 -52 49 -52z" />
    <glyph glyph-name="uni2079" unicode="&#x2079;" horiz-adv-x="344" 
d="M171 752q75 0 115 -44.5t40 -119.5q0 -126 -62 -192.5t-197 -94.5l-23 76q78 21 116 49t50 80q-36 -39 -81 -39q-47 0 -79 36.5t-32 100.5q0 66 43.5 107t109.5 41zM167 539q28 0 45 32q0 61 -8.5 82.5t-32.5 21.5q-42 0 -42 -68t38 -68z" />
    <glyph glyph-name="uni207A" unicode="&#x207a;" horiz-adv-x="345" 
d="M218 647v-86h81v-84h-81v-85h-92v85h-80v84h80v86h92z" />
    <glyph glyph-name="uni207B" unicode="&#x207b;" horiz-adv-x="344" 
d="M46 477v84h252v-84h-252z" />
    <glyph glyph-name="uni207C" unicode="&#x207c;" horiz-adv-x="344" 
d="M46 544v81h252v-81h-252zM46 412v81h252v-81h-252z" />
    <glyph glyph-name="uni207D" unicode="&#x207d;" horiz-adv-x="344" 
d="M191 799l66 -41q-67 -131 -67 -287t67 -287l-66 -41q-34 55 -53 92.5t-35.5 101.5t-16.5 134t16.5 134t35.5 101.5t53 92.5z" />
    <glyph glyph-name="uni207E" unicode="&#x207e;" horiz-adv-x="344" 
d="M151 799q34 -56 53 -93t36 -101t17 -134t-17 -134t-36 -101t-53 -93l-65 41q66 129 66 287t-66 287z" />
    <glyph glyph-name="uni2080" unicode="&#x2080;" horiz-adv-x="344" 
d="M172 226q153 0 153 -221q0 -222 -153 -222q-154 0 -154 222q0 221 154 221zM172 143q-24 0 -33 -27.5t-9 -110.5q0 -84 9 -111t33 -27q23 0 33 27.5t10 110.5t-10 110.5t-33 27.5z" />
    <glyph glyph-name="uni2081" unicode="&#x2081;" horiz-adv-x="344" 
d="M263 216v-421h-108v315l-79 -53l-48 70l136 89h99z" />
    <glyph glyph-name="uni2082" unicode="&#x2082;" horiz-adv-x="344" 
d="M169 225q65 0 102.5 -36t37.5 -88q0 -48 -29 -92.5t-120 -128.5h156l-11 -85h-262v79q96 103 124.5 143t28.5 76q0 47 -42 47q-33 0 -66 -39l-61 48q52 76 142 76z" />
    <glyph glyph-name="uni2083" unicode="&#x2083;" horiz-adv-x="344" 
d="M171 226q64 0 100 -32t36 -79q0 -77 -89 -98q102 -7 102 -102q0 -56 -40.5 -94t-114.5 -38q-91 0 -141 67l57 54q37 -36 74 -36q24 0 38.5 14.5t14.5 41.5q0 53 -62 53h-28l13 75h17q54 0 54 47q0 45 -46 45q-38 0 -73 -33l-53 55q58 60 141 60z" />
    <glyph glyph-name="uni2084" unicode="&#x2084;" horiz-adv-x="344" 
d="M326 -38v-82h-39v-85h-101v85h-169v76l102 270l92 -35l-85 -229h62l22 98h77v-98h39z" />
    <glyph glyph-name="uni2085" unicode="&#x2085;" horiz-adv-x="344" 
d="M299 216l-12 -76h-139v-81q32 16 61 16q48 0 79.5 -37.5t31.5 -102.5q0 -68 -43.5 -110t-114.5 -42q-84 0 -138 68l60 54q32 -37 68 -37q54 0 54 67q0 65 -42 65q-20 0 -43 -15h-72v231h250z" />
    <glyph glyph-name="uni2086" unicode="&#x2086;" horiz-adv-x="345" 
d="M215 78q49 0 79 -36.5t30 -102.5q0 -70 -39 -113t-110 -43q-155 0 -155 201q0 115 48 178.5t132 63.5q53 0 91 -29l-38 -64q-27 15 -49 15q-60 0 -67 -105q36 35 78 35zM177 -137q37 0 37 75q0 38 -8 53t-27 15q-24 0 -42 -24q0 -69 8.5 -94t31.5 -25z" />
    <glyph glyph-name="uni2087" unicode="&#x2087;" horiz-adv-x="344" 
d="M303 216v-75l-139 -358l-96 34l128 319h-155v80h262z" />
    <glyph glyph-name="uni2088" unicode="&#x2088;" horiz-adv-x="344" 
d="M247 20q82 -39 82 -111q0 -53 -42 -89.5t-117 -36.5q-72 0 -113.5 36.5t-41.5 86.5q0 72 77 104q-62 37 -62 100q0 51 38.5 83.5t103.5 32.5t104 -30.5t39 -79.5q0 -61 -68 -96zM172 154q-37 0 -37 -44q0 -23 8 -34.5t28 -20.5l11 -5q27 21 27 61q0 43 -37 43zM173 -139
q48 0 48 49q0 23 -10.5 36t-38.5 25l-19 8q-29 -22 -29 -66q0 -52 49 -52z" />
    <glyph glyph-name="uni2089" unicode="&#x2089;" horiz-adv-x="344" 
d="M171 226q75 0 115 -44.5t40 -119.5q0 -126 -62 -192.5t-197 -94.5l-23 76q78 21 116 49t50 80q-36 -39 -81 -39q-47 0 -79 36.5t-32 100.5q0 66 43.5 107t109.5 41zM167 13q28 0 45 32q0 61 -8.5 82.5t-32.5 21.5q-42 0 -42 -68t38 -68z" />
    <glyph glyph-name="uni208A" unicode="&#x208a;" horiz-adv-x="345" 
d="M218 125v-86h81v-84h-81v-85h-92v85h-80v84h80v86h92z" />
    <glyph glyph-name="uni208B" unicode="&#x208b;" horiz-adv-x="344" 
d="M46 -45v84h252v-84h-252z" />
    <glyph glyph-name="uni208C" unicode="&#x208c;" horiz-adv-x="344" 
d="M46 22v81h252v-81h-252zM46 -110v81h252v-81h-252z" />
    <glyph glyph-name="uni208D" unicode="&#x208d;" horiz-adv-x="344" 
d="M191 315l66 -41q-67 -131 -67 -287t67 -287l-66 -41q-34 55 -53 92.5t-35.5 101.5t-16.5 134t16.5 134t35.5 101.5t53 92.5z" />
    <glyph glyph-name="uni208E" unicode="&#x208e;" horiz-adv-x="344" 
d="M151 315q34 -56 53 -93t36 -101t17 -134t-17 -134t-36 -101t-53 -93l-65 41q66 129 66 287t-66 287z" />
    <glyph glyph-name="Euro" unicode="&#x20ac;" horiz-adv-x="513" 
d="M353 93q59 0 125 40v-113q-69 -37 -143 -37q-102 0 -168.5 60.5t-88.5 177.5h-72l19 80h50v73h-69l19 80h54q26 113 96 174t167 61q93 0 166 -57l-52 -90q-52 38 -106 38q-95 0 -120 -126h207l-19 -80h-193v-73h180l-19 -80h-157q11 -69 42 -98.5t82 -29.5z" />
    <glyph glyph-name="uni20AF" unicode="&#x20af;" horiz-adv-x="1128" 
d="M293 679q70 0 123 -14t100.5 -49t73 -104t25.5 -169q0 -99 -24 -168.5t-69 -106t-98 -52.5t-121 -16h-201v109q47 15 59.5 40t12.5 79v280l143 -1v-268q0 -49 -13 -75t-54 -51l63 1q74 0 107 49t33 180q0 130 -34 177t-106 47h-128h-24q-38 0 -38 -44q0 -23 13 -66
l-94 -43q-39 66 -39 119q0 68 45.5 107t121.5 39h15h108zM871 548q224 0 224 -281q0 -123 -50.5 -203.5t-131.5 -80.5q-70 0 -109 55v-243l-151 -16v505q0 264 218 264zM869 94q71 0 71 171q0 100 -17 136.5t-51 36.5q-38 0 -53 -36t-15 -125v-139q27 -44 65 -44z" />
    <glyph glyph-name="uni20B9" unicode="&#x20b9;" horiz-adv-x="468" 
d="M449 676v-79h-128q49 -25 68 -84h60v-80h-52q-4 -115 -109 -166l148 -267h-161l-125 244h-112v88h107q47 0 71.5 22.5t29.5 78.5h-208v80h204q-17 75 -100 75h-104v88h411z" />
    <glyph glyph-name="uni20BA" unicode="&#x20ba;" horiz-adv-x="509" 
d="M406 228l102 -34q-45 -194 -257 -194h-153v184l-47 -24l-30 70l77 40v63l-46 -24l-31 71l77 40v256h148v-180l115 60l30 -70l-145 -76v-63l114 59l31 -70l-145 -75v-145h29q95 0 131 112z" />
    <glyph glyph-name="uni20BD" unicode="&#x20bd;" horiz-adv-x="519" 
d="M235 250v-62h135v-79h-135v-109h-150v109h-57v79h57v62h-57v92h57v334h166q121 0 187.5 -54.5t66.5 -160.5q0 -107 -65 -159t-182 -52h-23zM255 571h-20v-229h23q48 0 71.5 26.5t23.5 91.5q0 60 -23 85.5t-75 25.5z" />
    <glyph glyph-name="uni2113" unicode="&#x2113;" horiz-adv-x="421" 
d="M269 103q13 0 21 4l27 -106q-38 -18 -88 -18q-133 0 -133 146v89l-53 -38l-32 47l85 65v268q0 101 48.5 149.5t126.5 48.5q68 0 103.5 -35.5t35.5 -100.5q0 -138 -163 -285v-206q0 -28 22 -28zM283 684q-36 0 -36 -66v-185q71 92 70 192q0 59 -34 59z" />
    <glyph glyph-name="uni2116" unicode="&#x2116;" horiz-adv-x="980" 
d="M522 693v-693h-194l-162 549q21 -176 21 -283v-266h-136v693h193l163 -550q-21 142 -21 259v291h136zM760 693q89 0 139 -54t50 -160q0 -103 -49.5 -158.5t-138.5 -55.5q-88 0 -138 54t-50 161q0 102 50 157.5t137 55.5zM761 597q-28 0 -40.5 -25t-12.5 -92
q0 -69 12.5 -94t40.5 -25t40.5 25.5t12.5 92.5q0 68 -12.5 93t-40.5 25zM574 0v114h373v-114h-373z" />
    <glyph glyph-name="trademark" unicode="&#x2122;" horiz-adv-x="784" 
d="M333 693l-15 -87h-91v-310h-108v310h-95v87h309zM731 693l12 -397h-103l-3 166q-1 71 7 144h-2l-57 -269h-83l-61 268h-3q7 -58 7 -143l-3 -166h-99l13 397h137l50 -254l46 254h142z" />
    <glyph glyph-name="uni2126" unicode="&#x2126;" horiz-adv-x="593" 
d="M297 710q128 0 200.5 -91.5t72.5 -242.5q0 -98 -30.5 -160.5t-93.5 -102.5h106v-113h-226v108q51 26 66 84.5t15 183.5q0 117 -26.5 168t-83.5 51t-83.5 -51t-26.5 -169q0 -127 15 -183.5t66 -83.5v-108h-227v113h105q-123 75 -123 262q0 149 73 242t201 93z" />
    <glyph glyph-name="estimated" unicode="&#x212e;" horiz-adv-x="946" 
d="M472 716q165 0 284 -107t119 -270h-656l-1 -220q30 -45 104 -70.5t151 -25.5q76 0 148.5 26t113.5 73h56q-119 -138 -319 -138q-172 0 -286.5 103t-114.5 260q0 156 117 262.5t284 106.5zM473 677q-173 0 -255 -100l1 -199h508v199q-93 100 -254 100z" />
    <glyph glyph-name="uni2153" unicode="&#x2153;" horiz-adv-x="841" 
d="M553 758l88 -39l-353 -803l-88 38zM263 693v-421h-108v315l-79 -53l-48 70l136 89h99zM668 431q64 0 100 -32t36 -79q0 -77 -89 -98q102 -7 102 -102q0 -56 -40.5 -94t-114.5 -38q-91 0 -141 67l57 54q37 -36 74 -36q24 0 38.5 14.5t14.5 41.5q0 53 -62 53h-28l13 75h17
q54 0 54 47q0 45 -46 45q-38 0 -73 -33l-53 55q59 60 141 60z" />
    <glyph glyph-name="uni2154" unicode="&#x2154;" horiz-adv-x="841" 
d="M553 758l88 -39l-353 -803l-88 38zM169 705q65 0 102.5 -36t37.5 -88q0 -48 -29 -92.5t-120 -128.5h156l-11 -85h-262v79q96 103 124.5 143t28.5 76q0 47 -42 47q-33 0 -66 -39l-61 48q52 76 142 76zM668 431q64 0 100 -32t36 -79q0 -77 -89 -98q102 -7 102 -102
q0 -56 -40.5 -94t-114.5 -38q-91 0 -141 67l57 54q37 -36 74 -36q24 0 38.5 14.5t14.5 41.5q0 53 -62 53h-28l13 75h17q54 0 54 47q0 45 -46 45q-38 0 -73 -33l-53 55q59 60 141 60z" />
    <glyph glyph-name="uni2155" unicode="&#x2155;" horiz-adv-x="841" 
d="M553 758l88 -39l-353 -803l-88 38zM263 693v-421h-108v315l-79 -53l-48 70l136 89h99zM796 421l-12 -76h-139v-81q32 16 61 16q48 0 79.5 -37.5t31.5 -102.5q0 -68 -43.5 -110t-114.5 -42q-84 0 -138 68l60 54q32 -37 68 -37q54 0 54 67q0 65 -42 65q-20 0 -43 -15h-72
v231h250z" />
    <glyph glyph-name="uni2156" unicode="&#x2156;" horiz-adv-x="841" 
d="M553 758l88 -39l-353 -803l-88 38zM169 705q65 0 102.5 -36t37.5 -88q0 -48 -29 -92.5t-120 -128.5h156l-11 -85h-262v79q96 103 124.5 143t28.5 76q0 47 -42 47q-33 0 -66 -39l-61 48q52 76 142 76zM796 421l-12 -76h-139v-81q32 16 61 16q48 0 79.5 -37.5t31.5 -102.5
q0 -68 -43.5 -110t-114.5 -42q-84 0 -138 68l60 54q32 -37 68 -37q54 0 54 67q0 65 -42 65q-20 0 -43 -15h-72v231h250z" />
    <glyph glyph-name="uni2157" unicode="&#x2157;" horiz-adv-x="841" 
d="M553 758l88 -39l-353 -803l-88 38zM171 703q64 0 100 -32t36 -79q0 -77 -89 -98q102 -7 102 -102q0 -56 -40.5 -94t-114.5 -38q-91 0 -141 67l57 54q37 -36 74 -36q24 0 38.5 14.5t14.5 41.5q0 53 -62 53h-28l13 75h17q54 0 54 47q0 45 -46 45q-38 0 -73 -33l-53 55
q58 60 141 60zM796 421l-12 -76h-139v-81q32 16 61 16q48 0 79.5 -37.5t31.5 -102.5q0 -68 -43.5 -110t-114.5 -42q-84 0 -138 68l60 54q32 -37 68 -37q54 0 54 67q0 65 -42 65q-20 0 -43 -15h-72v231h250z" />
    <glyph glyph-name="uni2158" unicode="&#x2158;" horiz-adv-x="841" 
d="M553 758l88 -39l-353 -803l-88 38zM287 272h-101v85h-169v76l102 270l92 -35l-85 -229h62l22 98h77v-98h39v-82h-39v-85zM706 280q48 0 79.5 -37.5t31.5 -102.5q0 -68 -43.5 -110t-114.5 -42q-84 0 -138 68l60 54q32 -37 68 -37q54 0 54 67q0 65 -42 65q-20 0 -43 -15
h-72v231h250l-12 -76h-139v-81q32 16 61 16z" />
    <glyph glyph-name="uni2159" unicode="&#x2159;" horiz-adv-x="842" 
d="M553 758l88 -39l-353 -803l-88 38zM263 272h-108v315l-79 -53l-48 70l136 89h99v-421zM712 283q49 0 79 -36.5t30 -102.5q0 -70 -39 -113t-110 -43q-155 0 -155 201q0 115 48 178.5t132 63.5q53 0 91 -29l-38 -64q-27 15 -49 15q-60 0 -67 -105q36 35 78 35zM674 68
q37 0 37 75q0 38 -8 53t-27 15q-24 0 -42 -24q0 -69 8.5 -94t31.5 -25z" />
    <glyph glyph-name="uni215A" unicode="&#x215a;" horiz-adv-x="842" 
d="M553 758l88 -39l-353 -803l-88 38zM320 412q0 -68 -43.5 -110t-114.5 -42q-84 0 -138 68l60 54q32 -37 68 -37q54 0 54 67q0 65 -42 65q-20 0 -43 -15h-72v231h250l-12 -76h-139v-81q32 16 61 16q48 0 79.5 -37.5t31.5 -102.5zM712 283q49 0 79 -36.5t30 -102.5
q0 -70 -39 -113t-110 -43q-155 0 -155 201q0 115 48 178.5t132 63.5q53 0 91 -29l-38 -64q-27 15 -49 15q-60 0 -67 -105q36 35 78 35zM674 68q37 0 37 75q0 38 -8 53t-27 15q-24 0 -42 -24q0 -69 8.5 -94t31.5 -25z" />
    <glyph glyph-name="oneeighth" unicode="&#x215b;" horiz-adv-x="841" 
d="M553 758l88 -39l-353 -803l-88 38zM263 272h-108v315l-79 -53l-48 70l136 89h99v-421zM744 225q82 -39 82 -111q0 -53 -42 -89.5t-117 -36.5q-72 0 -113.5 36.5t-41.5 86.5q0 72 77 104q-62 37 -62 100q0 51 38.5 83.5t103.5 32.5t104 -30.5t39 -79.5q0 -61 -68 -96z
M669 359q-37 0 -37 -44q0 -23 8 -34.5t28 -20.5l11 -5q27 21 27 61q0 43 -37 43zM670 66q48 0 48 49q0 23 -10.5 36t-38.5 25l-19 8q-29 -22 -29 -66q0 -52 49 -52z" />
    <glyph glyph-name="threeeighths" unicode="&#x215c;" horiz-adv-x="841" 
d="M553 758l88 -39l-353 -803l-88 38zM320 392q0 -56 -40.5 -94t-114.5 -38q-91 0 -141 67l57 54q37 -36 74 -36q24 0 38.5 14.5t14.5 41.5q0 53 -62 53h-28l13 75h17q54 0 54 47q0 45 -46 45q-38 0 -73 -33l-53 55q58 60 141 60q64 0 100 -32t36 -79q0 -77 -89 -98
q102 -7 102 -102zM744 225q82 -39 82 -111q0 -53 -42 -89.5t-117 -36.5q-72 0 -113.5 36.5t-41.5 86.5q0 72 77 104q-62 37 -62 100q0 51 38.5 83.5t103.5 32.5t104 -30.5t39 -79.5q0 -61 -68 -96zM669 359q-37 0 -37 -44q0 -23 8 -34.5t28 -20.5l11 -5q27 21 27 61
q0 43 -37 43zM670 66q48 0 48 49q0 23 -10.5 36t-38.5 25l-19 8q-29 -22 -29 -66q0 -52 49 -52z" />
    <glyph glyph-name="fiveeighths" unicode="&#x215d;" horiz-adv-x="841" 
d="M553 758l88 -39l-353 -803l-88 38zM320 412q0 -68 -43.5 -110t-114.5 -42q-84 0 -138 68l60 54q32 -37 68 -37q54 0 54 67q0 65 -42 65q-20 0 -43 -15h-72v231h250l-12 -76h-139v-81q32 16 61 16q48 0 79.5 -37.5t31.5 -102.5zM744 225q82 -39 82 -111q0 -53 -42 -89.5
t-117 -36.5q-72 0 -113.5 36.5t-41.5 86.5q0 72 77 104q-62 37 -62 100q0 51 38.5 83.5t103.5 32.5t104 -30.5t39 -79.5q0 -61 -68 -96zM669 359q-37 0 -37 -44q0 -23 8 -34.5t28 -20.5l11 -5q27 21 27 61q0 43 -37 43zM670 66q48 0 48 49q0 23 -10.5 36t-38.5 25l-19 8
q-29 -22 -29 -66q0 -52 49 -52z" />
    <glyph glyph-name="seveneighths" unicode="&#x215e;" horiz-adv-x="785" 
d="M497 758l88 -39l-353 -803l-88 38zM164 260l-96 34l128 319h-155v80h262v-75zM688 225q82 -39 82 -111q0 -53 -42 -89.5t-117 -36.5q-71 0 -112.5 36.5t-41.5 86.5q0 73 76 104q-61 37 -61 100q0 51 38.5 83.5t103.5 32.5t103.5 -30.5t38.5 -79.5q0 -61 -68 -96zM614 359
q-38 0 -38 -44q0 -23 8 -34.5t29 -20.5l10 -5q28 21 28 61q0 43 -37 43zM615 66q48 0 48 49q0 23 -10.5 36t-39.5 25l-18 8q-30 -23 -30 -66q0 -52 50 -52z" />
    <glyph glyph-name="uni215F" unicode="&#x215f;" horiz-adv-x="497" 
d="M553 758l88 -39l-353 -803l-88 38zM263 693v-421h-108v315l-79 -53l-48 70l136 89h99z" />
    <glyph glyph-name="arrowleft" unicode="&#x2190;" horiz-adv-x="900" 
d="M379 662l103 -87l-94 -103q-49 -51 -97 -80h513v-126h-514q51 -29 98 -80l94 -103l-103 -87l-300 333z" />
    <glyph glyph-name="arrowup" unicode="&#x2191;" horiz-adv-x="900" 
d="M379 0v499q-24 -49 -75 -96l-106 -97l-87 91l339 307l339 -307l-87 -91l-106 97q-51 47 -75 96v-499h-142z" />
    <glyph glyph-name="arrowright" unicode="&#x2192;" horiz-adv-x="900" 
d="M521 662l300 -333l-300 -333l-103 87l94 103q47 51 98 80h-514v126h513q-48 29 -97 80l-94 103z" />
    <glyph glyph-name="arrowdown" unicode="&#x2193;" horiz-adv-x="900" 
d="M521 654v-500q24 49 75 96l106 97l87 -91l-339 -306l-339 306l87 91l106 -97q51 -47 75 -96v500h142z" />
    <glyph glyph-name="uni21E6" unicode="&#x21e6;" horiz-adv-x="960" 
d="M920 239q0 -23 -14 -36.5t-36 -13.5h-532v-176l-298 300l298 300v-176h532q22 0 36 -13.5t14 -36.5v-148zM876 393h-583v111l-189 -191l189 -191v111h583v160z" />
    <glyph glyph-name="uni21E7" unicode="&#x21e7;" horiz-adv-x="720" 
d="M279 -12q-23 0 -36.5 14t-13.5 36v496h-169l300 298l300 -298h-169v-496q0 -22 -13.5 -36t-36.5 -14h-162zM444 32v547h107l-191 189l-191 -189h107v-547h168z" />
    <glyph glyph-name="uni21E8" unicode="&#x21e8;" horiz-adv-x="960" 
d="M40 239v148q0 23 14 36.5t36 13.5h532v176l298 -300l-298 -300v176h-532q-22 0 -36 13.5t-14 36.5zM84 393v-160h583v-111l189 191l-189 191v-111h-583z" />
    <glyph glyph-name="uni21E9" unicode="&#x21e9;" horiz-adv-x="720" 
d="M441 750q23 0 36.5 -14t13.5 -36v-496h169l-300 -298l-300 298h169v496q0 22 13.5 36t36.5 14h162zM276 706v-547h-107l191 -189l191 189h-107v547h-168z" />
    <glyph glyph-name="uni21EA" unicode="&#x21ea;" horiz-adv-x="720" 
d="M229 255v279h-169l300 298l300 -298h-169v-279h-262zM444 297v282h107l-191 189l-191 -189h107v-282h168zM491 155v-117q0 -22 -13.5 -36t-36.5 -14h-162q-23 0 -36.5 14t-13.5 36v117h262zM276 113v-81h168v81h-168z" />
    <glyph glyph-name="partialdiff" unicode="&#x2202;" horiz-adv-x="478" 
d="M100 710q187 -45 269.5 -151t82.5 -297q0 -126 -57.5 -202.5t-163.5 -76.5q-95 0 -154.5 63t-59.5 173q0 99 48 161.5t118 62.5q72 0 117 -71q-18 99 -71.5 151t-161.5 84zM232 90q37 0 53.5 38.5t16.5 134.5q-32 70 -74 70q-60 0 -60 -119q0 -124 64 -124z" />
    <glyph glyph-name="emptyset" unicode="&#x2205;" horiz-adv-x="900" 
d="M695 623q57 -51 89 -122t32 -152q0 -153 -106 -259t-259 -106q-101 0 -189 51l-35 -47h-107l73 100q-109 106 -109 261q0 153 107 260t260 107q92 0 173 -43l29 39h107zM178 349q0 -109 71 -186l321 436q-54 27 -119 27q-114 0 -193.5 -81t-79.5 -196zM451 74
q114 0 193 80t79 195q0 120 -83 200l-324 -440q61 -35 135 -35z" />
    <glyph glyph-name="uni2206" unicode="&#x2206;" horiz-adv-x="531" 
d="M360 693l181 -693h-551l182 693h188zM264 577l-92 -462h184z" />
    <glyph glyph-name="product" unicode="&#x220f;" horiz-adv-x="523" 
d="M502 562h-54v-767l-138 -15v782h-96v-767l-138 -15v782h-56v114h482v-114z" />
    <glyph glyph-name="summation" unicode="&#x2211;" horiz-adv-x="452" 
d="M429 676v-114h-248l144 -194v-57l-144 -197h248v-114h-406v109l170 228l-170 230v109h406z" />
    <glyph glyph-name="minus" unicode="&#x2212;" horiz-adv-x="450" 
d="M38 275v114h374v-114h-374z" />
    <glyph glyph-name="uni2215" unicode="&#x2215;" horiz-adv-x="153" 
d="M209 758l88 -39l-353 -803l-88 38z" />
    <glyph glyph-name="uni2219" unicode="&#x2219;" horiz-adv-x="223" 
d="M111 395q37 0 61 -25.5t24 -61.5t-24 -61.5t-61 -25.5t-61 25.5t-24 61.5q0 35 24 61t61 26z" />
    <glyph glyph-name="radical" unicode="&#x221a;" 
d="M665 878v-115h-162l-179 -763h-174l-145 461l138 35l88 -361l157 743h277z" />
    <glyph glyph-name="infinity" unicode="&#x221e;" horiz-adv-x="772" 
d="M565 541q87 0 134 -65.5t47 -159.5q0 -96 -46.5 -160.5t-141.5 -64.5q-112 0 -179 114q-39 -59 -79 -86.5t-92 -27.5q-90 0 -136 65.5t-46 160.5t47 159.5t139 64.5q115 0 180 -117q39 61 79.5 89t93.5 28zM236 207q30 0 52.5 27t48.5 84q-38 109 -98 109q-67 0 -67 -110
t64 -110zM534 206q32 0 49 28.5t17 81.5q0 110 -65 110q-30 0 -52 -28t-50 -89q46 -103 101 -103z" />
    <glyph glyph-name="integral" unicode="&#x222b;" horiz-adv-x="345" 
d="M271 861q73 0 136 -34l-41 -94q-36 16 -70 16q-49 0 -49 -71v-712q0 -93 -50 -139.5t-129 -46.5q-74 0 -130 33l41 95q38 -17 66 -17q52 0 52 69v712q0 92 43.5 140.5t130.5 48.5z" />
    <glyph glyph-name="approxequal" unicode="&#x2248;" horiz-adv-x="458" 
d="M303 343q-41 0 -87 28.5t-64 28.5q-20 0 -33 -12.5t-28 -37.5l-76 39q26 55 59.5 88t82.5 33q40 0 85 -28.5t63 -28.5q19 0 32 11.5t29 35.5l76 -39q-55 -118 -139 -118zM303 137q-41 0 -87 28.5t-64 28.5q-20 0 -33 -12.5t-28 -37.5l-76 40q58 120 142 120
q40 0 85 -28.5t63 -28.5q19 0 32 11.5t29 35.5l76 -39q-55 -118 -139 -118z" />
    <glyph glyph-name="notequal" unicode="&#x2260;" horiz-adv-x="450" 
d="M412 378h-113l-50 -94h163v-114h-223l-69 -132l-75 39l49 93h-56v114h116l50 94h-166v114h226l67 128l75 -39l-47 -89h53v-114z" />
    <glyph glyph-name="lessequal" unicode="&#x2264;" horiz-adv-x="451" 
d="M376 641l50 -102l-280 -133l280 -130l-50 -106l-351 172v127zM38 0v114h373v-114h-373z" />
    <glyph glyph-name="greaterequal" unicode="&#x2265;" horiz-adv-x="451" 
d="M75 641l351 -172v-127l-351 -172l-50 106l279 130l-279 133zM39 0v114h373v-114h-373z" />
    <glyph glyph-name="dotmath" unicode="&#x22c5;" horiz-adv-x="223" 
d="M111 395q37 0 61 -25.5t24 -61.5t-24 -61.5t-61 -25.5t-61 25.5t-24 61.5q0 35 24 61t61 26z" />
    <glyph glyph-name="uni2326" unicode="&#x2326;" horiz-adv-x="1447" 
d="M150 -12q-22 0 -36 14t-14 36v625q0 23 14 36.5t36 13.5h830l380 -361l-380 -364h-830zM349 201l67 -67l154 154l154 -154l67 67l-154 154l154 153l-67 69l-154 -155l-154 155l-67 -69l154 -153z" />
    <glyph glyph-name="uni2327" unicode="&#x2327;" horiz-adv-x="1240" 
d="M150 -12q-22 0 -36 14t-14 36v625q0 23 14 36.5t36 13.5h940q22 0 36 -13.5t14 -36.5v-625q0 -22 -14 -36t-36 -14h-940zM399 201l67 -67l154 154l154 -154l67 67l-154 154l154 153l-67 69l-154 -155l-154 155l-67 -69l154 -153z" />
    <glyph glyph-name="uni2328" unicode="&#x2328;" horiz-adv-x="1460" 
d="M170 -12q-22 0 -36 14t-14 36v625q0 23 14 36.5t36 13.5h1120q22 0 36 -13.5t14 -36.5v-625q0 -22 -14 -36t-36 -14h-1120zM205 658q-8 0 -14 -6t-6 -14v-74q0 -8 6 -14t14 -6h74q8 0 14 6t6 14v74q0 8 -6 14t-14 6h-74zM385 658q-8 0 -14 -6t-6 -14v-74q0 -8 6 -14
t14 -6h74q8 0 14 6t6 14v74q0 8 -6 14t-14 6h-74zM565 658q-8 0 -14 -6t-6 -14v-74q0 -8 6 -14t14 -6h74q8 0 14 6t6 14v74q0 8 -6 14t-14 6h-74zM745 658q-8 0 -14 -6t-6 -14v-74q0 -8 6 -14t14 -6h74q8 0 14 6t6 14v74q0 8 -6 14t-14 6h-74zM925 658q-8 0 -14 -6t-6 -14
v-74q0 -8 6 -14t14 -6h74q8 0 14 6t6 14v74q0 8 -6 14t-14 6h-74zM1105 658q-8 0 -14 -6t-6 -14v-74q0 -8 6 -14t14 -6h134q8 0 14 6t6 14v74q0 8 -6 14t-14 6h-134zM245 493q-8 0 -14 -6t-6 -14v-74q0 -8 6 -14t14 -6h74q8 0 14 6t6 14v74q0 8 -6 14t-14 6h-74zM425 493
q-8 0 -14 -6t-6 -14v-74q0 -8 6 -14t14 -6h74q8 0 14 6t6 14v74q0 8 -6 14t-14 6h-74zM605 493q-8 0 -14 -6t-6 -14v-74q0 -8 6 -14t14 -6h74q8 0 14 6t6 14v74q0 8 -6 14t-14 6h-74zM785 493q-8 0 -14 -6t-6 -14v-74q0 -8 6 -14t14 -6h74q8 0 14 6t6 14v74q0 8 -6 14t-14 6
h-74zM965 493q-8 0 -14 -6t-6 -14v-74q0 -8 6 -14t14 -6h74q8 0 14 6t6 14v74q0 8 -6 14t-14 6h-74zM1165 229q0 -8 6 -14t14 -6h54q8 0 14 6t6 14v244q0 8 -6 14t-14 6h-94q-8 0 -14 -6t-6 -14v-74q0 -8 6 -14t14 -6t14 -6t6 -14v-130zM285 323q-8 0 -14 -6t-6 -14v-74
q0 -8 6 -14t14 -6h74q8 0 14 6t6 14v74q0 8 -6 14t-14 6h-74zM465 323q-8 0 -14 -6t-6 -14v-74q0 -8 6 -14t14 -6h74q8 0 14 6t6 14v74q0 8 -6 14t-14 6h-74zM645 323q-8 0 -14 -6t-6 -14v-74q0 -8 6 -14t14 -6h74q8 0 14 6t6 14v74q0 8 -6 14t-14 6h-74zM825 323
q-8 0 -14 -6t-6 -14v-74q0 -8 6 -14t14 -6h74q8 0 14 6t6 14v74q0 8 -6 14t-14 6h-74zM1005 323q-8 0 -14 -6t-6 -14v-74q0 -8 6 -14t14 -6h74q8 0 14 6t6 14v74q0 8 -6 14t-14 6h-74zM425 158q-8 0 -14 -6t-6 -14v-74q0 -8 6 -14t14 -6h614q8 0 14 6t6 14v74q0 8 -6 14
t-14 6h-614z" />
    <glyph glyph-name="uni232B" unicode="&#x232b;" horiz-adv-x="1460" 
d="M480 -12l-380 364l380 361h830q22 0 36 -13.5t14 -36.5v-625q0 -22 -14 -36t-36 -14h-830zM669 201l67 -67l154 154l154 -154l67 67l-154 154l154 153l-67 69l-154 -155l-154 155l-67 -69l154 -153z" />
    <glyph glyph-name="uni23CE" unicode="&#x23ce;" horiz-adv-x="1000" 
d="M631 700q0 22 13.5 36t36.5 14h159q22 0 36 -14t14 -36v-461q0 -23 -14 -36.5t-36 -13.5h-512v-174l-298 298l298 299v-174h303v262zM844 706h-168v-313h-393v111l-189 -191l189 -191v111h561v473z" />
    <glyph glyph-name="uni25AF" unicode="&#x25af;" horiz-adv-x="507" 
d="M425 689v-689h-342v689h342zM338 597h-169v-505h169v505z" />
    <glyph glyph-name="lozenge" unicode="&#x25ca;" horiz-adv-x="506" 
d="M335 675l148 -337l-148 -338h-164l-148 338l148 337h164zM253 569l-87 -230l87 -233l87 232z" />
    <glyph glyph-name="uni2999" unicode="&#x2999;" horiz-adv-x="247" 
d="M123 1119q-30 0 -51.5 21t-21.5 52q0 30 21.5 51.5t51.5 21.5q31 0 52 -21.5t21 -51.5q0 -31 -21 -52t-52 -21zM123 829q-30 0 -51.5 21t-21.5 52q0 30 21.5 51.5t51.5 21.5q31 0 52 -21.5t21 -51.5q0 -31 -21 -52t-52 -21zM123 533q-30 0 -51.5 21t-21.5 52
q0 30 21.5 51.5t51.5 21.5q31 0 52 -21.5t21 -51.5q0 -31 -21 -52t-52 -21zM123 237q-30 0 -51.5 21t-21.5 52q0 30 21.5 51.5t51.5 21.5q31 0 52 -21.5t21 -51.5q0 -31 -21 -52t-52 -21zM123 -59q-30 0 -51.5 21t-21.5 52q0 30 21.5 51.5t51.5 21.5q31 0 52 -21.5t21 -51.5
q0 -31 -21 -52t-52 -21zM123 -355q-30 0 -51.5 21t-21.5 52q0 30 21.5 51.5t51.5 21.5q31 0 52 -21.5t21 -51.5q0 -31 -21 -52t-52 -21z" />
    <glyph glyph-name="uniA789" unicode="&#xa789;" horiz-adv-x="206" 
d="M103 454q34 0 55 -23t21 -56q0 -32 -21.5 -55t-54.5 -23t-55 23t-22 55t22 55.5t55 23.5zM103 141q34 0 55.5 -23t21.5 -55t-21.5 -55t-55.5 -23q-33 0 -54.5 23t-21.5 55t21.5 55t54.5 23z" />
    <glyph glyph-name="uniA78A" unicode="&#xa78a;" horiz-adv-x="413" 
d="M38 340v103h337v-103h-337zM38 153v103h337v-103h-337z" />
    <glyph glyph-name="uniFEFF" unicode="&#xfeff;" horiz-adv-x="0" 
 />
    <glyph glyph-name="Cacute.loclPLK" horiz-adv-x="504" 
d="M327 961l110 -63l-124 -156l-67 39zM308 710q105 0 186 -76l-74 -87q-53 46 -104 46q-123 0 -123 -245q0 -244 125 -244q31 0 55.5 13t56.5 40l70 -86q-80 -88 -191 -88q-130 0 -204.5 92.5t-74.5 272.5q0 176 76 269t202 93z" />
    <glyph glyph-name="Nacute.loclPLK" horiz-adv-x="573" 
d="M303 961l110 -63l-124 -156l-67 39zM522 693v-693h-194l-162 549q21 -176 21 -283v-266h-136v693h193l163 -550q-21 142 -21 259v291h136z" />
    <glyph glyph-name="Oacute.loclPLK" horiz-adv-x="606" 
d="M317 961l110 -63l-124 -156l-67 39zM303 710q132 0 202.5 -91.5t70.5 -271.5q0 -178 -71 -271t-202 -93q-132 0 -202.5 92t-70.5 272q0 177 71 270t202 93zM303 595q-57 0 -83.5 -57t-26.5 -191q0 -136 26.5 -192.5t83.5 -56.5q58 0 84 56t26 193q0 134 -26.5 191
t-83.5 57z" />
    <glyph glyph-name="Sacute.loclPLK" horiz-adv-x="498" 
d="M272 960l110 -63l-124 -156l-67 39zM252 710q126 0 212 -88l-70 -83q-62 56 -126 56q-37 0 -57.5 -19.5t-20.5 -53.5q0 -32 23 -52.5t90 -47.5q92 -38 134 -85t42 -135q0 -97 -65.5 -158t-177.5 -61q-139 0 -232 98l76 84q74 -66 146 -66q44 0 67 24.5t23 65.5
q0 39 -22 63t-82 47q-100 41 -142 89t-42 122q0 90 63.5 145t160.5 55z" />
    <glyph glyph-name="Zacute.loclPLK" horiz-adv-x="471" 
d="M253 961l110 -63l-124 -156l-67 39zM449 693v-119l-263 -449h268l-15 -125h-427v117l264 454h-238v122h411z" />
    <glyph glyph-name="cacute.loclPLK" horiz-adv-x="419" 
d="M271 807l111 -64l-124 -161l-67 39zM261 548q93 0 158 -65l-62 -84q-45 34 -84 34q-44 0 -65.5 -38t-21.5 -133q0 -90 22.5 -125.5t64.5 -35.5q35 0 81 32l66 -88q-69 -62 -157 -62q-110 0 -172.5 74t-62.5 204q0 133 63 210t170 77z" />
    <glyph glyph-name="i.loclTRK" horiz-adv-x="249" 
d="M125 806q38 0 62 -24.5t24 -61.5t-24 -61.5t-62 -24.5q-39 0 -63 24.5t-24 61.5t24 61.5t63 24.5zM200 531v-531h-151v531h151z" />
    <glyph glyph-name="nacute.loclPLK" horiz-adv-x="502" 
d="M380 743l-124 -161l-67 39l80 186zM329 548q60 0 94 -42.5t34 -118.5v-387h-151v370q0 63 -35 63q-34 0 -71 -64v-369h-151v531h132l11 -63q55 80 137 80z" />
    <glyph glyph-name="oacute.loclPLK" horiz-adv-x="514" 
d="M271 807l111 -64l-124 -161l-67 39zM257 548q108 0 168.5 -71.5t60.5 -211.5q0 -134 -61 -208t-168 -74q-108 0 -168.5 72t-60.5 211q0 135 60.5 208.5t168.5 73.5zM257 436q-38 0 -55.5 -39t-17.5 -131q0 -95 17.5 -133.5t55.5 -38.5t56 39t18 132q0 94 -17.5 132.5
t-56.5 38.5z" />
    <glyph glyph-name="sacute.loclPLK" horiz-adv-x="419" 
d="M227 807l111 -64l-124 -161l-67 39zM215 548q103 0 174 -65l-55 -82q-59 39 -106 39q-26 0 -41 -12t-15 -33q0 -23 18 -37.5t77 -37.5q71 -26 104.5 -63.5t33.5 -100.5q0 -79 -58.5 -126t-150.5 -47q-120 0 -196 78l71 79q63 -50 118 -50q29 0 45.5 14t16.5 39
q0 28 -18 44.5t-76 37.5q-71 27 -102.5 64t-31.5 95q0 72 51.5 118t140.5 46z" />
    <glyph glyph-name="zacute.loclPLK" horiz-adv-x="402" 
d="M219 807l111 -64l-124 -161l-67 39zM385 531v-106l-209 -310h213l-13 -115h-366v107l209 310h-191v114h357z" />
    <glyph glyph-name="f_i" horiz-adv-x="521" 
d="M269 758q90 0 160 -40l-41 -95q-48 23 -99 23q-37 0 -52 -15t-15 -50v-50h253v-531h-151v426h-102v-426h-151v426h-70v105h70v57q0 74 49 122t149 48z" />
    <glyph glyph-name="f_l" horiz-adv-x="560" 
d="M535 106l27 -104q-40 -19 -87 -19q-64 0 -99 37t-35 103v517q-28 9 -57 9q-33 0 -46 -15t-13 -49v-54h80l-17 -105h-63v-426h-151v426h-70v105h70v57q0 74 47.5 122t136.5 48q46 0 102 -18l132 14v-623q0 -28 22 -28q12 0 21 3z" />
    <glyph glyph-name="a.sc" horiz-adv-x="462" 
d="M320 0l-23 117h-134l-22 -117h-151l152 568h179l151 -568h-152zM184 224h92l-47 240z" />
    <glyph glyph-name="aacute.sc" horiz-adv-x="462" 
d="M354 748l-208 -94l-41 73l190 129zM320 0l-23 117h-134l-22 -117h-151l152 568h179l151 -568h-152zM184 224h92l-47 240z" />
    <glyph glyph-name="abreve.sc" horiz-adv-x="462" 
d="M235 664q-70 0 -108.5 45t-43.5 123l80 14q16 -79 72 -79t72 79l80 -14q-5 -78 -43.5 -123t-108.5 -45zM320 0l-23 117h-134l-22 -117h-151l152 568h179l151 -568h-152zM184 224h92l-47 240z" />
    <glyph glyph-name="acircumflex.sc" horiz-adv-x="462" 
d="M236 746l-116 -91l-52 56l123 138h90l123 -138l-53 -56zM320 0l-23 117h-134l-22 -117h-151l152 568h179l151 -568h-152zM184 224h92l-47 240z" />
    <glyph glyph-name="adieresis.sc" horiz-adv-x="462" 
d="M133 673q-32 0 -53.5 22t-21.5 54t21.5 54t53.5 22t53 -22t21 -54q0 -33 -20.5 -54.5t-53.5 -21.5zM336 673q-32 0 -53.5 22t-21.5 54t22 54t53 22q33 0 54 -22t21 -54q0 -33 -21 -54.5t-54 -21.5zM320 0l-23 117h-134l-22 -117h-151l152 568h179l151 -568h-152zM184 224
h92l-47 240z" />
    <glyph glyph-name="agrave.sc" horiz-adv-x="462" 
d="M367 727l-41 -73l-208 94l59 108zM320 0l-23 117h-134l-22 -117h-151l152 568h179l151 -568h-152zM184 224h92l-47 240z" />
    <glyph glyph-name="amacron.sc" horiz-adv-x="462" 
d="M370 790v-102h-269v102h269zM320 0l-23 117h-134l-22 -117h-151l152 568h179l151 -568h-152zM184 224h92l-47 240z" />
    <glyph glyph-name="aogonek.sc" horiz-adv-x="462" 
d="M430 0q-100 -44 -100 -103q0 -47 45 -47q22 0 52 8l-9 -94q-33 -7 -62 -7q-58 0 -95.5 31t-37.5 84q0 83 95 138l-21 107h-134l-22 -117h-151l152 568h179l151 -568h-42zM184 224h92l-47 240z" />
    <glyph glyph-name="aring.sc" horiz-adv-x="462" 
d="M236 637q-57 0 -91 36t-34 92q0 57 34 93t91 36t90.5 -36t33.5 -93q0 -56 -33.5 -92t-90.5 -36zM236 818q-38 0 -38 -53q0 -52 38 -52t38 52q0 53 -38 53zM320 0l-23 117h-134l-22 -117h-151l152 568h179l151 -568h-152zM184 224h92l-47 240z" />
    <glyph glyph-name="atilde.sc" horiz-adv-x="462" 
d="M186 712q-23 0 -45 -41l-71 33q17 51 47 81.5t67 30.5q29 0 60 -21t43 -21q23 0 44 41l71 -33q-17 -52 -46.5 -81.5t-67.5 -29.5q-28 0 -59 20.5t-43 20.5zM320 0l-23 117h-134l-22 -117h-151l152 568h179l151 -568h-152zM184 224h92l-47 240z" />
    <glyph glyph-name="ae.sc" horiz-adv-x="647" 
d="M448 106h179v-106h-300l-15 117h-141l-34 -117h-157l204 568h416l-15 -105h-188l18 -123h179v-103h-165zM201 223h98l-29 237z" />
    <glyph glyph-name="b.sc" horiz-adv-x="486" 
d="M342 301q127 -23 127 -135q0 -166 -236 -166h-182v568h161q235 0 235 -147q0 -92 -105 -120zM231 464h-29v-119h27q71 0 71 61q0 58 -69 58zM240 107q79 0 79 71q0 70 -74 70h-43v-141h38z" />
    <glyph glyph-name="c.sc" horiz-adv-x="451" 
d="M273 582q95 0 168 -65l-68 -83q-47 39 -90 39q-98 0 -98 -187q0 -102 25 -144.5t74 -42.5q44 0 96 44l68 -83q-73 -75 -179 -75q-107 0 -173 76.5t-66 224.5q0 142 67 219t176 77z" />
    <glyph glyph-name="cacute.sc" horiz-adv-x="451" 
d="M343 856l59 -108l-208 -94l-41 73zM273 582q95 0 168 -65l-68 -83q-47 39 -90 39q-98 0 -98 -187q0 -102 25 -144.5t74 -42.5q44 0 96 44l68 -83q-73 -75 -179 -75q-107 0 -173 76.5t-66 224.5q0 142 67 219t176 77z" />
    <glyph glyph-name="cacute.sc.loclPLK" horiz-adv-x="451" 
d="M297 852l111 -64l-124 -161l-67 39zM273 582q95 0 168 -65l-68 -83q-47 39 -90 39q-98 0 -98 -187q0 -102 25 -144.5t74 -42.5q44 0 96 44l68 -83q-73 -75 -179 -75q-107 0 -173 76.5t-66 224.5q0 142 67 219t176 77z" />
    <glyph glyph-name="ccaron.sc" horiz-adv-x="451" 
d="M400 837l52 -56l-123 -138h-91l-122 138l52 56l116 -92zM273 582q95 0 168 -65l-68 -83q-47 39 -90 39q-98 0 -98 -187q0 -102 25 -144.5t74 -42.5q44 0 96 44l68 -83q-73 -75 -179 -75q-107 0 -173 76.5t-66 224.5q0 142 67 219t176 77z" />
    <glyph glyph-name="ccedilla.sc" horiz-adv-x="451" 
d="M448 60q-57 -59 -135 -72v-41q91 -12 91 -94q0 -51 -35.5 -81.5t-97.5 -30.5q-58 0 -101 29l34 67q25 -14 56 -14q38 0 38 31q0 35 -80 35l11 99q-91 13 -145 89t-54 209q0 142 67 219t176 77q95 0 168 -65l-68 -83q-47 39 -90 39q-98 0 -98 -187q0 -102 25 -144.5
t74 -42.5q44 0 96 44z" />
    <glyph glyph-name="cdotaccent.sc" horiz-adv-x="451" 
d="M284 836q38 0 62 -24.5t24 -61.5t-24 -61.5t-62 -24.5q-39 0 -63 24.5t-24 61.5t24 61.5t63 24.5zM273 582q95 0 168 -65l-68 -83q-47 39 -90 39q-98 0 -98 -187q0 -102 25 -144.5t74 -42.5q44 0 96 44l68 -83q-73 -75 -179 -75q-107 0 -173 76.5t-66 224.5q0 142 67 219
t176 77z" />
    <glyph glyph-name="d.sc" horiz-adv-x="519" 
d="M214 568q59 0 104.5 -11.5t86 -40.5t62.5 -86.5t22 -141.5q0 -83 -20.5 -141t-59 -89t-84 -44.5t-103.5 -13.5h-171v568h163zM231 462h-29v-355h30q52 0 77.5 36.5t25.5 144.5q0 105 -26 139.5t-78 34.5z" />
    <glyph glyph-name="eth.sc" horiz-adv-x="531" 
d="M227 568q59 0 104 -11.5t86 -40.5t63 -86.5t22 -141.5q0 -83 -20.5 -141t-59 -89t-84 -44.5t-103.5 -13.5h-171v249h-45v86h45v233h163zM244 107q34 0 55 12t35 53t14 116q0 105 -26 139.5t-78 34.5h-30v-127h68v-86h-68v-142h30z" />
    <glyph glyph-name="dcaron.sc" horiz-adv-x="519" 
d="M354 837l52 -56l-123 -138h-91l-122 138l52 56l116 -92zM214 568q59 0 104.5 -11.5t86 -40.5t62.5 -86.5t22 -141.5q0 -83 -20.5 -141t-59 -89t-84 -44.5t-103.5 -13.5h-171v568h163zM231 462h-29v-355h30q52 0 77.5 36.5t25.5 144.5q0 105 -26 139.5t-78 34.5z" />
    <glyph glyph-name="dcroat.sc" horiz-adv-x="531" 
d="M227 568q59 0 104 -11.5t86 -40.5t63 -86.5t22 -141.5q0 -83 -20.5 -141t-59 -89t-84 -44.5t-103.5 -13.5h-171v249h-45v86h45v233h163zM244 107q34 0 55 12t35 53t14 116q0 105 -26 139.5t-78 34.5h-30v-127h68v-86h-68v-142h30z" />
    <glyph glyph-name="e.sc" horiz-adv-x="408" 
d="M385 568l-15 -105h-173v-121h152v-104h-152v-132h184v-106h-334v568h338z" />
    <glyph glyph-name="eacute.sc" horiz-adv-x="408" 
d="M279 856l59 -108l-208 -94l-41 73zM385 568l-15 -105h-173v-121h152v-104h-152v-132h184v-106h-334v568h338z" />
    <glyph glyph-name="ecaron.sc" horiz-adv-x="408" 
d="M337 837l52 -56l-123 -138h-91l-122 138l52 56l116 -92zM385 568l-15 -105h-173v-121h152v-104h-152v-132h184v-106h-334v568h338z" />
    <glyph glyph-name="ecircumflex.sc" horiz-adv-x="408" 
d="M105 655l-52 56l123 138h90l123 -138l-53 -56l-115 91zM385 568l-15 -105h-173v-121h152v-104h-152v-132h184v-106h-334v568h338z" />
    <glyph glyph-name="edieresis.sc" horiz-adv-x="408" 
d="M118 825q32 0 53 -22t21 -54q0 -33 -20.5 -54.5t-53.5 -21.5q-32 0 -53.5 22t-21.5 54t21.5 54t53.5 22zM321 825q33 0 54 -22t21 -54q0 -33 -21 -54.5t-54 -21.5q-32 0 -53.5 22t-21.5 54t22 54t53 22zM385 568l-15 -105h-173v-121h152v-104h-152v-132h184v-106h-334
v568h338z" />
    <glyph glyph-name="edotaccent.sc" horiz-adv-x="408" 
d="M221 836q38 0 62 -24.5t24 -61.5t-24 -61.5t-62 -24.5q-39 0 -63 24.5t-24 61.5t24 61.5t63 24.5zM385 568l-15 -105h-173v-121h152v-104h-152v-132h184v-106h-334v568h338z" />
    <glyph glyph-name="egrave.sc" horiz-adv-x="408" 
d="M162 856l190 -129l-41 -73l-208 94zM385 568l-15 -105h-173v-121h152v-104h-152v-132h184v-106h-334v568h338z" />
    <glyph glyph-name="emacron.sc" horiz-adv-x="408" 
d="M355 688h-269v102h269v-102zM385 568l-15 -105h-173v-121h152v-104h-152v-132h184v-106h-334v568h338z" />
    <glyph glyph-name="eogonek.sc" horiz-adv-x="408" 
d="M197 238v-132h184v-106h-33q-100 -44 -100 -103q0 -47 45 -47q22 0 52 8l-9 -94q-33 -7 -62 -7q-57 0 -94 31t-37 83q0 90 116 129h-212v568h338l-15 -105h-173v-121h152v-104h-152z" />
    <glyph glyph-name="f.sc" horiz-adv-x="386" 
d="M381 568l-16 -106h-163v-137h139v-107h-139v-218h-151v568h330z" />
    <glyph glyph-name="f_i.sc" horiz-adv-x="640" 
d="M381 568l-16 -106h-163v-137h139v-107h-139v-218h-151v568h330zM588 568v-568h-151v568h151z" />
    <glyph glyph-name="f_l.sc" horiz-adv-x="791" 
d="M381 568l-16 -106h-163v-137h139v-107h-139v-218h-151v568h330zM588 568v-451h196l-15 -117h-332v568h151z" />
    <glyph glyph-name="fi.sc" horiz-adv-x="640" 
d="M381 568l-16 -106h-163v-137h139v-107h-139v-218h-151v568h330zM588 568v-568h-151v568h151z" />
    <glyph glyph-name="fl.sc" horiz-adv-x="791" 
d="M381 568l-16 -106h-163v-137h139v-107h-139v-218h-151v568h330zM588 568v-451h196l-15 -117h-332v568h151z" />
    <glyph glyph-name="g.sc" horiz-adv-x="512" 
d="M289 582q108 0 183 -72l-74 -77q-49 42 -100 42q-57 0 -85.5 -44t-28.5 -146q0 -112 21 -152.5t69 -40.5q33 0 58 16v119h-57l-14 102h211v-282q-85 -62 -196 -62q-126 0 -186 75t-60 226q0 141 72 218.5t187 77.5z" />
    <glyph glyph-name="gbreve.sc" horiz-adv-x="512" 
d="M283 664q-70 0 -108.5 45t-43.5 123l80 14q16 -79 72 -79t72 79l80 -14q-5 -78 -43.5 -123t-108.5 -45zM289 582q108 0 183 -72l-74 -77q-49 42 -100 42q-57 0 -85.5 -44t-28.5 -146q0 -112 21 -152.5t69 -40.5q33 0 58 16v119h-57l-14 102h211v-282q-85 -62 -196 -62
q-126 0 -186 75t-60 226q0 141 72 218.5t187 77.5z" />
    <glyph glyph-name="gcommaaccent.sc" horiz-adv-x="512" 
d="M289 582q108 0 183 -72l-74 -77q-49 42 -100 42q-57 0 -85.5 -44t-28.5 -146q0 -112 21 -152.5t69 -40.5q33 0 58 16v119h-57l-14 102h211v-282q-85 -62 -196 -62q-126 0 -186 75t-60 226q0 141 72 218.5t187 77.5zM280 -69q32 0 52.5 -21.5t20.5 -53.5q0 -27 -23 -82
l-40 -95h-74l26 115q-35 22 -35 62q0 32 20.5 53.5t52.5 21.5z" />
    <glyph glyph-name="gdotaccent.sc" horiz-adv-x="512" 
d="M284 836q38 0 62 -24.5t24 -61.5t-24 -61.5t-62 -24.5q-39 0 -63 24.5t-24 61.5t24 61.5t63 24.5zM289 582q108 0 183 -72l-74 -77q-49 42 -100 42q-57 0 -85.5 -44t-28.5 -146q0 -112 21 -152.5t69 -40.5q33 0 58 16v119h-57l-14 102h211v-282q-85 -62 -196 -62
q-126 0 -186 75t-60 226q0 141 72 218.5t187 77.5z" />
    <glyph glyph-name="h.sc" horiz-adv-x="525" 
d="M474 568v-568h-151v237h-121v-237h-151v568h151v-214h121v214h151z" />
    <glyph glyph-name="hbar.sc" horiz-adv-x="534" 
d="M520 497v-79h-42v-418h-151v237h-120v-237h-151v418h-42v79h42v71h151v-71h120v71h151v-71h42zM327 354v64h-120v-64h120z" />
    <glyph glyph-name="i.sc" horiz-adv-x="254" 
d="M202 568v-568h-151v568h151z" />
    <glyph glyph-name="iacute.sc" horiz-adv-x="254" 
d="M190 856l59 -108l-208 -94l-41 73zM202 568v-568h-151v568h151z" />
    <glyph glyph-name="icircumflex.sc" horiz-adv-x="254" 
d="M15 655l-52 56l123 138h90l123 -138l-53 -56l-115 91zM202 568v-568h-151v568h151z" />
    <glyph glyph-name="idieresis.sc" horiz-adv-x="254" 
d="M28 825q32 0 53 -22t21 -54q0 -33 -20.5 -54.5t-53.5 -21.5q-32 0 -53.5 22t-21.5 54t21.5 54t53.5 22zM231 825q33 0 54 -22t21 -54q0 -33 -21 -54.5t-54 -21.5q-32 0 -53.5 22t-21.5 54t22 54t53 22zM202 568v-568h-151v568h151z" />
    <glyph glyph-name="i.sc.loclTRK" horiz-adv-x="254" 
d="M131 836q38 0 62 -24.5t24 -61.5t-24 -61.5t-62 -24.5q-39 0 -63 24.5t-24 61.5t24 61.5t63 24.5zM202 568v-568h-151v568h151z" />
    <glyph glyph-name="igrave.sc" horiz-adv-x="254" 
d="M72 856l190 -129l-41 -73l-208 94zM202 568v-568h-151v568h151z" />
    <glyph glyph-name="imacron.sc" horiz-adv-x="254" 
d="M265 688h-269v102h269v-102zM202 568v-568h-151v568h151z" />
    <glyph glyph-name="iogonek.sc" horiz-adv-x="254" 
d="M104 -103q0 -47 45 -47q22 0 52 8l-9 -94q-33 -7 -62 -7q-58 0 -95.5 31t-37.5 84q0 77 79 128h-25v568h151v-564l2 -4q-100 -44 -100 -103z" />
    <glyph glyph-name="j.sc" horiz-adv-x="258" 
d="M209 568v-480q0 -54 -15 -95t-43.5 -67.5t-57 -42t-67.5 -29.5l-40 103q46 22 59.5 49.5t13.5 82.5v479h150z" />
    <glyph glyph-name="k.sc" horiz-adv-x="508" 
d="M202 568v-568h-151v568h151zM507 568l-151 -253l164 -315h-165l-150 304l152 264h150z" />
    <glyph glyph-name="kcommaaccent.sc" horiz-adv-x="508" 
d="M202 568v-568h-151v568h151zM507 568l-151 -253l164 -315h-165l-150 304l152 264h150zM270 -69q32 0 52.5 -21.5t20.5 -53.5q0 -27 -23 -82l-40 -95h-74l26 115q-35 22 -35 62q0 32 20.5 53.5t52.5 21.5z" />
    <glyph glyph-name="l.sc" horiz-adv-x="405" 
d="M202 568v-451h196l-15 -117h-332v568h151z" />
    <glyph glyph-name="lacute.sc" horiz-adv-x="405" 
d="M189 856l59 -108l-208 -94l-41 73zM202 568v-451h196l-15 -117h-332v568h151z" />
    <glyph glyph-name="lcaron.sc" horiz-adv-x="405" 
d="M263 583l95 -41l-32 -186l-68 38zM202 568v-451h196l-15 -117h-332v568h151z" />
    <glyph glyph-name="lcommaaccent.sc" horiz-adv-x="405" 
d="M202 568v-451h196l-15 -117h-332v568h151zM223 -69q32 0 52.5 -21.5t20.5 -53.5q0 -27 -23 -82l-40 -95h-74l26 115q-35 22 -35 62q0 32 20.5 53.5t52.5 21.5z" />
    <glyph glyph-name="ldot.sc" horiz-adv-x="416" 
d="M202 568v-451h196l-15 -117h-332v568h151zM333 403q33 0 54.5 -21.5t21.5 -53.5t-21.5 -53.5t-54.5 -21.5t-54.5 21.5t-21.5 53.5t21.5 53.5t54.5 21.5z" />
    <glyph glyph-name="lslash.sc" horiz-adv-x="434" 
d="M232 117h196l-15 -117h-331v181l-32 -23l-46 72l78 55v283h150v-179l85 58l47 -71l-132 -91v-168z" />
    <glyph glyph-name="m.sc" horiz-adv-x="623" 
d="M555 568l37 -568h-141l-4 213q-3 197 -2 248l-67 -402h-138l-68 400q5 -147 2 -246l-4 -213h-142l38 568h187l59 -385l58 385h185z" />
    <glyph glyph-name="n.sc" horiz-adv-x="520" 
d="M469 568v-568h-185l-123 437q17 -148 17 -240v-197h-127v568h184l124 -437q-17 138 -17 230v207h127z" />
    <glyph glyph-name="nacute.sc" horiz-adv-x="520" 
d="M323 856l59 -108l-208 -94l-41 73zM469 568v-568h-185l-123 437q17 -148 17 -240v-197h-127v568h184l124 -437q-17 138 -17 230v207h127z" />
    <glyph glyph-name="nacute.sc.loclPLK" horiz-adv-x="520" 
d="M277 852l111 -64l-124 -161l-67 39zM469 568v-568h-185l-123 437q17 -148 17 -240v-197h-127v568h184l124 -437q-17 138 -17 230v207h127z" />
    <glyph glyph-name="napostrophe.sc" horiz-adv-x="520" 
d="M469 568v-568h-185l-123 437q17 -148 17 -240v-197h-127v568h184l124 -437q-17 138 -17 230v207h127z" />
    <glyph glyph-name="ncaron.sc" horiz-adv-x="520" 
d="M380 837l52 -56l-123 -138h-91l-122 138l52 56l116 -92zM469 568v-568h-185l-123 437q17 -148 17 -240v-197h-127v568h184l124 -437q-17 138 -17 230v207h127z" />
    <glyph glyph-name="ncommaaccent.sc" horiz-adv-x="520" 
d="M469 568v-568h-185l-123 437q17 -148 17 -240v-197h-127v568h184l124 -437q-17 138 -17 230v207h127zM266 -69q32 0 52.5 -21.5t20.5 -53.5q0 -27 -23 -82l-40 -95h-74l26 115q-35 22 -35 62q0 32 20.5 53.5t52.5 21.5z" />
    <glyph glyph-name="eng.sc" horiz-adv-x="520" 
d="M469 568v-568h-1v-34q0 -91 -48.5 -138.5t-131.5 -47.5q-75 0 -127 41l51 88q30 -19 57 -19q48 0 48 62v48h-33l-123 437q17 -148 17 -240v-197h-127v568h184l124 -437q-17 138 -17 230v207h127z" />
    <glyph glyph-name="ntilde.sc" horiz-adv-x="520" 
d="M316 671q-28 0 -59 20.5t-43 20.5q-23 0 -45 -41l-71 33q17 51 47 81.5t67 30.5q29 0 60 -21t43 -21q23 0 44 41l71 -33q-17 -52 -46.5 -81.5t-67.5 -29.5zM469 568v-568h-185l-123 437q17 -148 17 -240v-197h-127v568h184l124 -437q-17 138 -17 230v207h127z" />
    <glyph glyph-name="o.sc" horiz-adv-x="541" 
d="M271 582q117 0 179 -74.5t62 -222.5q0 -147 -62.5 -223.5t-178.5 -76.5q-118 0 -179.5 75.5t-61.5 225.5q0 145 62 220.5t179 75.5zM271 474q-45 0 -65.5 -41.5t-20.5 -146.5q0 -109 20 -151.5t66 -42.5q45 0 64.5 42t19.5 151q0 106 -20 147.5t-64 41.5z" />
    <glyph glyph-name="oacute.sc" horiz-adv-x="541" 
d="M334 856l59 -108l-208 -94l-41 73zM271 582q117 0 179 -74.5t62 -222.5q0 -147 -62.5 -223.5t-178.5 -76.5q-118 0 -179.5 75.5t-61.5 225.5q0 145 62 220.5t179 75.5zM271 474q-45 0 -65.5 -41.5t-20.5 -146.5q0 -109 20 -151.5t66 -42.5q45 0 64.5 42t19.5 151
q0 106 -20 147.5t-64 41.5z" />
    <glyph glyph-name="oacute.sc.loclPLK" horiz-adv-x="541" 
d="M288 852l111 -64l-124 -161l-67 39zM271 582q117 0 179 -74.5t62 -222.5q0 -147 -62.5 -223.5t-178.5 -76.5q-118 0 -179.5 75.5t-61.5 225.5q0 145 62 220.5t179 75.5zM271 474q-45 0 -65.5 -41.5t-20.5 -146.5q0 -109 20 -151.5t66 -42.5q45 0 64.5 42t19.5 151
q0 106 -20 147.5t-64 41.5z" />
    <glyph glyph-name="ocircumflex.sc" horiz-adv-x="541" 
d="M159 655l-52 56l123 138h90l123 -138l-53 -56l-115 91zM271 582q117 0 179 -74.5t62 -222.5q0 -147 -62.5 -223.5t-178.5 -76.5q-118 0 -179.5 75.5t-61.5 225.5q0 145 62 220.5t179 75.5zM271 474q-45 0 -65.5 -41.5t-20.5 -146.5q0 -109 20 -151.5t66 -42.5
q45 0 64.5 42t19.5 151q0 106 -20 147.5t-64 41.5z" />
    <glyph glyph-name="odieresis.sc" horiz-adv-x="541" 
d="M172 825q32 0 53 -22t21 -54q0 -33 -20.5 -54.5t-53.5 -21.5q-32 0 -53.5 22t-21.5 54t21.5 54t53.5 22zM375 825q33 0 54 -22t21 -54q0 -33 -21 -54.5t-54 -21.5q-32 0 -53.5 22t-21.5 54t22 54t53 22zM271 582q117 0 179 -74.5t62 -222.5q0 -147 -62.5 -223.5
t-178.5 -76.5q-118 0 -179.5 75.5t-61.5 225.5q0 145 62 220.5t179 75.5zM271 474q-45 0 -65.5 -41.5t-20.5 -146.5q0 -109 20 -151.5t66 -42.5q45 0 64.5 42t19.5 151q0 106 -20 147.5t-64 41.5z" />
    <glyph glyph-name="ograve.sc" horiz-adv-x="541" 
d="M216 856l190 -129l-41 -73l-208 94zM271 582q117 0 179 -74.5t62 -222.5q0 -147 -62.5 -223.5t-178.5 -76.5q-118 0 -179.5 75.5t-61.5 225.5q0 145 62 220.5t179 75.5zM271 474q-45 0 -65.5 -41.5t-20.5 -146.5q0 -109 20 -151.5t66 -42.5q45 0 64.5 42t19.5 151
q0 106 -20 147.5t-64 41.5z" />
    <glyph glyph-name="ohungarumlaut.sc" horiz-adv-x="541" 
d="M229 885l96 -47l-100 -177l-74 31zM384 885l96 -50l-108 -178l-72 34zM271 582q117 0 179 -74.5t62 -222.5q0 -147 -62.5 -223.5t-178.5 -76.5q-118 0 -179.5 75.5t-61.5 225.5q0 145 62 220.5t179 75.5zM271 474q-45 0 -65.5 -41.5t-20.5 -146.5q0 -109 20 -151.5
t66 -42.5q45 0 64.5 42t19.5 151q0 106 -20 147.5t-64 41.5z" />
    <glyph glyph-name="omacron.sc" horiz-adv-x="541" 
d="M409 688h-269v102h269v-102zM271 582q117 0 179 -74.5t62 -222.5q0 -147 -62.5 -223.5t-178.5 -76.5q-118 0 -179.5 75.5t-61.5 225.5q0 145 62 220.5t179 75.5zM271 474q-45 0 -65.5 -41.5t-20.5 -146.5q0 -109 20 -151.5t66 -42.5q45 0 64.5 42t19.5 151
q0 106 -20 147.5t-64 41.5z" />
    <glyph glyph-name="oslash.sc" horiz-adv-x="541" 
d="M402 549q110 -67 110 -264q0 -146 -62 -223t-179 -77q-17 0 -25 1l-25 -98l-108 27l28 102q-111 69 -111 269q0 145 62 220.5t179 75.5q18 0 27 -1l25 99l108 -26zM271 475q-56 0 -78 -40.5t-22 -148.5q0 -125 26 -164l88 352q-4 1 -14 1zM271 91q56 0 77.5 42t21.5 152
q0 123 -25 159l-1 -1l-87 -352h14z" />
    <glyph glyph-name="otilde.sc" horiz-adv-x="541" 
d="M327 671q-28 0 -59 20.5t-43 20.5q-23 0 -45 -41l-71 33q17 51 47 81.5t67 30.5q29 0 60 -21t43 -21q23 0 44 41l71 -33q-17 -52 -46.5 -81.5t-67.5 -29.5zM271 582q117 0 179 -74.5t62 -222.5q0 -147 -62.5 -223.5t-178.5 -76.5q-118 0 -179.5 75.5t-61.5 225.5
q0 145 62 220.5t179 75.5zM271 474q-45 0 -65.5 -41.5t-20.5 -146.5q0 -109 20 -151.5t66 -42.5q45 0 64.5 42t19.5 151q0 106 -20 147.5t-64 41.5z" />
    <glyph glyph-name="oe.sc" horiz-adv-x="697" 
d="M494 238q-9 -77 -45 -132h221v-106h-334q-34 -15 -75 -15q-110 0 -170.5 76t-60.5 225q0 146 61 222.5t172 76.5q45 0 80 -16h332l-16 -106h-206q31 -51 40 -121h145v-104h-144zM263 93q42 0 60 42t18 151q0 107 -18.5 149t-59.5 42q-40 0 -59 -42t-19 -149
q0 -108 18.5 -150.5t59.5 -42.5z" />
    <glyph glyph-name="p.sc" horiz-adv-x="474" 
d="M227 568q113 0 173 -47.5t60 -140.5q0 -97 -57.5 -146.5t-159.5 -49.5h-41v-184h-151v568h176zM233 291q77 0 77 89q0 83 -78 83h-30v-172h31z" />
    <glyph glyph-name="thorn.sc" horiz-adv-x="474" 
d="M227 482q113 0 173 -47.5t60 -140.5q0 -97 -57.5 -146.5t-159.5 -49.5h-41v-98h-151v568h151v-86h25zM233 205q77 0 77 89q0 83 -78 83h-30v-172h31z" />
    <glyph glyph-name="q.sc" horiz-adv-x="541" 
d="M383 37q100 0 169 -56l-89 -112q-88 118 -203 118q-110 0 -170 76t-60 223q0 142 62.5 218.5t178.5 76.5q117 0 179 -75t62 -221q0 -178 -129 -248zM185 286q0 -108 20 -150.5t66 -42.5t65 42t19 150q0 105 -19.5 146.5t-64.5 41.5q-46 0 -66 -41.5t-20 -145.5z" />
    <glyph glyph-name="r.sc" horiz-adv-x="490" 
d="M336 0l-98 211h-36v-211h-151v568h181q230 0 230 -173q0 -105 -90 -155l125 -240h-161zM202 465v-156h41q68 0 68 81q0 75 -77 75h-32z" />
    <glyph glyph-name="racute.sc" horiz-adv-x="490" 
d="M372 748l-208 -94l-41 73l190 129zM336 0l-98 211h-36v-211h-151v568h181q230 0 230 -173q0 -105 -90 -155l125 -240h-161zM202 465v-156h41q68 0 68 81q0 75 -77 75h-32z" />
    <glyph glyph-name="rcaron.sc" horiz-adv-x="490" 
d="M300 643h-91l-122 138l52 56l116 -92l116 92l52 -56zM336 0l-98 211h-36v-211h-151v568h181q230 0 230 -173q0 -105 -90 -155l125 -240h-161zM202 465v-156h41q68 0 68 81q0 75 -77 75h-32z" />
    <glyph glyph-name="rcommaaccent.sc" horiz-adv-x="490" 
d="M202 211v-211h-151v568h181q230 0 230 -173q0 -105 -90 -155l125 -240h-161l-98 211h-36zM234 465h-32v-156h41q68 0 68 81q0 75 -77 75zM263 -69q32 0 52.5 -21.5t20.5 -53.5q0 -27 -23 -82l-40 -95h-74l26 115q-35 22 -35 62q0 32 20.5 53.5t52.5 21.5z" />
    <glyph glyph-name="s.sc" horiz-adv-x="453" 
d="M241 582q115 0 188 -76l-66 -76q-52 44 -110 44q-29 0 -46 -13t-17 -37t17.5 -38.5t72.5 -34.5q82 -29 118 -70t36 -110q0 -84 -58.5 -135t-158.5 -51q-136 0 -213 84l71 80q65 -55 131 -55q72 0 72 62q0 29 -17 46t-65 33q-92 33 -126.5 73.5t-34.5 102.5
q0 80 59.5 125.5t146.5 45.5z" />
    <glyph glyph-name="sacute.sc" horiz-adv-x="453" 
d="M305 856l59 -108l-208 -94l-41 73zM241 582q115 0 188 -76l-66 -76q-52 44 -110 44q-29 0 -46 -13t-17 -37t17.5 -38.5t72.5 -34.5q82 -29 118 -70t36 -110q0 -84 -58.5 -135t-158.5 -51q-136 0 -213 84l71 80q65 -55 131 -55q72 0 72 62q0 29 -17 46t-65 33
q-92 33 -126.5 73.5t-34.5 102.5q0 80 59.5 125.5t146.5 45.5z" />
    <glyph glyph-name="sacute.sc.loclPLK" horiz-adv-x="453" 
d="M259 852l111 -64l-124 -161l-67 39zM241 582q115 0 188 -76l-66 -76q-52 44 -110 44q-29 0 -46 -13t-17 -37t17.5 -38.5t72.5 -34.5q82 -29 118 -70t36 -110q0 -84 -58.5 -135t-158.5 -51q-136 0 -213 84l71 80q65 -55 131 -55q72 0 72 62q0 29 -17 46t-65 33
q-92 33 -126.5 73.5t-34.5 102.5q0 80 59.5 125.5t146.5 45.5z" />
    <glyph glyph-name="scaron.sc" horiz-adv-x="453" 
d="M362 837l52 -56l-123 -138h-91l-122 138l52 56l116 -92zM241 582q115 0 188 -76l-66 -76q-52 44 -110 44q-29 0 -46 -13t-17 -37t17.5 -38.5t72.5 -34.5q82 -29 118 -70t36 -110q0 -84 -58.5 -135t-158.5 -51q-136 0 -213 84l71 80q65 -55 131 -55q72 0 72 62
q0 29 -17 46t-65 33q-92 33 -126.5 73.5t-34.5 102.5q0 80 59.5 125.5t146.5 45.5z" />
    <glyph glyph-name="scedilla.sc" horiz-adv-x="453" 
d="M434 171q0 -72 -43 -120.5t-119 -61.5v-42q91 -12 91 -94q0 -51 -35.5 -81.5t-97.5 -30.5q-58 0 -101 29l34 67q25 -14 56 -14q38 0 38 31q0 35 -80 35l11 97q-120 10 -184 83l71 80q65 -55 131 -55q72 0 72 62q0 29 -17 46t-65 33q-92 33 -126.5 73.5t-34.5 102.5
q0 80 59.5 125.5t146.5 45.5q115 0 188 -76l-66 -76q-52 44 -110 44q-29 0 -46 -13t-17 -37t17.5 -38.5t72.5 -34.5q82 -29 118 -70t36 -110z" />
    <glyph glyph-name="scommaaccent.sc" horiz-adv-x="453" 
d="M241 582q115 0 188 -76l-66 -76q-52 44 -110 44q-29 0 -46 -13t-17 -37t17.5 -38.5t72.5 -34.5q82 -29 118 -70t36 -110q0 -84 -58.5 -135t-158.5 -51q-136 0 -213 84l71 80q65 -55 131 -55q72 0 72 62q0 29 -17 46t-65 33q-92 33 -126.5 73.5t-34.5 102.5
q0 80 59.5 125.5t146.5 45.5zM231 -69q32 0 52.5 -21.5t20.5 -53.5q0 -27 -23 -82l-40 -95h-74l26 115q-35 22 -35 62q0 32 20.5 53.5t52.5 21.5z" />
    <glyph glyph-name="germandbls.sc" horiz-adv-x="522" 
d="M243 583q102 0 222 -57v-86l-102 -117q72 -17 106.5 -54.5t34.5 -104.5q0 -84 -54 -130t-134 -46q-56 0 -92 16l33 101q20 -6 37 -6q26 0 41.5 16.5t15.5 48.5q0 77 -108 87v85l101 121q-46 17 -86 17q-61 0 -61 -67v-407h-151v396q0 88 52.5 137.5t144.5 49.5z" />
    <glyph glyph-name="t.sc" horiz-adv-x="414" 
d="M416 568l-15 -113h-118v-455h-151v455h-126v113h410z" />
    <glyph glyph-name="tbar.sc" horiz-adv-x="414" 
d="M401 455h-118v-108h72v-85h-72v-262h-151v262h-72v85h72v108h-126v113h410z" />
    <glyph glyph-name="tcaron.sc" horiz-adv-x="414" 
d="M328 837l52 -56l-123 -138h-91l-122 138l52 56l116 -92zM416 568l-15 -113h-118v-455h-151v455h-126v113h410z" />
    <glyph glyph-name="uni0163.sc" horiz-adv-x="414" 
d="M401 455h-118v-439v-65q92 -12 92 -98q0 -51 -35.5 -81.5t-97.5 -30.5q-61 0 -101 29l34 70q29 -17 53 -17q41 0 41 32q0 34 -80 34l12 111h-69v455h-126v113h410z" />
    <glyph glyph-name="uni021B.sc" horiz-adv-x="414" 
d="M416 568l-15 -113h-118v-455h-151v455h-126v113h410zM214 -69q32 0 52.5 -21.5t20.5 -53.5q0 -27 -23 -82l-40 -95h-74l26 115q-35 22 -35 62q0 32 20.5 53.5t52.5 21.5z" />
    <glyph glyph-name="u.sc" horiz-adv-x="510" 
d="M468 568v-397q0 -80 -54.5 -133t-158.5 -53q-105 0 -159.5 51.5t-54.5 134.5v397h151v-392q0 -82 63 -82t63 82v392h150z" />
    <glyph glyph-name="uacute.sc" horiz-adv-x="510" 
d="M318 856l59 -108l-208 -94l-41 73zM468 568v-397q0 -80 -54.5 -133t-158.5 -53q-105 0 -159.5 51.5t-54.5 134.5v397h151v-392q0 -82 63 -82t63 82v392h150z" />
    <glyph glyph-name="ucircumflex.sc" horiz-adv-x="510" 
d="M143 655l-52 56l123 138h90l123 -138l-53 -56l-115 91zM468 568v-397q0 -80 -54.5 -133t-158.5 -53q-105 0 -159.5 51.5t-54.5 134.5v397h151v-392q0 -82 63 -82t63 82v392h150z" />
    <glyph glyph-name="udieresis.sc" horiz-adv-x="510" 
d="M156 825q32 0 53 -22t21 -54q0 -33 -20.5 -54.5t-53.5 -21.5q-32 0 -53.5 22t-21.5 54t21.5 54t53.5 22zM359 825q33 0 54 -22t21 -54q0 -33 -21 -54.5t-54 -21.5q-32 0 -53.5 22t-21.5 54t22 54t53 22zM468 568v-397q0 -80 -54.5 -133t-158.5 -53q-105 0 -159.5 51.5
t-54.5 134.5v397h151v-392q0 -82 63 -82t63 82v392h150z" />
    <glyph glyph-name="ugrave.sc" horiz-adv-x="510" 
d="M200 856l190 -129l-41 -73l-208 94zM468 568v-397q0 -80 -54.5 -133t-158.5 -53q-105 0 -159.5 51.5t-54.5 134.5v397h151v-392q0 -82 63 -82t63 82v392h150z" />
    <glyph glyph-name="uhungarumlaut.sc" horiz-adv-x="510" 
d="M213 885l96 -47l-100 -177l-74 31zM368 885l96 -50l-108 -178l-72 34zM468 568v-397q0 -80 -54.5 -133t-158.5 -53q-105 0 -159.5 51.5t-54.5 134.5v397h151v-392q0 -82 63 -82t63 82v392h150z" />
    <glyph glyph-name="umacron.sc" horiz-adv-x="510" 
d="M393 688h-269v102h269v-102zM468 568v-397q0 -80 -54.5 -133t-158.5 -53q-105 0 -159.5 51.5t-54.5 134.5v397h151v-392q0 -82 63 -82t63 82v392h150z" />
    <glyph glyph-name="uogonek.sc" horiz-adv-x="510" 
d="M318 568h150v-397q0 -60 -31 -106t-92 -66q-97 -44 -97 -102q0 -47 45 -47q22 0 52 8l-9 -94q-33 -7 -62 -7q-57 0 -94 31t-37 83q0 74 83 115q-91 7 -138 57.5t-47 127.5v397h151v-392q0 -82 63 -82t63 82v392z" />
    <glyph glyph-name="uring.sc" horiz-adv-x="510" 
d="M259 894q57 0 90.5 -36t33.5 -93q0 -56 -33.5 -92t-90.5 -36t-91 36t-34 92q0 57 34 93t91 36zM259 818q-38 0 -38 -53q0 -52 38 -52t38 52q0 53 -38 53zM468 568v-397q0 -80 -54.5 -133t-158.5 -53q-105 0 -159.5 51.5t-54.5 134.5v397h151v-392q0 -82 63 -82t63 82v392
h150z" />
    <glyph glyph-name="v.sc" horiz-adv-x="446" 
d="M456 568l-133 -568h-194l-139 568h156l82 -459l77 459h151z" />
    <glyph glyph-name="w.sc" horiz-adv-x="655" 
d="M646 568l-77 -568h-193l-50 423l-51 -423h-193l-73 568h148l36 -458l58 458h156l52 -458l43 458h144z" />
    <glyph glyph-name="wacute.sc" horiz-adv-x="655" 
d="M392 856l59 -108l-208 -94l-41 73zM646 568l-77 -568h-193l-50 423l-51 -423h-193l-73 568h148l36 -458l58 458h156l52 -458l43 458h144z" />
    <glyph glyph-name="wcircumflex.sc" horiz-adv-x="655" 
d="M217 655l-52 56l123 138h90l123 -138l-53 -56l-115 91zM646 568l-77 -568h-193l-50 423l-51 -423h-193l-73 568h148l36 -458l58 458h156l52 -458l43 458h144z" />
    <glyph glyph-name="wdieresis.sc" horiz-adv-x="655" 
d="M230 825q32 0 53 -22t21 -54q0 -33 -20.5 -54.5t-53.5 -21.5q-32 0 -53.5 22t-21.5 54t21.5 54t53.5 22zM433 825q33 0 54 -22t21 -54q0 -33 -21 -54.5t-54 -21.5q-32 0 -53.5 22t-21.5 54t22 54t53 22zM646 568l-77 -568h-193l-50 423l-51 -423h-193l-73 568h148
l36 -458l58 458h156l52 -458l43 458h144z" />
    <glyph glyph-name="wgrave.sc" horiz-adv-x="655" 
d="M275 856l190 -129l-41 -73l-208 94zM646 568l-77 -568h-193l-50 423l-51 -423h-193l-73 568h148l36 -458l58 458h156l52 -458l43 458h144z" />
    <glyph glyph-name="x.sc" horiz-adv-x="450" 
d="M456 0h-160l-73 203l-73 -203h-156l141 302l-130 266h158l64 -176l64 176h155l-135 -261z" />
    <glyph glyph-name="y.sc" horiz-adv-x="462" 
d="M471 568l-165 -356v-212h-151v211l-164 357h160l82 -245l83 245h155z" />
    <glyph glyph-name="yacute.sc" horiz-adv-x="462" 
d="M296 856l59 -108l-208 -94l-41 73zM471 568l-165 -356v-212h-151v211l-164 357h160l82 -245l83 245h155z" />
    <glyph glyph-name="ycircumflex.sc" horiz-adv-x="462" 
d="M122 655l-52 56l123 138h90l123 -138l-53 -56l-115 91zM471 568l-165 -356v-212h-151v211l-164 357h160l82 -245l83 245h155z" />
    <glyph glyph-name="ydieresis.sc" horiz-adv-x="462" 
d="M135 825q32 0 53 -22t21 -54q0 -33 -20.5 -54.5t-53.5 -21.5q-32 0 -53.5 22t-21.5 54t21.5 54t53.5 22zM338 825q33 0 54 -22t21 -54q0 -33 -21 -54.5t-54 -21.5q-32 0 -53.5 22t-21.5 54t22 54t53 22zM471 568l-165 -356v-212h-151v211l-164 357h160l82 -245l83 245
h155z" />
    <glyph glyph-name="ygrave.sc" horiz-adv-x="462" 
d="M179 856l190 -129l-41 -73l-208 94zM471 568l-165 -356v-212h-151v211l-164 357h160l82 -245l83 245h155z" />
    <glyph glyph-name="z.sc" horiz-adv-x="422" 
d="M400 568v-112l-224 -338h230l-15 -118h-379v111l222 343h-201v114h367z" />
    <glyph glyph-name="zacute.sc" horiz-adv-x="422" 
d="M279 856l59 -108l-208 -94l-41 73zM400 568v-112l-224 -338h230l-15 -118h-379v111l222 343h-201v114h367z" />
    <glyph glyph-name="zacute.sc.loclPLK" horiz-adv-x="422" 
d="M233 852l111 -64l-124 -161l-67 39zM400 568v-112l-224 -338h230l-15 -118h-379v111l222 343h-201v114h367z" />
    <glyph glyph-name="zcaron.sc" horiz-adv-x="422" 
d="M336 837l52 -56l-123 -138h-91l-122 138l52 56l116 -92zM400 568v-112l-224 -338h230l-15 -118h-379v111l222 343h-201v114h367z" />
    <glyph glyph-name="zdotaccent.sc" horiz-adv-x="422" 
d="M220 836q38 0 62 -24.5t24 -61.5t-24 -61.5t-62 -24.5q-39 0 -63 24.5t-24 61.5t24 61.5t63 24.5zM400 568v-112l-224 -338h230l-15 -118h-379v111l222 343h-201v114h367z" />
    <glyph glyph-name="zero.osf" horiz-adv-x="556" 
d="M278 582q119 0 185 -79t66 -219q0 -139 -67.5 -220t-183.5 -81t-183.5 81t-67.5 220q0 140 66 219t185 79zM278 472q-48 0 -75.5 -41t-27.5 -147q0 -192 103 -192t103 192q0 106 -27.5 147t-75.5 41z" />
    <glyph glyph-name="one.osf" horiz-adv-x="397" 
d="M340 568v-568h-147v422l-124 -87l-67 97l204 136h134z" />
    <glyph glyph-name="two.osf" horiz-adv-x="450" 
d="M210 582q91 0 145.5 -52.5t54.5 -128.5q0 -73 -44.5 -131.5t-179.5 -155.5h236l-15 -114h-386v107q151 126 195 179.5t44 106.5q0 36 -18.5 56t-50.5 20q-53 0 -104 -67l-84 68q81 112 207 112z" />
    <glyph glyph-name="three.osf" horiz-adv-x="451" 
d="M208 582q92 0 146.5 -49.5t54.5 -121.5q0 -122 -130 -157q150 -20 150 -167q0 -89 -61 -150t-168 -61q-125 0 -209 101l81 75q57 -61 115 -61q40 0 64 27.5t24 77.5q0 102 -100 102h-47l17 103h32q40 0 64 24t24 66q0 38 -20.5 58.5t-56.5 20.5q-58 0 -111 -55l-74 77
q87 90 205 90z" />
    <glyph glyph-name="four.osf" horiz-adv-x="479" 
d="M476 141v-111h-63v-140h-138v140h-262v99l163 452l129 -43l-141 -397h112l17 165h120v-165h63z" />
    <glyph glyph-name="five.osf" horiz-adv-x="463" 
d="M413 568l-17 -108h-210v-151q44 26 90 26q73 0 119.5 -57t46.5 -162q0 -108 -64.5 -174t-171.5 -66q-121 0 -200 101l82 74q53 -61 111 -61q93 0 93 125q0 64 -20 90t-58 26q-34 0 -69 -24h-100v361h368z" />
    <glyph glyph-name="six.osf" horiz-adv-x="500" 
d="M313 453q75 0 121 -58.5t46 -163.5q0 -112 -57.5 -180t-160.5 -68q-230 0 -230 325q0 175 71 278t194 103q78 0 136 -43l-54 -88q-41 24 -75 24q-50 0 -80 -48.5t-37 -145.5q49 65 126 65zM262 91q67 0 67 139q0 68 -15 94.5t-45 26.5q-42 0 -81 -58q1 -114 17 -158
t57 -44z" />
    <glyph glyph-name="seven.osf" horiz-adv-x="415" 
d="M396 568v-102l-214 -590l-135 42l196 536h-237v114h390z" />
    <glyph glyph-name="eight.osf" horiz-adv-x="507" 
d="M362 362q65 -34 94 -77.5t29 -102.5q0 -88 -62 -143.5t-173 -55.5q-107 0 -167.5 54.5t-60.5 142.5q0 113 114 168q-91 59 -91 160q0 83 56.5 132t149.5 49q97 0 154 -46t57 -127q0 -95 -100 -154zM254 588q-66 0 -66 -82q0 -36 14.5 -57.5t51.5 -39.5l15 -8
q50 39 50 107q0 80 -65 80zM255 91q82 0 82 92q0 42 -18.5 66t-67.5 46l-23 11q-58 -38 -58 -119q0 -96 85 -96z" />
    <glyph glyph-name="nine.osf" horiz-adv-x="499" 
d="M246 582q110 0 168 -69.5t58 -191.5q0 -194 -90.5 -297.5t-287.5 -149.5l-31 104q116 32 174.5 81t74.5 134q-51 -61 -121 -61q-71 0 -120.5 60.5t-49.5 159.5q0 106 63 168t162 62zM240 236q43 0 77 56q1 104 -14.5 144t-56.5 40q-74 0 -74 -119q0 -121 68 -121z" />
    <glyph glyph-name="zero.tf" 
d="M241 710q218 0 218 -363q0 -364 -218 -364t-218 364q0 363 218 363zM241 598q-25 0 -38 -18.5t-20.5 -73.5t-7.5 -159t7.5 -159t20.5 -74t38 -19t38 19t20.5 74t7.5 159t-7.5 159t-20.5 73.5t-38 18.5z" />
    <glyph glyph-name="one.tf" 
d="M353 115h109v-115h-391v115h135v430l-122 -86l-66 97l201 137h134v-578z" />
    <glyph glyph-name="two.tf" 
d="M228 710q98 0 153.5 -56.5t55.5 -137.5q0 -86 -49.5 -165.5t-198.5 -234.5h261l-15 -116h-409v107q158 183 207.5 257t49.5 144q0 40 -20 63t-55 23q-31 0 -55 -16t-53 -51l-88 68q78 115 216 115z" />
    <glyph glyph-name="three.tf" 
d="M221 710q96 0 152.5 -51t56.5 -127q0 -126 -133 -164q153 -20 153 -171q0 -91 -63 -152.5t-173 -61.5q-131 0 -217 102l81 74q60 -61 122 -61q45 0 70.5 27.5t25.5 79.5q0 107 -109 107h-52l17 103h36q47 0 72.5 24.5t25.5 71.5q0 87 -86 87q-63 0 -116 -56l-75 77
q89 91 212 91z" />
    <glyph glyph-name="four.tf" 
d="M466 261v-113h-56v-148h-142v148h-252v101l163 461l129 -43l-141 -406h103l16 173h124v-173h56z" />
    <glyph glyph-name="five.tf" 
d="M425 693l-17 -108h-215v-159q45 27 92 27q74 0 121 -58t47 -167q0 -111 -65 -178t-174 -67q-122 0 -202 101l83 74q51 -61 112 -61q93 0 93 130q0 122 -77 122q-35 0 -72 -25h-100v369h374z" />
    <glyph glyph-name="six.tf" 
d="M297 463q75 0 121 -59.5t46 -167.5q0 -115 -57 -184t-158 -69q-226 0 -226 335q0 182 69.5 287t190.5 105q77 0 133 -44l-54 -87q-36 23 -72 23q-99 0 -111 -203q47 64 118 64zM249 92q65 0 65 141q0 70 -15 98.5t-45 28.5q-42 0 -76 -57q1 -121 16.5 -166t54.5 -45z" />
    <glyph glyph-name="seven.tf" 
d="M445 693v-102l-229 -613l-132 48l209 553h-256v114h408z" />
    <glyph glyph-name="eight.tf" 
d="M348 372q62 -33 89.5 -77t27.5 -108q0 -90 -60 -147t-168 -57q-103 0 -161.5 56t-58.5 145q0 121 110 175q-88 56 -88 164q0 86 55.5 136t146.5 50q93 0 147.5 -47.5t54.5 -133.5q0 -100 -95 -156zM241 607q-60 0 -60 -87q0 -46 14.5 -68.5t51.5 -37.5l12 -5
q24 24 33 48.5t9 64.5q0 85 -60 85zM243 91q75 0 75 96q0 47 -17.5 72.5t-62.5 45.5l-27 14q-47 -43 -47 -127q0 -101 79 -101z" />
    <glyph glyph-name="nine.tf" 
d="M237 710q109 0 165 -71.5t56 -203.5q0 -140 -41 -232.5t-120 -146t-209 -83.5l-29 103q113 32 170 83t74 144q-52 -62 -119 -62q-70 0 -118 61.5t-48 165.5q0 115 61 178.5t158 63.5zM233 347q44 0 72 55q1 119 -13.5 161t-54.5 42q-35 0 -52.5 -30t-17.5 -101
q0 -127 66 -127z" />
    <glyph glyph-name="zero.tosf" 
d="M241 582q114 0 171 -77t57 -221q0 -143 -58.5 -222t-169.5 -79t-169.5 79t-58.5 222q0 144 57 221t171 77zM241 473q-43 0 -63.5 -40t-20.5 -149q0 -110 20.5 -151t63.5 -41q42 0 62.5 41.5t20.5 150.5t-20.5 149t-62.5 40z" />
    <glyph glyph-name="one.tosf" 
d="M360 113h103v-113h-384v113h134v308l-124 -86l-67 97l204 136h134v-455z" />
    <glyph glyph-name="two.tosf" 
d="M227 582q93 0 148.5 -52.5t55.5 -127.5q0 -73 -45.5 -132t-185.5 -156h242l-15 -114h-392v107q155 126 200.5 179.5t45.5 106.5q0 35 -19.5 55.5t-53.5 20.5q-55 0 -106 -66l-84 67q81 112 209 112z" />
    <glyph glyph-name="three.tosf" 
d="M219 582q93 0 148 -50t55 -121q0 -122 -131 -157q150 -20 150 -167q0 -89 -61.5 -150t-168.5 -61q-126 0 -210 101l80 75q58 -61 117 -61q41 0 65 27t24 78q0 102 -100 102h-49l17 103h34q40 0 64 24t24 66q0 37 -20.5 58t-58.5 21q-59 0 -112 -55l-74 77q88 90 207 90z
" />
    <glyph glyph-name="four.tosf" 
d="M470 141v-111h-57v-140h-139v140h-258v99l164 452l128 -43l-141 -397h109l17 165h120v-165h57z" />
    <glyph glyph-name="five.tosf" 
d="M423 568l-17 -108h-213v-151q44 26 91 26q74 0 121 -57.5t47 -161.5q0 -108 -64.5 -174t-173.5 -66q-122 0 -201 101l82 74q53 -61 112 -61q92 0 92 125q0 64 -19.5 90t-56.5 26q-34 0 -71 -24h-100v361h371z" />
    <glyph glyph-name="six.tosf" 
d="M299 453q74 0 120 -59t46 -163q0 -112 -57 -180t-158 -68q-227 0 -227 325q0 175 69.5 278t191.5 103q77 0 135 -43l-55 -88q-37 24 -73 24q-100 0 -113 -193q48 64 121 64zM250 92q65 0 65 136q0 67 -14.5 94.5t-45.5 27.5q-43 0 -77 -57q1 -115 16.5 -158t55.5 -43z
" />
    <glyph glyph-name="seven.tosf" 
d="M436 568v-102l-216 -590l-135 42l199 536h-254v114h406z" />
    <glyph glyph-name="eight.tosf" 
d="M349 362q61 -33 88.5 -76.5t27.5 -103.5q0 -87 -60 -143t-167 -56q-103 0 -162 55.5t-59 140.5q0 115 110 170q-88 57 -88 159q0 82 55.5 131.5t147.5 49.5t146.5 -46.5t54.5 -129.5q0 -96 -94 -151zM241 588q-60 0 -60 -83q0 -42 14.5 -64t50.5 -37l13 -5q24 24 33 48
t9 60q0 81 -60 81zM243 91q75 0 75 92q0 43 -17.5 68t-61.5 44l-28 14q-47 -44 -47 -122q0 -96 79 -96z" />
    <glyph glyph-name="nine.tosf" 
d="M238 581q109 0 165.5 -69.5t56.5 -195.5q0 -191 -87 -293.5t-282 -148.5l-31 104q115 33 172.5 80.5t72.5 133.5q-52 -60 -119 -60q-69 0 -118 60t-49 158q0 108 61.5 169.5t157.5 61.5zM235 237q43 0 72 54q1 109 -13.5 147t-54.5 38q-71 0 -71 -121q0 -118 67 -118z
" />
    <glyph glyph-name="zero.zero" horiz-adv-x="529" 
d="M265 689q110 0 168 -89t58 -263q0 -354 -226 -354q-111 0 -169 88.5t-58 265.5q0 352 227 352zM265 580q-46 0 -63.5 -50t-17.5 -193q0 -82 4 -126l122 353q-16 16 -45 16zM265 93q46 0 63.5 49.5t17.5 194.5q0 75 -5 130l-123 -357q16 -17 47 -17z" />
    <glyph glyph-name="zero.osf.zero" horiz-adv-x="556" 
d="M278 582q119 0 185 -79t66 -219q0 -139 -67.5 -220t-183.5 -81t-183.5 81t-67.5 220q0 140 66 219t185 79zM278 475q-53 0 -81.5 -41.5t-28.5 -149.5q0 -88 17 -133l132 320q-16 4 -39 4zM278 89q53 0 81.5 43t28.5 152q0 91 -19 137l-133 -325q17 -7 42 -7z" />
    <glyph glyph-name="zero.tf.zero" 
d="M241 710q218 0 218 -363q0 -364 -218 -364t-218 364q0 363 218 363zM241 601q-27 0 -41.5 -18.5t-23 -74.5t-8.5 -161q0 -81 4 -126l112 362q-14 18 -43 18zM241 92q27 0 41.5 19t23 75t8.5 161q0 83 -4 127l-113 -363q14 -19 44 -19z" />
    <glyph glyph-name="zero.tosf.zero" 
d="M241 582q114 0 171 -77t57 -221q0 -143 -58.5 -222t-169.5 -79t-169.5 79t-58.5 222q0 144 57 221t171 77zM241 475q-47 0 -68.5 -40t-21.5 -151q0 -68 8 -113l123 296q-16 8 -41 8zM241 90q47 0 68.5 41.5t21.5 152.5q0 81 -11 125l-127 -307q17 -12 48 -12z" />
    <glyph glyph-name="zero.dnom" horiz-adv-x="344" 
d="M172 431q153 0 153 -221q0 -222 -153 -222q-154 0 -154 222q0 221 154 221zM172 348q-24 0 -33 -27.5t-9 -110.5q0 -84 9 -111t33 -27q23 0 33 27.5t10 110.5t-10 110.5t-33 27.5z" />
    <glyph glyph-name="one.dnom" horiz-adv-x="344" 
d="M263 421v-421h-108v315l-79 -53l-48 70l136 89h99z" />
    <glyph glyph-name="two.dnom" horiz-adv-x="344" 
d="M169 430q65 0 102.5 -36t37.5 -88q0 -48 -29 -92.5t-120 -128.5h156l-11 -85h-262v79q96 103 124.5 143t28.5 76q0 47 -42 47q-33 0 -66 -39l-61 48q52 76 142 76z" />
    <glyph glyph-name="three.dnom" horiz-adv-x="344" 
d="M171 431q64 0 100 -32t36 -79q0 -77 -89 -98q102 -7 102 -102q0 -56 -40.5 -94t-114.5 -38q-91 0 -141 67l57 54q37 -36 74 -36q24 0 38.5 14.5t14.5 41.5q0 53 -62 53h-28l13 75h17q54 0 54 47q0 45 -46 45q-38 0 -73 -33l-53 55q58 60 141 60z" />
    <glyph glyph-name="four.dnom" horiz-adv-x="344" 
d="M326 167v-82h-39v-85h-101v85h-169v76l102 270l92 -35l-85 -229h61l23 98h77v-98h39z" />
    <glyph glyph-name="five.dnom" horiz-adv-x="344" 
d="M299 421l-12 -76h-139v-81q32 16 61 16q48 0 79.5 -37.5t31.5 -102.5q0 -68 -43.5 -110t-114.5 -42q-84 0 -138 68l60 54q32 -37 68 -37q54 0 54 67q0 65 -42 65q-20 0 -43 -15h-72v231h250z" />
    <glyph glyph-name="six.dnom" horiz-adv-x="345" 
d="M215 283q49 0 79 -36.5t30 -102.5q0 -70 -39 -113t-110 -43q-155 0 -155 201q0 115 48 178.5t132 63.5q53 0 91 -29l-38 -64q-27 15 -49 15q-60 0 -68 -105q36 35 79 35zM177 68q37 0 37 75q0 38 -8 53t-27 15q-23 0 -42 -24q1 -70 9 -94.5t31 -24.5z" />
    <glyph glyph-name="seven.dnom" horiz-adv-x="344" 
d="M303 421v-75l-139 -358l-96 34l128 319h-155v80h262z" />
    <glyph glyph-name="eight.dnom" horiz-adv-x="344" 
d="M248 226q81 -40 81 -112q0 -53 -42 -89.5t-117 -36.5q-72 0 -113.5 36.5t-41.5 86.5q0 72 77 104q-62 36 -62 100q0 51 38.5 83.5t103.5 32.5t104 -30.5t39 -79.5q0 -59 -67 -95zM172 359q-37 0 -37 -44q0 -23 8 -34.5t28 -20.5l11 -5q27 21 27 61q0 43 -37 43zM173 66
q48 0 48 49q0 23 -10.5 36t-38.5 25l-19 8q-29 -22 -29 -66q0 -52 49 -52z" />
    <glyph glyph-name="nine.dnom" horiz-adv-x="344" 
d="M171 431q75 0 115 -44.5t40 -119.5q0 -126 -62 -192.5t-197 -94.5l-23 76q78 21 116 48.5t49 79.5q-36 -38 -80 -38q-47 0 -79 36.5t-32 100.5q0 66 43.5 107t109.5 41zM167 218q26 0 45 31q0 62 -8.5 83.5t-32.5 21.5q-42 0 -42 -67q0 -69 38 -69z" />
    <glyph glyph-name="zero.numr" horiz-adv-x="344" 
d="M172 704q153 0 153 -221q0 -222 -153 -222q-154 0 -154 222q0 221 154 221zM172 621q-24 0 -33 -27.5t-9 -110.5q0 -84 9 -111t33 -27q23 0 33 27.5t10 110.5t-10 110.5t-33 27.5z" />
    <glyph glyph-name="one.numr" horiz-adv-x="344" 
d="M263 693v-421h-108v315l-79 -53l-48 70l136 89h99z" />
    <glyph glyph-name="two.numr" horiz-adv-x="344" 
d="M169 705q65 0 102.5 -36t37.5 -88q0 -48 -29 -92.5t-120 -128.5h156l-11 -85h-262v79q96 103 124.5 143t28.5 76q0 47 -42 47q-33 0 -66 -39l-61 48q52 76 142 76z" />
    <glyph glyph-name="three.numr" horiz-adv-x="344" 
d="M171 703q64 0 100 -32t36 -79q0 -77 -89 -98q102 -7 102 -102q0 -56 -40.5 -94t-114.5 -38q-91 0 -141 67l57 54q37 -36 74 -36q24 0 38.5 14.5t14.5 41.5q0 53 -62 53h-28l13 75h17q54 0 54 47q0 45 -46 45q-38 0 -73 -33l-53 55q58 60 141 60z" />
    <glyph glyph-name="four.numr" horiz-adv-x="344" 
d="M326 439v-82h-39v-85h-101v85h-169v76l102 270l92 -35l-85 -229h62l22 98h77v-98h39z" />
    <glyph glyph-name="five.numr" horiz-adv-x="344" 
d="M299 693l-12 -76h-139v-81q32 16 61 16q48 0 79.5 -37.5t31.5 -102.5q0 -68 -43.5 -110t-114.5 -42q-84 0 -138 68l60 54q32 -37 68 -37q54 0 54 67q0 65 -42 65q-20 0 -43 -15h-72v231h250z" />
    <glyph glyph-name="six.numr" horiz-adv-x="345" 
d="M215 555q49 0 79 -36.5t30 -102.5q0 -70 -39 -113t-110 -43q-155 0 -155 201q0 115 48 178.5t132 63.5q53 0 91 -29l-38 -64q-27 15 -49 15q-60 0 -67 -105q36 35 78 35zM177 340q37 0 37 75q0 38 -8 53t-27 15q-24 0 -42 -24q0 -69 8.5 -94t31.5 -25z" />
    <glyph glyph-name="seven.numr" horiz-adv-x="344" 
d="M303 693v-75l-139 -358l-96 34l128 319h-155v80h262z" />
    <glyph glyph-name="eight.numr" horiz-adv-x="344" 
d="M247 497q82 -39 82 -111q0 -53 -42 -89.5t-117 -36.5q-72 0 -113.5 36.5t-41.5 86.5q0 72 77 104q-62 37 -62 100q0 51 38.5 83.5t103.5 32.5t104 -30.5t39 -79.5q0 -61 -68 -96zM172 631q-37 0 -37 -44q0 -23 8 -34.5t28 -20.5l11 -5q27 21 27 61q0 43 -37 43zM173 338
q48 0 48 49q0 23 -10.5 36t-38.5 25l-19 8q-29 -22 -29 -66q0 -52 49 -52z" />
    <glyph glyph-name="nine.numr" horiz-adv-x="344" 
d="M171 703q75 0 115 -44.5t40 -119.5q0 -126 -62 -192.5t-197 -94.5l-23 76q78 21 116 49t50 80q-36 -39 -81 -39q-47 0 -79 36.5t-32 100.5q0 66 43.5 107t109.5 41zM167 490q28 0 45 32q0 61 -8.5 82.5t-32.5 21.5q-42 0 -42 -68t38 -68z" />
    <glyph glyph-name="exclamdown.case" horiz-adv-x="211" 
d="M106 537q-37 0 -61.5 25.5t-24.5 60.5q0 36 24.5 61.5t61.5 25.5t60.5 -25.5t23.5 -61.5q0 -35 -23.5 -60.5t-60.5 -25.5zM26 0l21 441h117l21 -441h-159z" />
    <glyph glyph-name="questiondown.case" horiz-adv-x="427" 
d="M234 536q-37 0 -61 25.5t-24 61.5q0 35 24 60.5t61 25.5t61 -25.5t24 -60.5t-24 -61t-61 -26zM206 -17q-91 0 -142 48.5t-51 116.5q0 43 16 75t38.5 51.5t45 37.5t38.5 43t16 58v27h136v-32q0 -48 -14 -82.5t-33.5 -53t-39.5 -34t-34 -35.5t-14 -46q0 -55 57 -55
q51 0 98 57l91 -70q-79 -106 -208 -106z" />
    <glyph glyph-name="numbersign.osf" horiz-adv-x="487" 
d="M475 441h-57l-25 -195h50v-99h-64l-19 -147h-119l20 147h-85l-20 -147h-119l20 147h-44v99h57l25 195h-51v99h65l17 136h119l-18 -136h85l18 136h119l-18 -136h44v-99zM274 246l25 195h-85l-25 -195h85z" />
    <glyph glyph-name="numbersign.tf" 
d="M470 451h-57l-26 -205h45v-99h-58l-19 -147h-116l19 147h-85l-19 -147h-117l20 147h-46v99h58l27 205h-46v99h59l19 143h116l-19 -143h85l19 143h116l-19 -143h44v-99zM271 246l26 205h-85l-26 -205h85z" />
    <glyph glyph-name="numbersign.tosf" 
d="M470 451h-57l-26 -205h45v-99h-58l-19 -147h-116l19 147h-85l-19 -147h-117l20 147h-46v99h58l27 205h-46v99h59l19 143h116l-19 -143h85l19 143h116l-19 -143h44v-99zM271 246l26 205h-85l-26 -205h85z" />
    <glyph glyph-name="braceleft.case" horiz-adv-x="280" 
d="M264 829v-105q-36 0 -49 -12.5t-13 -46.5v-193q0 -63 -22 -91.5t-73 -41.5q49 -11 72.5 -40t23.5 -91v-193q0 -34 13 -46.5t48 -12.5v-105q-116 0 -158 38.5t-42 123.5v191q0 40 -11.5 57t-43.5 17v124q32 0 43.5 16.5t11.5 56.5v192q0 86 42 124t158 38z" />
    <glyph glyph-name="braceright.case" horiz-adv-x="280" 
d="M17 829q116 0 158 -38t42 -124v-192q0 -40 11 -56.5t43 -16.5v-124q-32 0 -43 -16.5t-11 -57.5v-191q0 -85 -42 -123.5t-158 -38.5v105q35 0 48 12.5t13 46.5v193q0 62 23 90.5t73 40.5q-51 14 -73.5 42t-22.5 91v193q0 34 -13 46.5t-48 12.5v105z" />
    <glyph glyph-name="bracketleft.case" horiz-adv-x="283" 
d="M265 811v-111h-98v-721h98v-111h-240v943h240z" />
    <glyph glyph-name="bracketright.case" horiz-adv-x="283" 
d="M258 811v-943h-241v111h99v721h-99v111h241z" />
    <glyph glyph-name="parenleft.case" horiz-adv-x="291" 
d="M181 847l97 -64q-61 -102 -87 -201t-26 -242t26 -242t87 -201l-97 -64q-81 121 -124 233.5t-43 273.5t43 273.5t124 233.5z" />
    <glyph glyph-name="parenright.case" horiz-adv-x="291" 
d="M109 847q42 -65 65 -106.5t51 -106t40.5 -137t12.5 -157.5t-12.5 -157.5t-40.5 -137t-51 -106t-65 -106.5l-96 64q61 101 87 202t26 241t-26 241t-87 202z" />
    <glyph glyph-name="parenleft.dnom" horiz-adv-x="342" 
d="M191 522l66 -41q-67 -131 -67 -287t67 -287l-66 -41q-34 55 -53 92.5t-35.5 101.5t-16.5 134t16.5 134t35.5 101.5t53 92.5z" />
    <glyph glyph-name="parenright.dnom" horiz-adv-x="342" 
d="M151 522q34 -56 53 -93t36 -101t17 -134t-17 -134t-36 -101t-53 -93l-65 41q66 129 66 287t-66 287z" />
    <glyph glyph-name="parenleft.numr" horiz-adv-x="344" 
d="M191 799l66 -41q-67 -131 -67 -287t67 -287l-66 -41q-34 55 -53 92.5t-35.5 101.5t-16.5 134t16.5 134t35.5 101.5t53 92.5z" />
    <glyph glyph-name="parenright.numr" horiz-adv-x="344" 
d="M151 799q34 -56 53 -93t36 -101t17 -134t-17 -134t-36 -101t-53 -93l-65 41q66 129 66 287t-66 287z" />
    <glyph glyph-name="emdash.case" horiz-adv-x="696" 
d="M21 299v118h654v-118h-654z" />
    <glyph glyph-name="endash.case" horiz-adv-x="457" 
d="M21 299v118h415v-118h-415z" />
    <glyph glyph-name="hyphen.case" horiz-adv-x="362" 
d="M40 299v118h282v-118h-282z" />
    <glyph glyph-name="uni00AD.case" horiz-adv-x="362" 
d="M40 299v118h282v-118h-282z" />
    <glyph glyph-name="figuredash.osf" 
d="M12 274v118h458v-118h-458z" />
    <glyph glyph-name="figuredash.tf" 
d="M12 274v118h458v-118h-458z" />
    <glyph glyph-name="figuredash.tosf" 
d="M12 274v118h458v-118h-458z" />
    <glyph glyph-name="guillemotleft.case" horiz-adv-x="573" 
d="M199 598l94 -61l-114 -207l114 -207l-94 -62l-166 220v96zM446 598l94 -61l-114 -207l114 -207l-94 -62l-166 220v96z" />
    <glyph glyph-name="guillemotright.case" horiz-adv-x="572" 
d="M127 598l166 -221v-96l-166 -220l-94 62l114 207l-114 207zM373 598l166 -221v-96l-166 -220l-94 62l114 207l-114 207z" />
    <glyph glyph-name="guilsinglleft.case" horiz-adv-x="350" 
d="M199 598l94 -61l-114 -207l114 -207l-94 -62l-166 220v96z" />
    <glyph glyph-name="guilsinglright.case" horiz-adv-x="326" 
d="M127 598l166 -221v-96l-166 -220l-94 62l114 207l-114 207z" />
    <glyph glyph-name="space.frac" horiz-adv-x="35" 
 />
    <glyph glyph-name="cent.osf" horiz-adv-x="419" 
d="M420 45q-54 -49 -120 -59v-147h-105v152q-79 21 -123 91t-44 179q0 111 44.5 184t123.5 95v151h105v-146q68 -12 118 -62l-62 -84q-45 34 -84 34q-44 0 -65.5 -38t-21.5 -133q0 -90 22.5 -125.5t64.5 -35.5q35 0 81 32z" />
    <glyph glyph-name="currency.osf" horiz-adv-x="481" 
d="M476 139l-71 -59l-64 75q-44 -28 -100 -28q-58 0 -102 29l-65 -76l-67 60l72 83q-28 51 -28 119q0 67 28 118l-73 85l71 59l64 -76q44 28 100 28q58 0 102 -29l65 77l67 -60l-72 -83q28 -53 28 -119q0 -67 -27 -119zM241 226q78 0 78 116t-78 116t-78 -116t78 -116z" />
    <glyph glyph-name="dollar.osf" horiz-adv-x="478" 
d="M459 199q0 -76 -42.5 -129.5t-117.5 -71.5v-158h-105v151q-112 9 -190 92l72 81q71 -64 140 -64q43 0 66 23.5t23 63.5q0 37 -22.5 60.5t-79.5 45.5q-96 38 -136 84t-40 118q0 73 46 123.5t121 63.5v147h105v-148q83 -14 145 -79l-66 -79q-59 53 -121 53q-36 0 -56.5 -19
t-20.5 -50q0 -32 22.5 -51.5t87.5 -45.5q89 -37 129 -82t40 -129z" />
    <glyph glyph-name="uni20AF.osf" horiz-adv-x="1128" 
d="M293 679q70 0 123 -14t100.5 -49t73 -104t25.5 -169q0 -99 -24 -168.5t-69 -106t-98 -52.5t-121 -16h-201v109q47 15 59.5 40t12.5 79v280l143 -1v-268q0 -49 -13 -75t-54 -51l63 1q74 0 107 49t33 180q0 130 -34 177t-106 47h-128h-24q-38 0 -38 -44q0 -23 13 -66
l-94 -43q-39 66 -39 119q0 68 45.5 107t121.5 39h15h108zM871 548q224 0 224 -281q0 -123 -50.5 -203.5t-131.5 -80.5q-70 0 -109 55v-243l-151 -16v505q0 264 218 264zM869 94q71 0 71 171q0 100 -17 136.5t-51 36.5q-38 0 -53 -36t-15 -125v-139q27 -44 65 -44z" />
    <glyph glyph-name="Euro.osf" horiz-adv-x="513" 
d="M353 93q59 0 125 40v-113q-69 -37 -143 -37q-102 0 -168.5 60.5t-88.5 177.5h-72l19 80h50v73h-69l19 80h54q26 113 96 174t167 61q93 0 166 -57l-52 -90q-52 38 -106 38q-95 0 -120 -126h207l-19 -80h-193v-73h180l-19 -80h-157q11 -69 42 -98.5t82 -29.5z" />
    <glyph glyph-name="uni20BA.osf" horiz-adv-x="509" 
d="M406 228l102 -34q-45 -194 -257 -194h-153v184l-47 -24l-30 70l77 40v63l-46 -24l-31 71l77 40v256h148v-180l115 60l30 -70l-145 -76v-63l114 59l31 -70l-145 -75v-145h29q95 0 131 112z" />
    <glyph glyph-name="uni20BD.osf" horiz-adv-x="519" 
d="M235 250v-62h135v-79h-135v-109h-150v109h-57v79h57v62h-57v92h57v334h166q121 0 187.5 -54.5t66.5 -160.5q0 -107 -65 -159t-182 -52h-23zM255 571h-20v-229h23q48 0 71.5 26.5t23.5 91.5q0 60 -23 85.5t-75 25.5z" />
    <glyph glyph-name="uni20B9.osf" horiz-adv-x="468" 
d="M449 676v-79h-128q49 -25 68 -84h60v-80h-52q-4 -115 -109 -166l148 -267h-161l-125 244h-112v88h107q47 0 71.5 22.5t29.5 78.5h-208v80h204q-17 75 -100 75h-104v88h411z" />
    <glyph glyph-name="sterling.osf" horiz-adv-x="480" 
d="M241 238q0 -46 -13 -73.5t-51 -49.5h269l-17 -115h-408v109q47 16 59.5 40.5t12.5 78.5v84h-59v79h59v100q0 88 49 143t140 55q116 0 181 -97l-89 -64q-35 49 -74 49q-59 0 -59 -85v-101h153v-79h-153v-74z" />
    <glyph glyph-name="yen.osf" horiz-adv-x="495" 
d="M505 676l-153 -325h84v-79h-113v-74h113v-79h-113v-119h-150v119h-111v79h111v74h-111v79h82l-153 325h152l107 -285l105 285h150z" />
    <glyph glyph-name="cent.tf" 
d="M443 45q-52 -48 -119 -59v-147h-106v152q-79 22 -123 92t-44 178q0 110 44.5 183t123.5 95v152h105v-146q66 -10 118 -62l-62 -84q-45 34 -84 34q-44 0 -65.5 -38t-21.5 -133q0 -90 22.5 -125.5t64.5 -35.5q35 0 81 32z" />
    <glyph glyph-name="currency.tf" 
d="M476 139l-71 -59l-64 75q-44 -28 -100 -28q-58 0 -102 29l-65 -76l-67 60l72 83q-28 51 -28 119q0 67 28 118l-73 85l71 59l64 -76q44 28 100 28q58 0 102 -29l65 77l67 -60l-72 -83q28 -53 28 -119q0 -67 -27 -119zM241 226q78 0 78 116t-78 116t-78 -116t78 -116z" />
    <glyph glyph-name="dollar.tf" 
d="M456 208q0 -79 -42 -134t-118 -74v-160h-105v154q-113 12 -185 93l69 82q71 -63 141 -63q44 0 66.5 23t22.5 64q0 40 -20.5 62t-80.5 45q-96 36 -135 83t-39 122q0 76 44 126.5t117 64.5v154h105v-154q85 -14 147 -82l-68 -79q-59 54 -116 54q-37 0 -58 -19t-21 -51
q0 -34 21.5 -53.5t87.5 -45.5q87 -34 127 -81.5t40 -130.5z" />
    <glyph glyph-name="uni20AF.tf" horiz-adv-x="964" 
d="M226 693q287 0 287 -342q0 -81 -16 -143.5t-42.5 -101t-64 -63t-76.5 -34t-84 -9.5h-176v109q45 16 58.5 39.5t13.5 79.5v235l-77 -35q-38 65 -38 118q0 68 45.5 107.5t121.5 39.5h12h36zM239 112q61 0 91.5 52.5t30.5 186.5q0 133 -31.5 181.5t-94.5 48.5h-47h-19
q-39 0 -39 -44q0 -26 14 -66l-15 -7l132 -1v-224q0 -46 -13 -74.5t-53 -52.5h44zM739 548q208 0 208 -281q0 -127 -44 -205.5t-120 -78.5q-61 0 -99 55v-243l-148 -16v497q0 132 52 202t151 70zM736 95q29 0 44 38t14 132q0 104 -12.5 139.5t-41.5 35.5q-32 0 -44 -31
t-12 -114v-164q22 -36 52 -36z" />
    <glyph glyph-name="Euro.tf" 
d="M340 94q51 0 117 36v-110q-63 -36 -135 -36q-99 0 -161.5 62.5t-83.5 184.5h-67l20 80h44v73h-64l20 80h48q24 120 90.5 183t162.5 63q89 0 156 -52l-48 -90q-49 32 -100 32q-92 0 -113 -136h205l-20 -80h-189v-73h177l-20 -80h-155q17 -137 116 -137z" />
    <glyph glyph-name="uni20BA.tf" 
d="M379 228l98 -34q-45 -194 -247 -194h-145v200l-35 -17l-30 70l65 33v64l-34 -18l-31 70l65 33v258h147v-182l115 58l30 -70l-145 -74v-64l115 59l30 -70l-145 -74v-160h22q89 0 125 112z" />
    <glyph glyph-name="uni20BD.tf" 
d="M218 265v-62h124v-79h-124v-124h-144v124h-50v79h50v62h-50v92h50v336h164q111 0 171.5 -55t60.5 -157q0 -110 -62 -163t-168 -53h-22zM241 591h-23v-234h23q40 0 61 26t21 93q0 64 -20.5 89.5t-61.5 25.5z" />
    <glyph glyph-name="uni20B9.tf" 
d="M448 693v-79h-130q49 -24 68 -84h62v-79h-52q-6 -117 -111 -167l150 -284h-164l-123 262h-94v89h92q47 0 71.5 22t29.5 78h-193v79h189q-17 76 -99 76h-90v87h394z" />
    <glyph glyph-name="sterling.tf" 
d="M244 235q0 -46 -13 -72.5t-51 -47.5h271l-17 -115h-410v109q47 16 59.5 40.5t12.5 78.5v94h-59v79h59v104q0 92 49.5 148.5t143.5 56.5q116 0 178 -98l-90 -64q-31 49 -75 49q-58 0 -58 -80v-116h155v-79h-155v-87z" />
    <glyph glyph-name="yen.tf" 
d="M495 693l-151 -342h83v-79h-111v-74h111v-79h-111v-119h-149v119h-109v79h109v74h-109v79h81l-153 342h160l98 -302l96 302h155z" />
    <glyph glyph-name="cent.tosf" 
d="M443 45q-52 -48 -119 -59v-147h-106v152q-79 22 -123 92t-44 178q0 110 44.5 183t123.5 95v152h105v-146q66 -10 118 -62l-62 -84q-45 34 -84 34q-44 0 -65.5 -38t-21.5 -133q0 -90 22.5 -125.5t64.5 -35.5q35 0 81 32z" />
    <glyph glyph-name="currency.tosf" 
d="M476 139l-71 -59l-64 75q-44 -28 -100 -28q-58 0 -102 29l-65 -76l-67 60l72 83q-28 51 -28 119q0 67 28 118l-73 85l71 59l64 -76q44 28 100 28q58 0 102 -29l65 77l67 -60l-72 -83q28 -53 28 -119q0 -67 -27 -119zM241 226q78 0 78 116t-78 116t-78 -116t78 -116z" />
    <glyph glyph-name="dollar.tosf" 
d="M447 202q0 -77 -41 -131t-113 -72v-159h-105v152q-115 13 -184 94l74 80q69 -64 135 -64q38 0 60 23t22 63t-21 63t-84 49q-85 34 -119.5 77.5t-34.5 116.5q0 72 42.5 120.5t109.5 64.5v151h106v-148q85 -15 145 -81l-66 -80q-56 55 -115 55q-32 0 -51.5 -18.5
t-19.5 -50.5q0 -34 21.5 -55.5t86.5 -47.5q78 -32 115 -76.5t37 -125.5z" />
    <glyph glyph-name="uni20AF.tosf" horiz-adv-x="964" 
d="M226 673q287 0 287 -333q0 -96 -23.5 -165.5t-65.5 -106t-89.5 -52.5t-104.5 -16h-176v109q45 16 58.5 39.5t13.5 79.5v215l-77 -35q-38 65 -38 118q0 68 45.5 107.5t121.5 39.5h12h36zM239 112q60 0 91 50.5t31 177.5t-31.5 174t-94.5 47h-47h-19q-39 0 -39 -44
q0 -26 14 -66l-15 -7l132 -1v-204q0 -46 -13 -74.5t-53 -52.5h44zM739 532q103 0 155.5 -69.5t52.5 -203.5q0 -121 -44 -198.5t-120 -77.5q-61 0 -99 55v-243l-148 -16v484q0 131 52 200t151 69zM736 95q29 0 44 36.5t14 125.5q0 98 -12.5 132.5t-41.5 34.5q-33 0 -44.5 -29
t-11.5 -113v-151q22 -36 52 -36z" />
    <glyph glyph-name="Euro.tosf" 
d="M356 94q53 0 119 36v-110q-63 -36 -137 -36q-99 0 -162.5 60t-85.5 177h-72l19 80h49v73h-68l19 80h54q25 115 91.5 175.5t163.5 60.5q86 0 155 -52l-48 -90q-51 32 -100 32q-91 0 -114 -126h195l-19 -80h-181v-73h169l-20 -80h-146q18 -127 119 -127z" />
    <glyph glyph-name="uni20BA.tosf" 
d="M379 228l98 -34q-45 -194 -247 -194h-145v187l-35 -17l-30 69l65 34v63l-34 -17l-31 70l65 33v254h147v-179l115 59l30 -70l-145 -74v-64l115 58l30 -69l-145 -74v-147h22q89 0 125 112z" />
    <glyph glyph-name="uni20BD.tosf" 
d="M218 251v-62h124v-79h-124v-110h-144v110h-50v79h50v62h-50v92h50v333h164q111 0 171.5 -55t60.5 -156q0 -109 -62 -161.5t-168 -52.5h-22zM241 573h-23v-230h23q40 0 61 26t21 92q0 62 -20.5 87t-61.5 25z" />
    <glyph glyph-name="uni20B9.tosf" 
d="M448 676v-79h-130q50 -26 68 -84h62v-80h-52q-6 -115 -110 -166l149 -267h-159l-123 244h-99v90h92q47 0 71.5 22t29.5 77h-193v80h189q-17 75 -99 75h-90v88h394z" />
    <glyph glyph-name="sterling.tosf" 
d="M249 235q0 -46 -12.5 -73t-50.5 -47h260l-17 -115h-399v109q47 16 59 40.5t12 78.5v84h-58v79h58v92q0 92 49 149t139 57q109 0 173 -97l-88 -63q-20 25 -35.5 36t-35.5 11q-54 0 -54 -85v-100h146v-79h-146v-77z" />
    <glyph glyph-name="yen.tosf" 
d="M493 676l-148 -325h82v-79h-111v-74h111v-79h-111v-119h-149v119h-109v79h109v74h-109v79h80l-149 325h159l96 -285l93 285h156z" />
    <glyph glyph-name="infinity.case" horiz-adv-x="772" 
d="M565 581q87 0 134 -65.5t47 -159.5q0 -96 -46.5 -160.5t-141.5 -64.5q-112 0 -180 114q-38 -59 -78 -86.5t-92 -27.5q-90 0 -136 65.5t-46 160.5t47 159.5t139 64.5q116 0 180 -118q39 62 79 90t94 28zM236 247q30 0 52 26.5t50 84.5q-40 109 -99 109q-67 0 -67 -110
t64 -110zM534 246q32 0 49 28.5t17 81.5q0 110 -65 110q-30 0 -51.5 -27.5t-50.5 -89.5q46 -103 101 -103z" />
    <glyph glyph-name="equal.dnom" horiz-adv-x="344" 
d="M46 229v81h252v-81h-252zM46 97v81h252v-81h-252z" />
    <glyph glyph-name="minus.dnom" horiz-adv-x="344" 
d="M46 162v84h252v-84h-252z" />
    <glyph glyph-name="plus.dnom" horiz-adv-x="345" 
d="M218 332v-86h81v-84h-81v-85h-92v85h-80v84h80v86h92z" />
    <glyph glyph-name="equal.numr" horiz-adv-x="344" 
d="M46 506v81h252v-81h-252zM46 374v81h252v-81h-252z" />
    <glyph glyph-name="minus.numr" horiz-adv-x="344" 
d="M46 439v84h252v-84h-252z" />
    <glyph glyph-name="plus.numr" horiz-adv-x="345" 
d="M218 609v-86h81v-84h-81v-85h-92v85h-80v84h80v86h92z" />
    <glyph glyph-name="approxequal.osf" horiz-adv-x="458" 
d="M303 343q-41 0 -87 28.5t-64 28.5q-20 0 -33 -12.5t-28 -37.5l-76 39q26 55 59.5 88t82.5 33q40 0 85 -28.5t63 -28.5q19 0 32 11.5t29 35.5l76 -39q-55 -118 -139 -118zM303 137q-41 0 -87 28.5t-64 28.5q-20 0 -33 -12.5t-28 -37.5l-76 40q58 120 142 120
q40 0 85 -28.5t63 -28.5q19 0 32 11.5t29 35.5l76 -39q-55 -118 -139 -118z" />
    <glyph glyph-name="asciitilde.osf" horiz-adv-x="458" 
d="M303 238q-41 0 -87 28.5t-64 28.5q-14 0 -26 -8.5t-18 -16.5t-17 -25l-76 39q58 120 142 120q40 0 85 -28.5t63 -28.5q19 0 32 11.5t29 35.5l76 -39q-56 -117 -139 -117z" />
    <glyph glyph-name="divide.osf" horiz-adv-x="450" 
d="M225 658q37 0 61 -25.5t24 -61.5t-24 -61.5t-61 -25.5t-61 25.5t-24 61.5q0 35 24 61t61 26zM38 275v114h374v-114h-374zM225 179q37 0 61 -25.5t24 -61.5q0 -35 -24 -60.5t-61 -25.5t-61 25.5t-24 60.5t24 61t61 26z" />
    <glyph glyph-name="equal.osf" horiz-adv-x="450" 
d="M38 378v114h374v-114h-374zM38 170v114h374v-114h-374z" />
    <glyph glyph-name="greater.osf" horiz-adv-x="451" 
d="M74 568l352 -172v-126l-352 -173l-49 107l279 129l-279 133z" />
    <glyph glyph-name="greaterequal.osf" horiz-adv-x="451" 
d="M75 641l351 -172v-127l-351 -172l-50 106l279 130l-279 133zM39 0v114h373v-114h-373z" />
    <glyph glyph-name="infinity.osf" horiz-adv-x="772" 
d="M565 541q87 0 134 -65.5t47 -159.5q0 -96 -46.5 -160.5t-141.5 -64.5q-112 0 -179 114q-39 -59 -79 -86.5t-92 -27.5q-90 0 -136 65.5t-46 160.5t47 159.5t139 64.5q115 0 180 -117q39 61 79.5 89t93.5 28zM236 207q30 0 52.5 27t48.5 84q-38 109 -98 109q-67 0 -67 -110
t64 -110zM534 206q32 0 49 28.5t17 81.5q0 110 -65 110q-30 0 -52 -28t-50 -89q46 -103 101 -103z" />
    <glyph glyph-name="integral.osf" horiz-adv-x="345" 
d="M271 861q73 0 136 -34l-41 -94q-36 16 -70 16q-49 0 -49 -71v-712q0 -93 -50 -139.5t-129 -46.5q-74 0 -130 33l41 95q38 -17 66 -17q52 0 52 69v712q0 92 43.5 140.5t130.5 48.5z" />
    <glyph glyph-name="less.osf" horiz-adv-x="451" 
d="M376 568l50 -102l-280 -133l280 -129l-50 -107l-351 173v126z" />
    <glyph glyph-name="lessequal.osf" horiz-adv-x="451" 
d="M376 641l50 -102l-280 -133l280 -130l-50 -106l-351 172v127zM38 0v114h373v-114h-373z" />
    <glyph glyph-name="logicalnot.osf" horiz-adv-x="465" 
d="M427 385v-267h-124v153h-265v114h389z" />
    <glyph glyph-name="minus.osf" horiz-adv-x="450" 
d="M38 275v114h374v-114h-374z" />
    <glyph glyph-name="multiply.osf" horiz-adv-x="451" 
d="M326 507l88 -73l-109 -127l109 -129l-89 -72l-100 125l-100 -125l-88 72l108 128l-108 128l88 73l99 -125z" />
    <glyph glyph-name="notequal.osf" horiz-adv-x="450" 
d="M412 378h-113l-50 -94h163v-114h-223l-69 -132l-75 39l49 93h-56v114h116l50 94h-166v114h226l67 128l75 -39l-47 -89h53v-114z" />
    <glyph glyph-name="partialdiff.osf" horiz-adv-x="478" 
d="M100 710q187 -45 269.5 -151t82.5 -297q0 -126 -57.5 -202.5t-163.5 -76.5q-95 0 -154.5 63t-59.5 173q0 99 48 161.5t118 62.5q72 0 117 -71q-18 99 -71.5 151t-161.5 84zM232 90q37 0 53.5 38.5t16.5 134.5q-32 70 -74 70q-60 0 -60 -119q0 -124 64 -124z" />
    <glyph glyph-name="percent.osf" horiz-adv-x="759" 
d="M536 718l90 -51l-401 -705l-89 51zM185 689q68 0 111.5 -46.5t43.5 -131.5q0 -86 -43.5 -133t-111.5 -47t-112 47t-44 132q0 86 44 132.5t112 46.5zM185 602q-53 0 -53 -92q0 -91 53 -91q28 0 39.5 22.5t11.5 69.5q0 91 -51 91zM574 341q69 0 112.5 -46.5t43.5 -132.5
t-43.5 -132.5t-112.5 -46.5q-68 0 -112 46.5t-44 131.5q0 86 44 133t112 47zM574 253q-29 0 -40.5 -22.5t-11.5 -69.5q0 -46 11.5 -68t40.5 -22t40.5 22t11.5 69q0 46 -11.5 68.5t-40.5 22.5z" />
    <glyph glyph-name="perthousand.osf" horiz-adv-x="1096" 
d="M536 718l90 -51l-401 -705l-89 51zM185 689q68 0 111.5 -46.5t43.5 -131.5q0 -86 -43.5 -133t-111.5 -47t-112 47t-44 132q0 86 44 132.5t112 46.5zM185 602q-53 0 -53 -92q0 -91 53 -91q28 0 39.5 22.5t11.5 69.5q0 91 -51 91zM574 341q69 0 112.5 -46.5t43.5 -132.5
t-43.5 -132.5t-112.5 -46.5q-68 0 -112 46.5t-44 131.5q0 86 44 133t112 47zM912 341q68 0 112 -47t44 -132q0 -86 -44 -132.5t-112 -46.5t-112.5 46.5t-44.5 131.5q0 86 44.5 133t112.5 47zM574 253q-29 0 -40.5 -22.5t-11.5 -69.5q0 -46 11.5 -68t40.5 -22t40.5 22
t11.5 69q0 46 -11.5 68.5t-40.5 22.5zM912 253q-29 0 -41 -22.5t-12 -69.5q0 -45 12 -67.5t41 -22.5t40 22t11 69t-11 69t-40 22z" />
    <glyph glyph-name="plus.osf" horiz-adv-x="464" 
d="M293 543v-153h133v-117h-133v-153h-122v153h-133v117h133v153h122z" />
    <glyph glyph-name="plusminus.osf" horiz-adv-x="464" 
d="M293 616v-153h133v-117h-133v-153h-122v153h-133v117h133v153h122zM45 0v114h374v-114h-374z" />
    <glyph glyph-name="product.osf" horiz-adv-x="523" 
d="M502 562h-54v-767l-138 -15v782h-96v-767l-138 -15v782h-56v114h482v-114z" />
    <glyph glyph-name="radical.osf" 
d="M665 878v-115h-162l-179 -763h-174l-145 461l138 35l88 -361l157 743h277z" />
    <glyph glyph-name="summation.osf" horiz-adv-x="452" 
d="M429 676v-114h-248l144 -194v-57l-144 -197h248v-114h-406v109l170 228l-170 230v109h406z" />
    <glyph glyph-name="approxequal.tf" 
d="M315 343q-41 0 -87 28.5t-64 28.5q-20 0 -33 -12.5t-28 -37.5l-76 39q26 55 59.5 88t82.5 33q40 0 85 -28.5t63 -28.5q19 0 32 11.5t29 35.5l76 -39q-55 -118 -139 -118zM315 137q-41 0 -87 28.5t-64 28.5q-20 0 -33 -12.5t-28 -37.5l-76 40q58 120 142 120
q40 0 85 -28.5t63 -28.5q19 0 32 11.5t29 35.5l76 -39q-55 -118 -139 -118z" />
    <glyph glyph-name="asciitilde.tf" 
d="M315 238q-41 0 -87 28.5t-64 28.5q-14 0 -26 -8.5t-18 -16t-18 -25.5l-75 39q26 55 59 87.5t83 32.5q40 0 85 -28.5t63 -28.5q19 0 32 11.5t29 35.5l76 -39q-56 -117 -139 -117z" />
    <glyph glyph-name="divide.tf" 
d="M241 658q37 0 61 -25.5t24 -61.5t-24 -61.5t-61 -25.5t-61 25.5t-24 61.5q0 35 24 61t61 26zM54 275v114h374v-114h-374zM241 179q37 0 61 -25.5t24 -61.5q0 -35 -24 -60.5t-61 -25.5t-61 25.5t-24 60.5t24 61t61 26z" />
    <glyph glyph-name="equal.tf" 
d="M54 378v114h374v-114h-374zM54 170v114h374v-114h-374z" />
    <glyph glyph-name="greater.tf" 
d="M92 568l351 -172v-126l-351 -173l-50 107l279 129l-279 133z" />
    <glyph glyph-name="greaterequal.tf" 
d="M92 641l351 -172v-127l-351 -172l-50 106l279 130l-279 133zM56 0v114h373v-114h-373z" />
    <glyph glyph-name="infinity.tf" horiz-adv-x="774" 
d="M565 541q88 0 135 -65.5t47 -159.5q0 -96 -46.5 -160.5t-141.5 -64.5q-112 0 -180 114q-38 -59 -78.5 -86.5t-92.5 -27.5q-90 0 -136 65.5t-46 160.5t47.5 159.5t139.5 64.5q116 0 180 -118q38 62 78.5 90t93.5 28zM236 207q30 0 52.5 26.5t50.5 84.5q-40 109 -100 109
q-67 0 -67 -110t64 -110zM535 206q32 0 49 28.5t17 81.5q0 110 -65 110q-30 0 -51.5 -27.5t-50.5 -89.5q44 -103 101 -103z" />
    <glyph glyph-name="integral.tf" 
d="M339 861q73 0 136 -34l-40 -94q-36 16 -70 16q-49 0 -49 -71v-712q0 -93 -50 -139.5t-129 -46.5q-74 0 -130 33l40 95q38 -17 67 -17q51 0 51 69v712q0 92 43.5 140.5t130.5 48.5z" />
    <glyph glyph-name="less.tf" 
d="M393 568l50 -102l-280 -133l280 -129l-50 -107l-351 173v126z" />
    <glyph glyph-name="lessequal.tf" 
d="M393 641l50 -102l-280 -133l280 -130l-50 -106l-351 172v127zM55 0v114h373v-114h-373z" />
    <glyph glyph-name="logicalnot.tf" 
d="M435 385v-267h-123v153h-265v114h388z" />
    <glyph glyph-name="minus.tf" 
d="M54 275v114h374v-114h-374z" />
    <glyph glyph-name="multiply.tf" 
d="M341 507l88 -73l-108 -127l108 -129l-88 -72l-100 125l-100 -125l-89 72l109 128l-109 128l89 73l99 -125z" />
    <glyph glyph-name="notequal.tf" 
d="M428 378h-113l-49 -94h162v-114h-222l-70 -132l-75 39l49 93h-56v114h116l50 94h-166v114h226l67 128l75 -39l-47 -89h53v-114z" />
    <glyph glyph-name="partialdiff.tf" 
d="M103 729q187 -44 269.5 -153.5t82.5 -313.5q0 -126 -57.5 -202.5t-163.5 -76.5q-95 0 -154.5 63t-59.5 173q0 99 48 161.5t118 62.5q73 0 117 -72q-17 111 -70.5 167t-162.5 89zM235 90q37 0 53.5 38.5t16.5 134.5q-32 70 -74 70q-60 0 -60 -119q0 -124 64 -124z" />
    <glyph glyph-name="percent.tf" horiz-adv-x="774" 
d="M543 739l90 -52l-403 -725l-89 51zM192 710q68 0 111.5 -47t43.5 -132t-43.5 -132t-111.5 -47t-112 46.5t-44 132.5q0 85 44 132t112 47zM192 622q-53 0 -53 -91q0 -92 53 -92q51 0 51 92q0 91 -51 91zM581 341q69 0 112.5 -46.5t43.5 -132.5t-43.5 -132.5t-112.5 -46.5
q-68 0 -112 46.5t-44 131.5q0 86 44 133t112 47zM581 253q-29 0 -40.5 -22.5t-11.5 -69.5q0 -46 11.5 -68t40.5 -22t40.5 22t11.5 69q0 46 -11.5 68.5t-40.5 22.5z" />
    <glyph glyph-name="perthousand.tf" horiz-adv-x="1086" 
d="M530 738l90 -51l-401 -725l-89 51zM181 710q68 0 112 -47t44 -132q0 -86 -43.5 -132.5t-112.5 -46.5q-68 0 -112 46.5t-44 132.5q0 85 44 132t112 47zM181 622q-29 0 -40.5 -22.5t-11.5 -68.5t11.5 -69t40.5 -23t40.5 23t11.5 69q0 91 -52 91zM567 341q68 0 112 -47
t44 -132q0 -86 -43.5 -132.5t-112.5 -46.5q-68 0 -112.5 46.5t-44.5 131.5q0 86 44.5 133t112.5 47zM904 341q69 0 112.5 -46.5t43.5 -132.5t-43.5 -132.5t-112.5 -46.5q-68 0 -112 46.5t-44 131.5q0 86 44 133t112 47zM567 253q-29 0 -40.5 -22.5t-11.5 -69.5
q0 -46 11.5 -68t40.5 -22t40.5 22t11.5 69q0 46 -11.5 68.5t-40.5 22.5zM904 253q-29 0 -40.5 -22.5t-11.5 -69.5q0 -46 11.5 -68t40.5 -22t40.5 22t11.5 69q0 46 -11.5 68.5t-40.5 22.5z" />
    <glyph glyph-name="plus.tf" 
d="M303 543v-153h133v-117h-133v-153h-123v153h-132v117h132v153h123z" />
    <glyph glyph-name="plusminus.tf" 
d="M303 616v-153h133v-117h-133v-153h-122v153h-132v117h132v153h122zM55 0v114h374v-114h-374z" />
    <glyph glyph-name="product.tf" 
d="M474 693v-111h-54v-787l-134 -15v802h-89v-787l-134 -15v802h-55v111h466z" />
    <glyph glyph-name="radical.tf" 
d="M665 878v-115h-162l-179 -763h-174l-145 461l138 35l88 -361l157 743h277z" />
    <glyph glyph-name="summation.tf" 
d="M450 693v-114h-260l150 -202v-57l-150 -206h260v-114h-419v109l178 238l-178 238v108h419z" />
    <glyph glyph-name="approxequal.tosf" 
d="M315 343q-41 0 -87 28.5t-64 28.5q-20 0 -33 -12.5t-28 -37.5l-76 39q26 55 59.5 88t82.5 33q40 0 85 -28.5t63 -28.5q19 0 32 11.5t29 35.5l76 -39q-55 -118 -139 -118zM315 137q-41 0 -87 28.5t-64 28.5q-20 0 -33 -12.5t-28 -37.5l-76 40q58 120 142 120
q40 0 85 -28.5t63 -28.5q19 0 32 11.5t29 35.5l76 -39q-55 -118 -139 -118z" />
    <glyph glyph-name="asciitilde.tosf" 
d="M315 238q-41 0 -86.5 28.5t-64.5 28.5q-14 0 -26 -8.5t-18 -16.5t-17 -25l-76 39q58 120 142 120q40 0 85 -28.5t63 -28.5q19 0 32 11.5t29 35.5l77 -39q-58 -117 -140 -117z" />
    <glyph glyph-name="divide.tosf" 
d="M241 658q37 0 61 -25.5t24 -61.5t-24 -61.5t-61 -25.5t-61 25.5t-24 61.5q0 35 24 61t61 26zM55 275v114h373v-114h-373zM241 179q37 0 61 -25.5t24 -61.5q0 -35 -24 -60.5t-61 -25.5t-61 25.5t-24 60.5t24 61t61 26z" />
    <glyph glyph-name="equal.tosf" 
d="M54 378v114h374v-114h-374zM54 170v114h374v-114h-374z" />
    <glyph glyph-name="greater.tosf" 
d="M91 568l351 -172v-126l-351 -173l-50 107l279 129l-279 133z" />
    <glyph glyph-name="greaterequal.tosf" 
d="M91 641l351 -172v-127l-351 -172l-50 106l279 130l-279 133zM55 0v114h373v-114h-373z" />
    <glyph glyph-name="infinity.tosf" horiz-adv-x="774" 
d="M565 541q88 0 135 -65.5t47 -159.5q0 -96 -46.5 -160.5t-141.5 -64.5q-112 0 -180 114q-38 -59 -78.5 -86.5t-92.5 -27.5q-90 0 -136 65.5t-46 160.5t47.5 159.5t139.5 64.5q116 0 180 -118q38 62 78.5 90t93.5 28zM236 207q30 0 52.5 26.5t50.5 84.5q-40 109 -100 109
q-67 0 -67 -110t64 -110zM535 206q32 0 49 28.5t17 81.5q0 110 -65 110q-30 0 -51.5 -27.5t-50.5 -89.5q44 -103 101 -103z" />
    <glyph glyph-name="integral.tosf" 
d="M339 861q73 0 136 -34l-40 -94q-37 16 -70 16q-49 0 -49 -71v-712q0 -93 -50 -139.5t-129 -46.5q-74 0 -130 33l40 95q38 -17 67 -17q51 0 51 69v712q0 92 43.5 140.5t130.5 48.5z" />
    <glyph glyph-name="less.tosf" 
d="M392 568l50 -102l-279 -133l279 -129l-50 -107l-351 173v126z" />
    <glyph glyph-name="lessequal.tosf" 
d="M392 641l50 -102l-280 -133l280 -130l-50 -106l-351 172v127zM54 0v114h373v-114h-373z" />
    <glyph glyph-name="logicalnot.tosf" 
d="M436 385v-267h-123v153h-265v114h388z" />
    <glyph glyph-name="minus.tosf" 
d="M55 275v114h373v-114h-373z" />
    <glyph glyph-name="multiply.tosf" 
d="M342 507l88 -73l-109 -127l109 -129l-88 -72l-100 125l-101 -125l-88 72l108 128l-108 128l88 73l100 -125z" />
    <glyph glyph-name="notequal.tosf" 
d="M428 378h-113l-49 -94h162v-114h-222l-70 -132l-75 39l49 93h-56v114h116l50 94h-166v114h226l68 128l74 -39l-47 -89h53v-114z" />
    <glyph glyph-name="partialdiff.tosf" 
d="M105 710q187 -45 270 -151t83 -297q0 -126 -57.5 -202.5t-163.5 -76.5q-96 0 -155.5 63t-59.5 173q0 99 48.5 161.5t118.5 62.5q71 0 116 -71q-18 99 -72 151.5t-161 83.5zM238 90q37 0 53 38t17 136q-32 69 -74 69q-60 0 -60 -119q0 -124 64 -124z" />
    <glyph glyph-name="percent.tosf" horiz-adv-x="774" 
d="M544 718l89 -51l-401 -705l-89 51zM192 689q69 0 112.5 -46.5t43.5 -131.5q0 -86 -43.5 -133t-112.5 -47q-68 0 -112 47t-44 132q0 86 44 132.5t112 46.5zM192 602q-52 0 -52 -92q0 -91 52 -91q29 0 40.5 22.5t11.5 69.5q0 91 -52 91zM582 341q68 0 112 -47t44 -132
q0 -86 -43.5 -132.5t-112.5 -46.5q-68 0 -112.5 46.5t-44.5 131.5q0 86 44.5 133t112.5 47zM582 253q-29 0 -40.5 -22.5t-11.5 -69.5q0 -46 11.5 -68t40.5 -22t40.5 22t11.5 69q0 46 -11.5 68.5t-40.5 22.5z" />
    <glyph glyph-name="perthousand.tosf" horiz-adv-x="1089" 
d="M532 718l90 -51l-401 -705l-89 51zM181 689q68 0 112 -46.5t44 -131.5q0 -86 -43.5 -133t-112.5 -47q-68 0 -112 47t-44 132q0 86 44 132.5t112 46.5zM181 602q-29 0 -40.5 -22.5t-11.5 -69.5q0 -91 52 -91q29 0 40.5 22.5t11.5 69.5q0 91 -52 91zM571 341q68 0 112 -47
t44 -132q0 -86 -44 -132.5t-112 -46.5t-112.5 46.5t-44.5 131.5q0 86 44.5 133t112.5 47zM908 341q68 0 112 -47t44 -132q0 -86 -43.5 -132.5t-112.5 -46.5q-68 0 -112.5 46.5t-44.5 131.5q0 86 44.5 133t112.5 47zM571 253q-29 0 -41 -22.5t-12 -69.5q0 -45 12 -67.5
t41 -22.5t40 22t11 69t-11 69t-40 22zM908 253q-29 0 -41 -22.5t-12 -69.5q0 -45 12 -67.5t41 -22.5t40.5 22t11.5 69q0 46 -11.5 68.5t-40.5 22.5z" />
    <glyph glyph-name="plus.tosf" 
d="M303 543v-153h133v-117h-133v-153h-123v153h-132v117h132v153h123z" />
    <glyph glyph-name="plusminus.tosf" 
d="M303 616v-153h133v-117h-133v-153h-122v153h-132v117h132v153h122zM55 0v114h374v-114h-374z" />
    <glyph glyph-name="product.tosf" horiz-adv-x="468" 
d="M467 565h-55v-770l-133 -15v785h-89v-770l-134 -15v785h-56v111h467v-111z" />
    <glyph glyph-name="radical.tosf" 
d="M665 878v-115h-162l-179 -763h-174l-145 461l138 35l88 -361l157 743h277z" />
    <glyph glyph-name="summation.tosf" 
d="M444 676v-114h-248l144 -194v-57l-144 -197h248v-114h-406v109l170 228l-170 230v109h406z" />
    <glyph glyph-name="lozenge.osf" horiz-adv-x="506" 
d="M335 675l148 -337l-148 -338h-164l-148 338l148 337h164zM253 569l-87 -230l87 -233l87 232z" />
    <glyph glyph-name="lozenge.tf" 
d="M321 693l147 -346l-147 -347h-162l-145 347l145 346h162zM240 588l-85 -241l85 -241l86 241z" />
    <glyph glyph-name="lozenge.tosf" 
d="M323 675l144 -337l-144 -338h-164l-143 338l143 337h164zM241 569l-84 -230l84 -233l84 232z" />
    <glyph glyph-name="section.osf" horiz-adv-x="477" 
d="M364 181q51 -37 51 -102q0 -72 -53.5 -116.5t-141.5 -44.5q-100 0 -171 53l49 86q57 -35 113 -35q65 0 65 48q0 25 -19.5 41t-84.5 40q-68 25 -99 56.5t-31 89.5q0 78 72 125q-50 39 -50 108t52 114t139 45q98 0 170 -56l-50 -83q-53 34 -108 34q-64 0 -64 -49
q0 -26 18.5 -41t83.5 -39q65 -25 98 -58t33 -88q0 -78 -72 -128zM237 246q39 -17 51 -22q21 29 21 59q0 29 -18 46.5t-67 36.5q-23 8 -38 15q-18 -29 -18 -57q0 -30 14.5 -46t54.5 -32z" />
    <glyph glyph-name="degree.osf" horiz-adv-x="446" 
d="M187 371q-64 0 -110 45.5t-46 125.5q0 79 46 123.5t110 44.5q65 0 110.5 -44.5t45.5 -124.5q0 -79 -45.5 -124.5t-110.5 -45.5zM187 460q56 0 56 81q0 82 -56 82t-56 -81q0 -82 56 -82z" />
    <glyph glyph-name="dagger.osf" horiz-adv-x="465" 
d="M303 676v-141h141v-122h-141v-413h-141v413h-142v122h142v141h141z" />
    <glyph glyph-name="daggerdbl.osf" horiz-adv-x="465" 
d="M445 413h-142v-143h141v-123h-141v-147h-141v147h-142v123h142v143h-141v122h141v141h141v-141h142v-122z" />
    <glyph glyph-name="ampersand.ss03" horiz-adv-x="811" 
d="M534 483h265v-95h-79q-21 -178 -122 -290.5t-268 -112.5q-146 0 -225.5 85.5t-79.5 244.5q0 145 72 232t186 87q90 0 146.5 -52t56.5 -135q0 -102 -72.5 -158t-225.5 -69q12 -64 47 -92t100 -28q106 0 176.5 74t85.5 214h-63v95zM279 526q-96 0 -98 -209
q84 10 119.5 43.5t35.5 94.5q0 34 -15 52.5t-42 18.5z" />
    <glyph glyph-name="section.tf" 
d="M371 189q51 -40 51 -109q0 -75 -54 -119t-147 -44q-103 0 -174 53l49 87q56 -36 117 -36q67 0 67 54q0 30 -19.5 45.5t-90.5 40.5q-69 25 -99.5 56.5t-30.5 90.5q0 76 70 126q-48 40 -48 111q0 75 52 120t143 45q99 0 175 -55l-50 -87q-54 38 -113 38q-65 0 -65 -54
q0 -29 19 -46t84 -41q70 -26 102.5 -59t32.5 -86q0 -81 -71 -131zM237 255q43 -16 57 -23q22 32 22 63q0 27 -18.5 44t-71.5 37q-13 4 -41 16q-19 -30 -19 -62q0 -26 15.5 -43t55.5 -32z" />
    <glyph glyph-name="degree.tf" 
d="M204 391q-64 0 -110 45.5t-46 125.5q0 79 46 123.5t110 44.5q65 0 110.5 -44.5t45.5 -124.5q0 -79 -45.5 -124.5t-110.5 -45.5zM204 480q56 0 56 81q0 82 -56 82t-56 -81q0 -82 56 -82z" />
    <glyph glyph-name="dagger.tf" 
d="M312 693v-141h147v-122h-147v-430h-141v430h-147v122h147v141h141z" />
    <glyph glyph-name="daggerdbl.tf" 
d="M458 430h-146v-147h142v-123h-142v-160h-141v160h-143v123h143v147h-147v122h147v141h141v-141h146v-122z" />
    <glyph glyph-name="section.tosf" 
d="M367 182q51 -40 51 -103q0 -72 -54 -116.5t-142 -44.5q-98 0 -171 53l50 86q55 -35 113 -35q64 0 64 48q0 25 -19.5 41t-84.5 40q-68 25 -99 56.5t-31 89.5q0 76 73 125q-51 40 -51 108q0 69 52 114t139 45q97 0 171 -56l-50 -83q-55 34 -109 34q-63 0 -63 -49
q0 -26 18.5 -41t83.5 -39q64 -25 97 -58t33 -88q0 -78 -71 -127zM240 246q39 -17 51 -22q20 30 20 59t-18 47t-67 36l-38 15q-17 -27 -17 -57t14.5 -46t54.5 -32z" />
    <glyph glyph-name="degree.tosf" 
d="M204 371q-64 0 -110 45.5t-46 125.5q0 79 46 123.5t110 44.5q65 0 110.5 -44.5t45.5 -124.5q0 -79 -45.5 -124.5t-110.5 -45.5zM204 460q56 0 56 81q0 82 -56 82t-56 -81q0 -82 56 -82z" />
    <glyph glyph-name="dagger.tosf" 
d="M312 676v-141h141v-122h-141v-413h-141v413h-142v122h142v141h141z" />
    <glyph glyph-name="daggerdbl.tosf" 
d="M453 413h-142v-143h141v-123h-141v-147h-141v147h-141v123h141v143h-141v122h141v141h141v-141h142v-122z" />
    <glyph glyph-name="uni0308.case" horiz-adv-x="0" 
d="M-307 921q32 0 53 -22t21 -54q0 -33 -20.5 -54.5t-53.5 -21.5q-32 0 -53.5 22t-21.5 54t21.5 54t53.5 22zM-104 921q32 0 53 -22t21 -54q0 -33 -20.5 -54.5t-53.5 -21.5q-32 0 -53.5 22t-21.5 54t22 54t53 22z" />
    <glyph glyph-name="uni0307.case" horiz-adv-x="0" 
d="M-116 932q38 0 62 -24.5t24 -61.5t-24 -61.5t-62 -24.5q-39 0 -63 24.5t-24 61.5t24 61.5t63 24.5z" />
    <glyph glyph-name="gravecomb.case" horiz-adv-x="0" 
d="M-221 945l191 -120l-38 -74l-210 85z" />
    <glyph glyph-name="acutecomb.case" horiz-adv-x="0" 
d="M-87 946l57 -110l-210 -84l-38 74z" />
    <glyph glyph-name="uni030B.case" horiz-adv-x="0" 
d="M-281 981l96 -47l-100 -177l-74 31zM-126 981l96 -50l-108 -178l-72 34z" />
    <glyph glyph-name="uni0302.case" horiz-adv-x="0" 
d="M-314 759l-52 55l123 131h90l123 -131l-53 -55l-115 84z" />
    <glyph glyph-name="uni030C.case" horiz-adv-x="0" 
d="M-82 936l52 -55l-123 -131h-91l-122 131l52 55l116 -83z" />
    <glyph glyph-name="uni0306.case" horiz-adv-x="0" 
d="M-182 752q-68 0 -107 45t-45 112l80 15q18 -67 72 -67t72 67l80 -15q-6 -67 -45 -112t-107 -45z" />
    <glyph glyph-name="uni030A.case" horiz-adv-x="0" 
d="M-154 990q57 0 90.5 -36t33.5 -93q0 -56 -33.5 -92t-90.5 -36t-91 36t-34 92q0 57 34 93t91 36zM-154 914q-38 0 -38 -53q0 -52 38 -52t38 52q0 53 -38 53z" />
    <glyph glyph-name="tildecomb.case" horiz-adv-x="0" 
d="M-144 767q-28 0 -59 20.5t-43 20.5q-23 0 -45 -41l-71 33q17 51 47 81.5t67 30.5q29 0 60 -21t43 -21q23 0 44 41l71 -33q-17 -52 -46.5 -81.5t-67.5 -29.5z" />
    <glyph glyph-name="uni0304.case" horiz-adv-x="0" 
d="M-30 784h-269v102h269v-102z" />
    <glyph glyph-name="uni0326.case" horiz-adv-x="0" 
d="M-103 -69q32 0 52.5 -21.5t20.5 -53.5q0 -27 -23 -82l-40 -95h-74l26 115q-35 22 -35 62q0 32 20.5 53.5t52.5 21.5z" />
    <glyph glyph-name="uni0327.case" horiz-adv-x="0" 
d="M-121 16v-69q91 -12 91 -94q0 -51 -35.5 -81.5t-97.5 -30.5q-57 0 -101 29l34 67q25 -14 56 -14q38 0 38 31q0 35 -80 35l14 127h81z" />
    <glyph glyph-name="caron.alt" horiz-adv-x="146" 
d="M58 708l95 -41l-32 -186l-68 38z" />
    <glyph glyph-name="acute.case" horiz-adv-x="309" 
d="M221 946l57 -110l-210 -84l-38 74z" />
    <glyph glyph-name="breve.case" horiz-adv-x="364" 
d="M182 752q-68 0 -107 45t-45 112l80 15q18 -67 72 -67t72 67l80 -15q-6 -67 -45 -112t-107 -45z" />
    <glyph glyph-name="caron.case" horiz-adv-x="396" 
d="M314 936l52 -55l-123 -131h-91l-122 131l52 55l116 -83z" />
    <glyph glyph-name="cedilla.case" horiz-adv-x="294" 
d="M177 16v-69q91 -12 91 -94q0 -51 -35.5 -81.5t-97.5 -30.5q-57 0 -101 29l33 67q26 -14 57 -14q38 0 38 31q0 35 -80 35l14 127h81z" />
    <glyph glyph-name="circumflex.case" horiz-adv-x="396" 
d="M82 759l-52 55l123 131h90l123 -131l-53 -55l-115 84z" />
    <glyph glyph-name="dieresis.case" horiz-adv-x="413" 
d="M108 921q32 0 53 -22t21 -54q0 -33 -20.5 -54.5t-53.5 -21.5q-32 0 -53.5 22t-21.5 54t21.5 54t53.5 22zM311 921q33 0 54 -22t21 -54q0 -33 -21 -54.5t-54 -21.5q-32 0 -53.5 22t-21.5 54t22 54t53 22z" />
    <glyph glyph-name="dotaccent.case" horiz-adv-x="233" 
d="M121 932q38 0 62.5 -24.5t24.5 -61.5t-24.5 -61.5t-62.5 -24.5t-62.5 24.5t-24.5 61.5t24.5 61.5t62.5 24.5z" />
    <glyph glyph-name="grave.case" horiz-adv-x="309" 
d="M87 945l191 -120l-38 -74l-210 85z" />
    <glyph glyph-name="hungarumlaut.case" horiz-adv-x="389" 
d="M109 981l97 -47l-101 -177l-74 31zM265 981l95 -50l-108 -178l-72 34z" />
    <glyph glyph-name="macron.case" horiz-adv-x="329" 
d="M303 784h-269v102h269v-102z" />
    <glyph glyph-name="ring.case" horiz-adv-x="309" 
d="M159 990q57 0 90.5 -36t33.5 -93q0 -56 -33.5 -92t-90.5 -36q-58 0 -91.5 36t-33.5 92q0 57 33.5 93t91.5 36zM159 914q-38 0 -38 -53q0 -52 38 -52t38 52q0 53 -38 53z" />
    <glyph glyph-name="tilde.case" horiz-adv-x="392" 
d="M252 767q-28 0 -59 20.5t-43 20.5q-23 0 -45 -41l-71 33q17 51 46.5 81.5t67.5 30.5q29 0 60 -21t43 -21q23 0 43 41l72 -33q-17 -52 -46.5 -81.5t-67.5 -29.5z" />
    <glyph glyph-name="acute.loclPLK" horiz-adv-x="251" 
d="M110 806l111 -64l-124 -161l-67 39z" />
    <glyph glyph-name="acute.case.loclPLK" horiz-adv-x="251" 
d="M111 960l110 -63l-124 -156l-67 39z" />
    <glyph glyph-name="acute.sc.loclPLK" horiz-adv-x="251" 
d="M110 851l111 -64l-124 -161l-67 39z" />
    <glyph glyph-name="uni0308.sc" horiz-adv-x="413" 
d="M108 825q32 0 53 -22t21 -54q0 -33 -20.5 -54.5t-53.5 -21.5q-32 0 -53.5 22t-21.5 54t21.5 54t53.5 22zM311 825q33 0 54 -22t21 -54q0 -33 -21 -54.5t-54 -21.5q-32 0 -53.5 22t-21.5 54t22 54t53 22z" />
    <glyph glyph-name="uni0307.sc" horiz-adv-x="233" 
d="M121 836q38 0 62.5 -24.5t24.5 -61.5t-24.5 -61.5t-62.5 -24.5t-62.5 24.5t-24.5 61.5t24.5 61.5t62.5 24.5z" />
    <glyph glyph-name="gravecomb.sc" horiz-adv-x="309" 
d="M93 856l190 -129l-41 -73l-208 94z" />
    <glyph glyph-name="acutecomb.sc" horiz-adv-x="309" 
d="M224 856l59 -108l-208 -94l-41 73z" />
    <glyph glyph-name="uni030B.sc" horiz-adv-x="389" 
d="M109 885l97 -47l-101 -177l-74 31zM265 885l95 -50l-108 -178l-72 34z" />
    <glyph glyph-name="uni0302.sc" horiz-adv-x="396" 
d="M86 655l-52 56l123 138h90l122 -138l-52 -56l-115 91z" />
    <glyph glyph-name="uni030C.sc" horiz-adv-x="396" 
d="M317 837l52 -56l-122 -138h-91l-122 138l52 56l116 -92z" />
    <glyph glyph-name="uni0306.sc" horiz-adv-x="364" 
d="M186 664q-70 0 -108.5 45t-43.5 123l80 14q16 -79 72 -79t72 79l80 -14q-5 -78 -43.5 -123t-108.5 -45z" />
    <glyph glyph-name="uni030A.sc" horiz-adv-x="309" 
d="M159 894q57 0 90.5 -36t33.5 -93q0 -56 -33.5 -92t-90.5 -36q-58 0 -91.5 36t-33.5 92q0 57 33.5 93t91.5 36zM159 818q-38 0 -38 -53q0 -52 38 -52t38 52q0 53 -38 53z" />
    </font>
</defs>
</svg>
